<mxfile host="65bd71144e">
    <diagram id="Yuz_HbVSw3rCUmxE04sp" name="Page-1">
        <mxGraphModel dx="1343" dy="913" grid="1" gridSize="10" guides="1" tooltips="1" connect="1" arrows="1" fold="1" page="1" pageScale="1" pageWidth="1169" pageHeight="827" background="#ffffff" math="0" shadow="0">
            <root>
                <mxCell id="0"/>
                <mxCell id="1" parent="0"/>
                <mxCell id="73" value="" style="whiteSpace=wrap;html=1;fontSize=25;fontColor=#000000;strokeColor=#000000;strokeWidth=3;fillColor=#FFFFFF;dashed=1;fontFamily=Comic Sans MS;container=0;" parent="1" vertex="1">
                    <mxGeometry x="136" y="130" width="310" height="214" as="geometry"/>
                </mxCell>
                <mxCell id="67" value="" style="sketch=0;pointerEvents=1;shadow=0;dashed=0;html=1;strokeColor=#000000;fillColor=#505050;labelPosition=center;verticalLabelPosition=bottom;verticalAlign=top;outlineConnect=0;align=center;shape=mxgraph.office.users.users_two;fillColor=#CCCBCB;strokeWidth=3;fontFamily=Comic Sans MS;" parent="1" vertex="1">
                    <mxGeometry x="837.68" y="137" width="210" height="164.7" as="geometry"/>
                </mxCell>
                <mxCell id="68" value="&lt;font style=&quot;font-size: 27px;&quot;&gt;Token&lt;/font&gt;" style="text;html=1;align=center;verticalAlign=middle;resizable=0;points=[];autosize=1;strokeColor=none;fillColor=none;fontSize=37;fontFamily=Comic Sans MS;fontColor=#000000;rotation=30;" parent="1" vertex="1">
                    <mxGeometry x="316.55" y="354" width="100" height="60" as="geometry"/>
                </mxCell>
                <mxCell id="69" value="&lt;font style=&quot;font-size: 23px&quot; color=&quot;#ff6666&quot;&gt;&lt;b&gt;Slackユーザー&lt;/b&gt;&lt;/font&gt;" style="text;html=1;align=center;verticalAlign=middle;resizable=0;points=[];autosize=1;strokeColor=none;fillColor=none;fontSize=17;fontFamily=Comic Sans MS;fontColor=#000000;" parent="1" vertex="1">
                    <mxGeometry x="857.68" y="301.70000000000005" width="170" height="30" as="geometry"/>
                </mxCell>
                <mxCell id="70" value="" style="sketch=0;pointerEvents=1;shadow=0;dashed=0;html=1;strokeColor=#000000;fillColor=#808080;labelPosition=center;verticalLabelPosition=bottom;verticalAlign=top;outlineConnect=0;align=center;shape=mxgraph.office.users.user_services;fontFamily=Comic Sans MS;fontSize=27;fontColor=#FF6666;strokeWidth=3;" parent="1" vertex="1">
                    <mxGeometry x="878.68" y="384" width="150" height="159" as="geometry"/>
                </mxCell>
                <mxCell id="71" value="&lt;font style=&quot;font-size: 23px&quot; color=&quot;#ff6666&quot;&gt;&lt;b&gt;アプリユーザー&lt;/b&gt;&lt;/font&gt;" style="text;html=1;align=center;verticalAlign=middle;resizable=0;points=[];autosize=1;strokeColor=none;fillColor=none;fontSize=17;fontFamily=Comic Sans MS;fontColor=#000000;" parent="1" vertex="1">
                    <mxGeometry x="853.68" y="524" width="180" height="30" as="geometry"/>
                </mxCell>
                <mxCell id="72" value="" style="group" parent="1" vertex="1" connectable="0">
                    <mxGeometry x="136" y="130" width="310" height="214" as="geometry"/>
                </mxCell>
                <mxCell id="74" value="" style="shape=image;verticalLabelPosition=bottom;labelBackgroundColor=#ffffff;verticalAlign=top;aspect=fixed;imageAspect=0;image=data:image/png,iVBORw0KGgoAAAANSUhEUgAAAPIAAABZCAYAAAAEs3mJAAAAAXNSR0IArs4c6QAAIABJREFUeF7tfQecHWXV/jPl9m3ZTW+EhJJAQpGugLSEDgpKEQQVpAgffIJ+0gSpQrCBBUX/oNJUilSV3gMCoScQEtILqdtvnfL/PWfm3MxetmVBVsIOv7C7t8y88877nPqc8xq+7/sYOAZmYGAGPtUzYAwA+VP9/AYGPzADMgMDQB5YCAMzsBHMwACQN4KHOHALAzMwAOSBNTAwAxvBDAwAeSN4iAO3MDADA0AeWAMDM7ARzEA/AVkzXsYGTGFllqzr73Z3dr63IVfdgAEOfHRgBvptBvoByD74n4TMYXZx4x2hGHzehxF+D74BGIRj+ZXwfPxU8C84fwjaEL36Xvn1fpv2gQsPzMDHOwP9AGQCTYFsdEBdR225XgMHr39YIxPaekS17Ic0cnhirxLgH+9cDpxtYAb6bQb6Bchyt1FchniueKkjeKmFw8M3OkJV3qn8cidT2heDvt+ezMCFB2ZgA2ag/4EcUaWd6dwAoUR65INl5IavdUUy7eLcAz7yBqyQgY9+KmagH4CsnmpF2MkP/eXoywaN4QqPl4DuLO5Vic7I16J+cwff+VPxiAYGOTADPc9APwHZLXurvgS8jMDbjUaj+Eel5i1/pgK1YfSqK9NZfeMBEPe8IAY+8emcgf4Bsh9AyzcsqM4lFgNIB8EwjVMr+ERfV0SfozHvqNatfF0fzYBJ/elcpP016l54bP01tA9dt5+AHMahDUOAHAUao9PBf4Ga1VRRNL5Ffc4zKPAr76rbCPZ/zdQPDOS/eQa6ArEqlv+2sfcDkAHf9+A4LhzXg2laiNl2kBaGJ//xfc/zEbfj8B0PhmmhkCvCSsYBCyiVHMRjdtny9h0HpmHAsKwO8+u5rogEy7KQy+WQSqflvKb56dfNruvKfYmh4vvyzzRN8HX+btt2p2uN7xnBZA8cXcyA63FdBnad67nye+j8yWtiNYbz6DiOPAf+jMVi/Tan/QPk0Eam1HM9XwANywLjXdS2uswsx4OTzSIdTwSLL2GLBufydTwP2WIBsWQCpuhmHx5cOMUiOO0JO46YaQEefW0DhVwOZjwuEx2zOwK+32a/jxeOglEBXSqVBLyVCyoK+D5e7jP3tcBNo00Y2IcBeA24vicKg2uKz4AA9kLQF4tFxMP11R8T1g9ADqYpXyoKeGHGUAJQAJAHUASQA2D7wFADSBF4rgenkIORiMEj6AsuktUZtMFHOzy0o4QSHMRhI4U4DDjIIIYkz9XUjFQ8CZNSM2aJdCWMNxadROASwNropTttm8/nkUxyVgaO7maAK7TkBIJRNXEU3FFmYKWg7C/B2S9A9l0HOceFm0gKaN9v8zBr6WosXJfFumwBdtxGfcrGdqOHYquhaYyyAJtmOBzEqLlhIAtgMdrw3NzXMXPubKxpakTCtjGsth67bL0dthw2GuNjQxB3S4iXADOeQBEeHN9D0rK7JId+GpY4pT/NOGphagX+mzt3LubNm4eqqioxrymwqC34Of6ezWYxfPhwbL311p+GW+y3MRKw7819D0uWLJH5iycS8lMEpWGIG9je2obNJkzA5ptv/qFxfnaA7ANergA/ncAaAG/ngOcWrMZbHzRhnReHE0vAMzykvCI2SZr43NA67D66BuPjgJ0vwo4DWdPEs8tn4cnFs/HmqkVYXWyHbxswHQ9pw0a9ncZOY7fEYdt+HhPMemQ8H4YLlCwDngHEDetTrZE1EOO4joC0va0dV/34Kvz2ht8iX8ijVAwATm3N97kI05k0TjjhBFx15VWoranpN6D8N19Y53W/qfvhtddeQ0tLCxLJpMwj/WZaO5ZpojpThTPPOANnn3026urqRHCq0Oyv+/vkNTJny/GQi5l4LQc8MHsRXlnZipZEDZAeBCSSKHkO4m4B6XwrxhgO9hk7FPuPy6CBX0URH8DB71+4F08tmo2mhAejOgk7EYeTK8B2ffjtRQw309hv021w1Pb7YRSSiDkeQBN0IzCrC6Vi2R+OxwK//wfn/QDXTp8uv6czGflJU5pAdkolcS2+853v4Prrrv9UC7H/JFAUyEcceQSeevppNK1bh3gyiZLjlH1i3/PglRxcccUVuPDCC2U4BLH6ygR7fwQTP3EgS4DL99FkGPjnygL+MWcJVhgZeOlBKBVcFIol2HELJlwk4CKVbcaWCQ9H77oZtowRyO14es0c3D7jESwsNsOvTiLvFIOot+vBsmyAEcfmPLZMNuB/DjoGO8RGoYbGtG+gmM8jnvp0+4m64OjHxewgUnre+efh+uuvF4C3tbWJRnYdRyL1BDPN8eOOOw6/+93vEA+/858Exafx3FEgP/b442ijRk6nxYUhODm3zIQwmPqjSy7BD37wA7nNQqGARCIMyPbTjfcJyB0YVKLiglc0vhdE+To/BMgAFnnAX99bi8cXr0V7ejCQrIafzyEZi8H1XWRzWaTSKSQK7RhabMTxn5+EXdL8bgG/feNB/HPOKyhkYrCqUmjnhMfjsCwTBZpBtgUr76K2zcdp+x6B/YdsjUGuibgZA1wXqIhad8UI6+r1fnpW5csWSyXxfZkasUwLNLG5qK677rpy2oRBLS4wLkCafvx38skn48bf3TigkbtZm3zrS1/+EgjkbFsb0lVVKBSLopHpHwuofeCSiy8WjawpP00Fqmb+pNfIBgOZi9sLDVSrTKn0BMyehOsZ51MiR0j8CFEu4Gb0HsAyANOfmY+ZrR6MoWPQVnRQHfNQaG9FLE7z2odvx5GBg7rsSnx58qY4ZFhCUkyXPvdHvNy0CO2mDyNuwyuUYFMlm4xX+3BMAwnPRHUbcOS2e+Drm++JwbBF0kTNnoBF9uH6ZQXweiBHCya7E1Of7OMjUBmM4XH+Bedj+vTpAvBoeooLS829r33ta7jp/900AOQegPyVr34F9z/wQId5VIFIH5npp4svvhgXXXSRnEkDXL3N0f8nGGN9ALISKE2YHYBMKocp/zQ8b0byxZEiRFGKKy0Dv3t9NV5cV0Rx0HC0EIxeHvRibSsOxzfgmjYSXh612ZU4YpvxOGwwKZ0uLprxR7zcuAhZ04cZs+EXSrAMU6hepIC4BLJrIp0FjtxmD5xIIPt20I8gwhbT59mZ5i3fWhe10J8sZDu/mpp0HOsAkD/6E9F1QCA/0AWQTa4zfyMAcqC/vKCskAwOQa3SKhW62p1DCZjKfnZktvP5IpqSadw1dx0eXbgaLZlhKMTSKBWKiFs2fCfQ5DTBE24WNYXV+PKUsTh4ZEqyxpfNuAMvNy5GLgSySyBTUoqw9OEbBuJeAOQjFMgiIvgRI/AEKtH7KUwsDwD5o4M3eobPHpCl6EHLHEJMR2Ykqn2DFj0B8yrwjgOQtsDGy3ng7lfnYXaLB69mGPIuYFpxmL4B27Th+Z4Aud5txmFTxuKABp7ZwQ9n/Ek0ct4ITGuH6RYCmbJFdsAJTOtkDjhi2z1wwmahaR0FcuUa6ATIwZn+e48BIH+8z+azBWTRZuESp78bKQ+WIoZwNqJlwwqGgPbmI5/PwUlmsA7AY8ta8OTcFVhtZtDix4BEGkUBJqOuJSTdAoaYeRw6eTymDjHo6eJHM27Cq40LBciI2cLCET4sL8ScMYHsmkgQyNutB7KWYVT6KJVFFp0p6/9GQA8AeQDIOgMb7CPLFyvAGpisIYhVjYVBLQ0NaWCJZjl/bys5KMXi+ADAv5e14b11WcxvzCLrmYgl4hKgKTGs75dQbzr44uZjsdvgFOyYj8tm3CxALnAgcRtFpwQjBLJBMrsXaORKINOn53mjljXH11k5ZGdgj5ZSfrxLqG9nGwBy3+atq299tjRyRXuswHQOfWFRwxJRCv3mYMoMbdOjHT98A7n2dsTSSThmHO0AVnvAkkYPBc+A47kCzFKpgLgFxLwiJgyuxZgY0B4Gu15pXIQiIRmzUXDXA5nWghUCOZ4HvrztHjhxsz0xxLeD4FxY8by+xWYnoWu+GQqiaL201BN9DPZ2V1HL3i5LtQ7+00D+qOPs6n4+qnXzUcfVXWqUY/5MBLvCUJc8o6AtQNgkQJBhiRes/9ST1lqjyi6W/DtXLMKIxwUfUiwhXjCgBWH8yfNV8T23iLVWEZfO+AteXrcYpVAj56mRrdC0ZjlfBMj0kQnkob4dmP2R4ByLNTQARm1b7lUinwseN8eoFVmfJSB/VLB0J5QGgNz57HyUedlg01qBLFq4kIUZj6E1m0c8UyuVS23h4icYFQAKZP5d2YWrMoDMzxJgZANLhtQngHNI26xaMrAMeVw246+Y2bgEDs3omI0cNXIIZKnNdTzUxNOwWh0cMmkXnD5pf6RzediWjaLvwEuQN2ZJxVURAVMnAQsx8a4dJGHBLzpSD83cdGsuh3QqBb/owo5ZvYqAMbdIM16LF0gk0AIGBYmWyonAkBK5wMgvlopQ6qW+R+1LZhGZXPrA9ZykbDKv+ctf/hK5bBaxeOCayHc7ySPTaonm07XIQl/j+EjI4d+pJOvPgoPj5Wc5jySjCL84whLT+ykUC0jEg/x2Z/ej45ca8VQKjY2NGDRoUDlvG83L8h61PFC547TYoteNzp1eU8ky+jfjKCRtcI5JWdWiE6mGIwuOjK2wvrsnjUxiyDnnnIPLL7+8PMeci2gNOO8pnU4L40vHrTXO5GHw84wDRQ9xOdvapPBlQ48+ANlHwWWayATyrPFNIG8mBMBLHWBpi4O3FyxCwbBQ9C34vgnTDeDqCkvSgMfsVbgcDVYzGA4M3wUJJrYH1KWrMbK2GmMGpTGuxkCdrIZ2OPkC2msSuHTGHZjZuBgOA1txG3m3BEQ0Ms37JGzE2j0cttWuOHXSfqgpMeccQw4umlDEG2vm4t3li7GmuUmi5ENrBmGLkZtgytDNUQsbtufAKnhCmmdAj0cpX0IiHuvoVHcy49HaVFYd8YHqsXr1arz2xut47733MGvWLCxcuFAWMg8+QP7bZpttMG7cOEycOBGjR4/GmNFjyt/ng+ZCInNLgcDZJUXzF7/4hYBPwdsVkEth7Wy0IUH0NnKFPJKJgMZKUL744ouY+eqreOedd6QqiOMlk47VVNtttx2+8IUvyJgH1Q1aP872Nrzxxhuor68vM8u4oDluFnUQTBznLrvsUuYpa011mXwRAovf0++qEGxqbsLMmTPlH8e1fPlyAQH55ZttthnGjh2LKVOmYNttt8WWW27Z4X6S8QBcWv6pAowCgnNyzDHHdJtHZoaErC4lhPA+eD4KHP7e2tqK2tpamYtFixZh5cqVsgYoMGQ9VGWEdcf7pSDjsWb1GjTU18uY+3L0CciUvKR+oFRCDjG0xGy8usbBCwuWY35TO9pNG3mDdcZMIRmw/IBd5FOZkYAluGbOOcjt+ib1dxAE43vZtizqk3GMSpvYZdww7DUygXqa20WgPQ5c8PxNeKVpYUcgmyaVZ9gpw4JRcFFVsnHoVrviWxP3Qj1iYMuBxX4j7nvrWby6Yh6WtDYKC4w+ddw1MKq6HtuNmoDDt90TI1GFlOsi5gFeWDopAIjZQgXt6Whvb5cHp/W/LDG899578c9//lNA0dbeJlxoTkgQcTfk8/xZIB88kRAQDBs2DLvuuisOO+ww7L777qiuqi5rZK0v5hyedfZZ+NUvfyncai6q7jSyakTtbqHg58KiBuH5Vq5aKYv5nnvuEbC0trXJIiVXnWPmWFUD8efkyZPxjW98Q0DAe77vvvtwyimngPPABU6hw3Nr6SU1IkHGORkyeEiH6WQFl3CXYYgg4fe1yH/27Nm46qqrMH/+fPnX3NyMYoG2FcQS4WfbKezC36npd9hhBxx88MHyb8TwETJ/as3we9F55N89aWQKoR/96Eflogm1ujgnFAS8VwL3zTfflM88++yzAlwKeKF0SlmkJ8Ut/LuttRUNDYPx3f/9X3z/+9/vU4OCDQayaFbflZvPJDPIGgbmAXjgzVV4szGHJjOBPEyUrDg8KzBNBa4+OVnBDQid0jdh+DERCb7hgU3ny6kr0xJ/GC2rsFnawP7jh2PPkSnUuUDW8nDR83/EK40LxUeOmtaSrZa6URPIlTAIKTGtv7HlFzEICaxEDo/MeRl3v/00lqMd+YQFK5UQIHvZIuJFH8ONNA6YuCMOn7w7RiIFq0Btb8GM8LODNFb3R3Sh/O1vf5NihVdeeUVK4xiV58MUU5mcadeVhaXNAQgE8nyjx+ixYzF16lR8+Utfwhf32BM1kVJEAu973/8efvaznwkAetLIHDsXFa+vBRX6O8/1xJNP4O9//zvuuusurPyAeQXAtG1YbB8UthSS4oGwHQ4FD48hQ4di0qRJuOmmmzBnzhyQEtrc1CTChfdHLUXgUYDwPJtvsYUsdprhBKyWXKpbETXR35//Pv785z/j9jvuwJo1a+S84iJYVocWO1GB2N7aWp7CEaNGYd9998XU/fbDCcd/XV6nkMmElWIyZ+H99ARkdgn54Q9/KPx2FWZKz9Sfixcvxm9+8xv84Q9/wNq1a8s0WQoaxn45B7x2S3OzXPes/zlL+NsUPH05NhjIgY/soaW1DTXVNZILfmBxDg/Mmo9VdhVKqWrpseXRxJOJYTrIge85QbkXNXmM7CoDtkvyx3o/gUDm9xwWyzOyVGrHoGILts8AX9t5AraQLiIOLhQgLw6i1jStmUe2gs4fYi4SZnkHDQTlFjvipEn7SseQmS2LcPOT9+F9by1a00DBAhxaCB6FjQnbNZDOAyPyFs448CjsWjseVeWYfBCbJ+ji1JzdzLZKeP689dZbce2114opzYdeXVMD+rQk4pcL1slZNQwx4wlsqX/ldUJfN5fPwy0yAgGMGz8e114zHdOmTi2Dmc/k4ksuxjXXXANaDb3xkcXXDTuLcJw08ViMQRCfdtpp4EJkyR7L+LjgOIZ8NivgiVFYsBCDgGQsI5kUAUKtQ1DvvMsu2GmnnXD77beLmSnColBAMpUqL2ACe9SoUZjz7hw5Bws/6Hvz4BOUMYX++TPPPoOf/vSneOKJJ0Tb2vE4nLBnWTzklvN++Br7t4ngicXE/FdfmFkSHg1DhuC7Z/+v1BNTsHTofRb26Dr66KN7NK0Zkzj//PPLq4BmPbWw8tr5PotYRHDHYjK/vBaFhx2LwY7ZyOcY3gWOPuYYXHP1Ndhk7FisW7dOLLENPTYYyDrRuUIBsUQSKwDc8MpSzGwpIVc7DAUzBtNxGWUJNLDQOR0JKDHQQFanYwbx65hrw/S0F6YB0/fFHy0xh0yf2Qaqi20Y2b4GJ+42GTtXEcjtuOz5wEfWPDJ9ZG3hw4VGI90q+ahz4pi62fY4dcqBiMHCQ8tewx8evwdtNUA+BRSZDjNMAbIUVJgW4nkfDe3AcbtOxZGb7oZaAjnsECFFIb4vnUh60si8P0rjK6+8UvxggrK6uhpNlMCWKYuOY1aJzmtI47xwIcaSSVkUUnYZAlw0jO/jlltuxaGHHFL2wygYqCHoI6vv1xvTmmOMLuS/3vk3OQ9NVjWfeb+sx+VYuSDpH9JaUKFDzc5/vB7vkfdDsG2z7bagGazWgRbe8xwCxlgMY8aMwfvz3i+Dl+YzA1c0TTPpoKb6wYcexGWXXYZXXn5ZvkNh0J7NBs874kPr3+r3673xp/Yyo/DhGIu5vASrLrjgAjQ0NMj4pXEelY/v4aijjuoWyDStL730UpkrHvR7eX11o/70pz/hJz/5Cd5++205L+dGfXxeS+bWtkTo7b3PPmJJbbvNtiIYu2qa2BOw+wBkH55TAOnQrp3EYgBXPvoGFsTq0JqqQ941UGtasLgwDU8mhnkdNsizjHjQCM8tCMPLEjwbcEKmhU1fmqnhRBzZfFF802rfweDWNThhty2xSy3xlsPlz98mQM4TfYlQIxMUPJ0nokO41rWlGPabsD1OmXIQCijib/NexJ2vPAGnzkTRDmqf2aTP9gwUSg6QSoivXN3uY59NJuOUHQ4KqqYKbDFkixnX2waUDBBRYj/11FPyDKjVuMj40Ktqa8oaWQRj2MhN6l0rAieFbBZGaAITdDXV1Xjz9TdEeutBQsx5552HX//617JwFFgyHZ1EraU4nv5usVgOxD388MO47IrLMeP550Wj04wWfz20HMQkJKjZ9yudlkWo98VFTPBRy/J3/qMGam1pEfDxe3QFmmgO89mEgGewbO57cz/UqVK183333yeR4VdnzpTzUIOuXbMmsAjCyDvPrRkC9fWpRIJnFQjhKOjFkuCz9n2xPHj+wYMHy9h5DR49mdaVRRPR4OYjjzyCb37zmxJ840FTmdaFxgh47220DgxI7IPC4ID9D5DPNoXR+55A29n7fQIynCJ8y0bOt7DWBH742OtYmhmC1UjDt1NIlTzQ+2XkymN5o7RrNeC7bDsDkUY0VE0/8I1LoXUdY6taPhjPD1jZ8RjSpTwaGlfihN22wk51QNx0cPmzf8bMdYvQbnnwEjYKQtE0yqZ1yfVRhQQGF+PYf/MdcMLk/bDOa8Kt78zAY/NeRZuVhx8z4ZZcJGIJiZYXSiW4iRjMoochTgK7DhmP733hKNBjYXWVHYtL5076thK57ubgorjkkktw7U9+IpJYfUMCNZ6IIx/WCav0Vf9YfUSaqWoKpkIfjn/TLNxzzz1x9513iUWgC4im9bnf/x5+/rOfCQg7K2OkX6dljJp+Uu29atUqnHLqqbjvvnsxqKFBzD8JINEfDgGtqTTRdAymRWySIC7Bfg6BhRG0H2qTgB3vhYAeVF8vQOZrCviRI0di4fwF5Y6Vmkbi/bzz7js488wz8dQTT8h3+BrdBrom/H60RliDhRyHpoHEzA7/JngpmKTrpesik0rLmDg2Bq2++93vyrjZJbPHqLUEVU1cdOGFEshSa43fpwZmzTej9fybrgbnWJsOcMxqeg8ZOgTXTr9WngkFVy6bEyHd1waJfQAy4JVKksNle9n3i8Bt78zHi2tzaEkPRdGqgk3H06Hp6MGUPlnhpqiMVIuT7cMyDfGbGegybJOxMBgOzW+2xTVRYloq6SPeshrbODkct/MkTKwKKCe3zHkS97z6NBrjDmKDqtCWo2ljwGB9smmh5JuodZMYus7At754MPYZvRXakMfvZj2Cx+a9hqxfRLwqjYLDoF0hiESzlSyAlGshsSqH70w9EoeMmoI66dHL0LWPos0unFaXXTg1NZLL5yTlsXrNGnmY0o0x1A5cTDTtttp6a5x66qlixql5R0AxlfLYY49hxowZEi2mtmFfqMZ161BbV4e//vWv2H/aNBEjUWbXeZF6ZApOadsa0chRIMvCDnOn/HnKqaeJP0vNrsJETUEJuvk+GgYPFn+PIOLfXJySSiqVxMqgqZJMJcuN/phGYzSWY6afrD2fqclpYRAwE8aPxzuzZwf5fUZ0GecI/eRjjj0G//jHP4K8OLV66AboPdHCEUDTzxRTdX0nUYKLY6RLwrnXaDHvlcLAKRTFD6U/yjQVTdsjjzyyXBDXrUbm2iwW8bOf/Rynf+d0uI4rVg018Eknn4SH//WwNMQo5AtIJBNwSkHqjL9TCYj14AO33XorjjjiiCC3HfZVE/u0tyZfhSLZYCArgaO1PYtMJo1mAI+uyeGhdxZiQTGOUqoBBti5kbkmVwoaqF0D7WPAc4Lm8+wtTa3s+65oZY/xHs+EZQammB03kHcaUZNdh33rqnD8TptisLC+XLyWW4o/PfUA3mxcglJVXAJeVpwPKRf4sIkMSktbsNfgiTht2hEYZ1ehFUX8Zta/8OT8t9DqFYBkDNQrnMREWEHFPHG1Y2NKzSgcu/O+2K16DFLsi+3SRQBc0cRBUK2zBJQC+Y0338Due+whWsmiX8kFFHa8pDYbVFuHu++6C3vttVeHNIj2fhI/s71dwEzg3n///WD+mabYCy+8UH6EnQFZTdmoj0wQd6aROVcLFizAt046GU8//QwSqaT47mVznyZyIiFCV3PdzGvTPBw6dKiAgRpk2bJloBBqaW2F6zrix0rLodZWiciqL8tFTI3ans+JJtts0/GYPWsWbBbIhIQMzuH9Dz6AU779baxm/jWTESCIVSc9yQPNqhFpXovmK8fFVB3HxntasHCh9NziQVeA46TJTbO8Kp0RjczzjhgxQvpvMW3G++c4jj322K59ZNMUN4lmORsZ8liydAl+/vOf4/e//72Y0BSUHHc0FUUQU+gkUilcefkVOPGEE8Skr4x298WsFgHga86jl2eg/8n4aXsuh9pUSmiV8wE8/O5azFzZilWujYIRg8e0CvvDS3KYHjIbEVALBykDkUJOSbSyQe0s1zcQ42eLDmw3D+SbMaWhGoduOho7NAS0zazTBsdO4t45T+PR99/AvNY1KCYs2Ek29MoiTT+zrYhxiQac9PnDsGvDRCRRFD73r976Jx5692X4NUnkTA8FLh6DJBQPblsWScfAqHgtjv78NOw+YhJGI4UkpbtniFKGnZDMVlfpJwXy7Xfcjm9+61uyUETihkCWe/Y80KR8b84cISlQy0VTSWK6hi189JE8/fTTsrDoklx04UVignWlkXsDZClgCX1MRoOvuPIqNDU2ie9O/02CQyH7KS7Bq1Z5bf/995dcLHt/cTErQKmRn3vuOdx2x+146KGHxI+llqRLQYGkZrnkqanFQ1bYhHGbloEcmOcGsvmcWCn/ePBBAR2Da4zuUrsyqs6Dr7mlEiZPmYKvf/3rMiamvWjukxVHDfzmW2+BQSem0BrXrkU1CRqGIRqeGpnPYL/99pPv8ieFkmh9z0W3UetQMNHsn35N0Ozw0ssuFSAzlVRVXS33TIuFwoNzpGkmjuErRx6J639xXZm9RWGs+efK7i69hGSAnL4AmdPJxRD3g/QN29rOzQIvL2vF28vXoBhLoN3zkfMcycGyewf9UaKBg2VfLR4OTTm2p2WHfkazfS8gj2RzqI/bGFmTxJ4Tx2KnqoCyycomssCoSecX12DGsrl4ft4sLG5dh5zW+oosAAAgAElEQVSTh1HKYUh1NQbHM9h3ym7Yf9SuYCsCL9sOP53B7994BI/NeRVFanvDkz7XtOkTnodaK4FNG0Zg8ohx+MKEbTAWg0C4mJIaYo9opsQZgQzS1J0dCuTf3fg7iYoSuPSHZaLZzZImVphSuv6662TBMoXHQ4KCvF54cuZQqR3SqfWssNa21g6EkL5qZI24E4Akmjz++BPyRGsG1YlgoU9aZOSYi7KlRRJCp59+uuRNN9lkExmn5r6jDe+XLV+OV197Fd/73vcCQZVKlYN3Gr3lfLDjKb8/fpNxmPPuu0F3l5D3/uJL/8bee+8tbgMBkA3TRpqLlkh+oSAa9MwzzsTnP//5Do8iSnttz7YLmBnNnzd3rnyOAmHvL+6FI484QszpaKqHORYKg+5Ma3mOxSKu/9WvcMZ3zsDNf7xZouqLFy4E4xkU1CpkCVCa3UxNeY6Lrx59FK77xXUYMXy4fEaj5UKW+ohb+WwwkDlRza3NqEmnhHrpFl14VRlpGE9DZkErsHDFWuRcH9lQgiatOAyJlIa5SzZPN4MOIEyOK9ul6JUk5zwkk8Hw6gxG19sYFvKu/WwOiThNc6YKUvAsE+vg4b22FVjW2ow1zWvhFrIYVleHiZtMwEgMRjUsmAXpgos2w8Gj897A/MaVUlVlJWz4sSCymTRNDM7UYAKb2mdGgw1mUzS7XUbRffHhSd+zDBu+y2Bd17KSYP77vX/HV77ylSAPTDBns/KQmYtNUlLncqKFDz/8cAl2kOY4bCjvtPuDQRGapImwBW5fgazalqSNPfbYA6tXr0E61PKSSqHwDRvcUyMffdRXZbEyXVR5aLSaPrESKv718L+EoTTr7bdFA3OO1bWgJJR2TCGQ5703txw24xxf9eMf45If/lDmS7QVXR/mqItFOQfndJvJU3DN1Vdjn332keFwDOVAG/f5ygcRdBWS1//yejkvYxEnfP3rOOXkb5cBLPnnMO0jfP1eAJnPgBmC4SNGCInjzddfF+uBkfqWpiaZP1owHDfnk1FyjpW55S9+8YtyPb1mNP0oOIjs6dXTeoi+v8FALrf6oTajvcnm3FzgsbiY3NTWpFZbYcMBLmxd93yPn9HiCf4tFmu4nxN9T/4eeKLB78E/D75TENNSlGg70WSiFHfh25acsyDJqAIySAi5g1TPYlMR6WpyXtl6xEGz6aAgWWaPbGomwMKIqY8YudmwYcEOfHV+iztUhIMjm8022OyAwqj7vaPenjUL239uezFPa2pry43ONbUkZlc2W06pDBkyBDvvvLMwtxiVVm61pmFoLopGU356+AT7CmRqNI6BjDP6g9RDtXWD0NLWKoKC5geDVM3rGjF5ymTcdustwqXmouQ4lNhfuWkZNRq1DJlal19xOa6++mpZmBKFz+WCXCpJIWT5hUCeO+e9MpCZYz/8y1/Cs889h6pM4MfyGlzs1OQ+z5VK4anHn5B4AQ9GwikUNWAkc0Ieej4XCOlEUsY744UZ4kvvtONOHYpOeA69jyAO230emcKKQGWnzQ9WfIBnnnxSgnckpogrFVpe1MQ0sX3Xw/bbby9WAZ+t9hqXOJBG0kMtzntQgG8IiMXi21DTWncvdsjUEn/RkIbdls8QF7dK5GxwTyfayqG9RLQy92w7sOsy0jTPDXtyEbTpwGIO6hipxVMxoLUZqE3BM134cVukOIFhmwmJcvq02v02wA5gDDcnxBOx1Q0bMNj6NvDPZVClrOScgyNK5+D7HEXwz/OYvqE5S9CSvxv4+Z5blFwy954yu1PJ9OPzOZHA/37xRQl6UDswWCMR65AaSc0sUdcwH8tR0b/lYmN+lbnIAw44ABO3nNjhmRJMmbAIo69AVuIBc88kLvB+CBD2cbYTCQEZx5dra8c5556Dn/7kWhlDlNLIvzkWAUuodRUIdA/+8te/4Nvf/naZ/FGOHjO/awebn40bMxYEskbRV65ehS0nThT6pfjSnLeQgaZBMxZoPHDvfaL9NIesXGeekxq7slCFY+XY1KKhmasEFxUAknu3TKmq6sm0ZpqKgq6JsQAfqK2vF+qpFLOEz5VjK+TyUgTxf//3fzj++ONlDhkp5zPuEIwMqaEbCt6PqJGBkluCT9OYqSLfRbpINWkBBQ9YtALLn/03Co2tyLfnEJNSQBPNpRzio+sxcodJaNh5a7iMpHoGjJIJtLq0x9E8aw5WL12GdCaFkZuPA3beFvBzwKCMmMHM9cZiSalhrqKD7q0GmpegffUCuKU2mIaHbHsbDN9EPJmSlrpFp4i4TRM5KMyQ3RwTSSGD0JqgYIjFq5GpHYpY/UggPQzwagCjGp5nij/MiKPnl0Azkz6QIWq6a26XViPdcMMNolUyVVWyuDTVQI3I6K0CQel7lMZ8j5/nwmKa46CDD5Y0FbU1tQuzANpgvq9A1pFTG7O4gbthMgBJFlmqqkpARiLK0OHD8Zfbb8fee31RFiqDV0o20XvhYlJLg3x0Lc175NFHxHXQHDm1MgWEpMZiAfFlk9FjQNNaLYQVKz/AyBEjxI9l9FzGGaa66JbwHKShnnXGmdKokTRHAlxJH/y4ajSxLMKxaTGIflaCZZEy0zKhpBdca55D1n7IF0+FMYwcyw9rakQY0urIZ3MCWOapzzrrLBkLq6AYWY9q3agpHS1i2VBQ90EjMz7kIk/aHsvBWnPIGClgwSrMu/UuvPfkC6jJe8j4tqSaWBRBLZmPGViX9HHYhWcC07ZHLt+GVKwGWN6MlXc9jFcfeAxWUzvSkkc2kIv5qJ04Dp/70jTE9v8CkDSQa2tBqp7ashkorUR+wQtYtfAVlPIrYRp50fEklMgWbdJOl9FwVl4xPEYwB8UarEC2uP+TLBYytjLIeXEYVUNRO3ISBk3aCyhWA7FhEIqzwRI1C7RCRHOa9KK7J2muXLUKp51+Gu79+9/lO5TgfGg086jBlJIp9kEY7ODvql3oc1IzEdT8HiufSPdU0zAa7Wak+cIfXiSUUC54JUjoQq5MP+nIGYV+5plnJHpHsouYsGF1U4rmaVt7UH1EXnC4k6OkicJqLZ6fr1MLCp86svPFPX+/R6LbXJykpjKXLPdHWmVYPTZ6xEi8P3deeSaffuYZHHDQgRKdJtio1RhYonvC+6Jge/Kpp7DXHnuW201RCIh/HJJ0hOYamq1RkOjv3ZmuGqzsSSNzfapdR1eLB4OYIrQo9EkFTSRw4fkXCGlEo/v8nHKy9VmrEOHf/L2veyz3AchBJRMJIb5pS2kh5q7D0tvuw5InX0R8VTMGeRbrhlBgpFq6WxrIx02sSQK7X/w/wP7bAkkTWN6O5bfciyWPvAh/8WoMtoNNUZkWanLyyFfHUb/jJGx2xL5I7LcbydmA1QIYy9G6+EU0z3sWTst8xGP03VjID9jkcxcC5pGwyph9J7nEJ5c7yADLomVgg51F6A6YSbSXLBSsDKyacRi86e7IjNoJiJMGmRE/OtDlQUF+TxuzauUT9w9ixc6dd92JtpZgIQ8ZNhSrV60SM7rcaIALlrnSkE6oYOHf1NZSu1osYuKkSbjwggtx7DHHdFgcXIDnfO9cCcBIUCkkoPQE5EMOOUTKKi07Flgq3Pgt3JCMjRT498oVK5BKrm8SEB1jdIGKNmSLJslZmyC9kmkcAk2KBMIxMf1jJoL9qph+mvPOu2UgP/f889hrn73L9Ev6nWpaM3rNfDBTcTvvsKMEkOT6IYGCDR2pCTWbqsCNEiyk6ioUlnxdQa/3IYFXw+zRtJaNEMLUIt08ocGGKpRApuXAHPree++D6ddcgx133FHejVbEdRal1p1B+rLPcp+A7IvzS6qeAbtoo+2Wh/HSH/4Kc/FqjKuqg1kMpHZegkxMPxnI2QbWJA3sefHZwNQpkGZcD7yAp392E2ILVmNUrAopKxb4wdQGnoPGfBbrqkwMPWBXTP7+ycDIKrhYASs3CyveeBDZpTNRm8gilvTgeEVQblDrxo2gqIEPhkAOqATU0rHgNRRh2dyhsSBjY0P8omMgXzLhxIbCTW2JTXc6EqjeGjDqpek+tQQXFpkhQnbp5cGCiZtvvlkAw0YCNKfjFcBQqayBHY1q8oHy4ao/RxCMHDUK/+/3fxD/mYfuNvHdc8/Br37963LUsztCiOaRqTHvuOMOoZ9S4HKW9HsOTfzqasx++22MHTNarqW8bf7OhahRVo0ma9SaAaMHH3xQ0jtqbailIekbptp8H5O2nIhZb71dzlm/8eab2H6HzwnoWahBf5Nj5fyIO1JbK+M9+IADJYikBBryEFR4KUAUyHQF+DlaQT0FknqbfqKrxYH5JUdcEZ6XHHSa1hQ4TJsJBTSZxIknnIgLzj9f0nZRF0BpqlHqay+XVKcf6zuQSXUqAUY+jrfPnY6WZ95AQ85FfYx7DhVlf6UcHKnj5ablOcvAqpQZAHnaNjKYZT++CYvvfgIjCxZqEUO+WJAOItKYXsq+fCzINSI/aQT2vug7wB5bwTcXo23BQ1j1zr+QKixFfYZipRSQDFiUwYg1xyaN6vlPll1g4odALhHAbEVChpfnCkCpmckuczAIrRiNCdsfAQzbFV5suJyXfiRNdp6uUhN1NrOVhetsLMDFTdrhyzNfEV+T2kY0RFhTq1FLnj8qnTXyy4WQbWvHgQceKJqezCAGoBhQO/Os/xGBEeXzdqeRufjOPfdc2fgtFk8IA42RYV5b0iatrfLa/ffei4MODIQG62qVThptv6M1wGqacrZZhEEKolYjScFFsSjCgZvc08ckkN9+6y0JCtHyWLxkCbaYuGU5/26H5aLlaH8yKfzrn1wzHUVSa7ldDgVzxJLh+Bkh5/iUaBHVykrWKBdYhBqa99fb9BPvhY0U+EzJMKOAaW1uFt+e98XxMJJO14hjZK0xwUyfWQNxOmb+1LXC59/Xow9ADoDhSu/pOLCsHY8edy6Gf5DFENeSvY9ZteTZAV/aZmMBx0Wb4WFFlYW9LjsXmLYt0JbFrP/7OdwX56CBFLBcEUXDR4K0z9Y2pONp1MRSWFnKYnm9hc+f/XUkj94HSC/H6ldvROvip1FntSJtuWjLtsOyEzDjSUmlsB822KwgbHxLXRN08qTfZcH1We9MllURrhd0bbBplvsuSl4VWvyRqB+/D6onHQrER0pFl2XFRQIzMtkbOqzWFBMU0YNUxuUrVuC111+TyqiXX35ZKI4EtmjiMPdOhpD4q6GWJAhIiuAi4iJmkIqmsVbtEMgkP2TDnGpPGpnX+9WvfiUkD8o9LkJhIoWcZWrDbGsbTv72ybjm6h9L3lXTTrrwohpGrINSUDPNxgB0J771rW/JOfk5aileU8DOMk7HwZabbS5AZhSZ1si6pkZsu912Qvek1qNvrw0MKOwo3Mjgen3mq+XyQJ1bFRgKBgW/VG0xqtLcjOqaajGdo9GNDgUmIb/wq1/9apcUTY2eM4DFOMXvbrhBcsjU+AQzhapUuFVVlbMS9Q0NUp126imnSrygsmeaBuY+4TxysImbk2f0NA4sz+Kxo8/CsGXtaGDGN18CWK3ChyUt7nyYxSKaLQ/L6xOYevX5wJ5bAe15vHbyJbDeWIQa7pTIgItloMh8LTc7LzjIII6s7WN5jYkdTzsKieP3B6qWY82rN6Bt6TOoi+Vh+0VksznEEylpK8QotR1n15H1HB9LmtYHB4HMNJNpkaXFO2EklXlvD5ZXhOOl0VgcgrpN98Kgzx0NmMEOGDS/mWZj4Keno9L/4WKObrupqRCeJ5/LC1f35ZdeBokUpDoyN9rW2oZMVUY2MRc+eDLo/MH0F0HN8jf2jNKFStOaUXKCpTc+MrU8tSYpjuvWNYL1zyoUaFbXDhokeeS6QXX4w+9vFDM5mD9Wsq03qzV9I+Z1KLQYIKOAoLbn+AhadRtE0HC/Lt8XrvW7s98pPxum7Y792teEW65NFajheA3ek/jXliWNFc757ndlPJoSq6waIsikTxarkma9LV1LtthiC0nrMeof1X5lvnMv8sga6CM/m2SeM844A/fde6/cO+9TLQHy7Alq3jc185Bhw4RUc+q3T5GAmM6bzqWuqUrh2NNa0/c3WCMLHzX0WxL0FRtdvHPm5Si8OBt1no2YSwAzbWNJdNskoJwimtImPtikDtN+egmwxXAg5+KlY89Fes5K1Jo24gxC+Z4Q6tmcrJgrIOaZyMYMrKqzsdMpRyF53DQgvQLtc27DB/MeQ8psRTrG0jV2VbTglArwhHpFM5txaktSUWzlw/g1wa2FG4GqY0SdoLckgGf5JZT8FNr9ERi99cFIbHEIw1Nw2JaIUW7ej5g/vWn2g3J3SJ1sLjYCSNvLKDBU6/InpTlLIMndpVblZ7lYNQBGyc+Hf9BBB0n3EenS6Lk4/4IL8JOf/rQcUe5JI/NatAToa89+510xo+mXKt9XmV30/Q499BDZJH3atGnlqLqeX1lbWqHEpngEDTt6Llq4UAJQnDM1d6UCiMLdNMt55LKQBfDHP/8JJ518srg7oqm0tZCUzUE2LUinM7jrzjtl7DoOTcXpnIpvzn7pa1bjxz/+MX7x85/L96dOm4YrLrscm2++ebmtjlpPFqvgTKv7euTQ/KWguuzSy/DSyy9Jeumlf/9bLCYKUj4jAplCh5YMrQEK3+0+9zkRcF867HDx/zVzwblTrcwx9sXE7hOQtT812UkZL4UPfvYnLPj7E6ht95ASelewdxOLIoyYiYLporE+jtUTh+Gg668g/xEomHjpqHNQv7gJiZKHUjYn/rRMQj4n/NukHUer6WF1tYXdvnMsjK9NA1IrgcYXsHDmPfDzS5CO5WG4eViGC7dYkBx0wQn4W0xEEcKyw4S0EZLHjFQyLsETjxQ0aUvEnRoDgBb8ahTtcZiw01eA2u3gGPWyHxXznzS/JRgXo7ncffqJ1UovvfSSdHRkSWP0qKThRaWwvse8McsZ+ZAp5TUgpoQSRkLZ1I12PjnYV1x5Ja695prAB2WArJsyRtGQUo0G7LvffnjxxX9LLa5o5LCemM921JgxWLZ4icwZaaTUsKR0dgBLWPPLRTt/wXzceOON0quKUVvmypl2ombkuSVSzG4r4WIdPWoU5ocdQtR3XLRkMbbeemu5X5JlNLLPYCPXhuSiHRfVVVUCUObYo0e0kd6ChQukuQMZbJoiIz3WMEycfNJJUsFE1tX6cbG8tmcgU3iyhpkdRshiu/+B+3HiiSeKwJX4Rj6PocOGYdXKlTK0UaNHg+lIptK2mjwZD97/AMaMHl0uJvk4yCEbDGSdND6Qousg5ceBOSsw+4bbsPgfz2NCfBASWRcJz5AHuLrQirn5dajbfQq2+c7RSO2+HYTM3Gbgla+eg5q5q5HwmDYygpYyIf2RCf9MMoVGt4CWQUnseMpRsE48AKhqA7xlWDv7Eaxb+iyQXYAqK4uqhAnPoXYO+3EazBUHTetpPssCYLhK6kmzYiIT4GQ1mbE4WvMe2koJIDUWIzefhsyIHYGq8Si6SQmCSD+wkIIX8DbXA1mDPJwbLY5ns7hddt5FHhY5tieddFKwoCO51kCshKZqRSUGgfr6668L6YE1rTSt2UaWNbusIGOxwy233iIkEdIRL77kEqEBSvF82BVExhP+Hi1jZIWPmIgw8PgTj4um5T0wkEXmUbShHE1bab2bZXonKaWXxx93vFA2N9t8M/ETWVBPn/3uu++WxnhqPajPp+wvgpomqGofRnLJ7Ko8TjntVOneuY7dQMJuIjSR1d8WGmQpaItDKuzXjv0apu0/TUoraa28/dbbuPueu6VD54oVKzrU+1Iw8F9LU7Pk9vlcqFFZl6xHT/XI+kwvOP+CQKjBlxw+g4eMI0SplxLgI8EnbK5IRbDtlG0k+k5/X7IY4T1GrYoPTUoPL/QJyMKqicekMXyaAS9SK194C6/f+gDWzHwHw+0M2latlcURH1KH1FabYNyBX0D6gF2AhrSkhMxWA68eGQCZJC2mgUquU24SrkBucgpoG5TEDqccBeObBwIZqvwWtH/wJnJrXkZ2zSx47csR8xkJJX+VkUxyshm5Zv6YzQsCP5iMaqaOYnHuv+pJgb9LyiVNGzsDq2ok0g2T0DDm80D1BPhWnaSkLNuQ8ZFAwsYHQQlUULEiRyT6pUDmfsUsEdTWO6yXJfgouamlCY5oE3p9TmwMz3avzAnTJCtrITY013a5hYL4yCQb6Dl+cN4PcO306UE3jUgljQKZi6/cISRSKkkhwHzvgw88IPehDfk4Hu2dzfNpKoyvaVtbLjyhe4bgiKZ6CGZqYc2D83OqoZX0QCC/1wmQFy9ZLBVQC+bPl8KED1awMxyEGNKBIcfgme+XKaLKOuM1CSjxr8OMgJBLHCfw8T2vfF4Gr9gcka17eV+8/+6CXZpG4/zzH+eXWpwuBVlcdCk419qYnuOWYgo+S2ZinKBdE4snSPBh73KdK3WbolH23gK6T0DmhLAFTM4ryY4MVbGU0J2xdC1Ks+fh9adnwG3PiwYaPn4TDN1uEjB5AlBjo4CScJbNZgNvhECWugSTgaqOGrkqmQKB3F6XxOdOOQr4xoFAtRC3AbQCxaXIfjAXrWuXo5htRaFIllFM/F2PLCxWU5HHxc4hoppjEhCjLy65YOadYSGZTiKerkZV/SjEBo8H4iMAoxYlP46i6yMuTRCYd/ZFy0vr3i6ALNVhzc1istFHZGcN1udqtJM+LxcwgU1Asy6WD5ABrrlz50rjO7aIVR+Li4CLJdqZk4uJaayp+00FS/XYqI6caHZt5Pk1dRXVyFEgk3Os+UtqZWqvs88+G8uXLUNd2GNKfT0FJ5+lAkG7nvD8aorzPZ0T7ZhZThuRt53NBgytsHMkv9sVkPnelVddKXGCdawlrqkRANJcJxh4/XKhQxh802i/lGAWgtSUWicECg8VhDyXFH+0tmLX3XYTl2FHkkzCOumeGgvwXDSrL7n4EvkOz0+BOu/9eWLKs2kEBYgUi7Ahfci353WlyUQhyG2zNHT69OkS4a50t3oLYP1cn4DMNAOlMCFFU5FVUEnuKMEqCpeOJNVfaHpyi5WwjIm7phY8B3HDEiC/eeQ5qJq3WvLMBHIHjUyThEAuFZAlkL99FECNXO0jX8wiYXOjt1xYLMGunSUpzICQLYIHJ32FJOsUak6ffZn5OouL7aC4gzdB91h+xgArDfgpeEYKpJATNMG+UOxi4oO5zcojalrzwbKrB6Ojuni4yBVg2gKV7/Fh8/zUdlKnXSiUW6Qy/aQA1simlsXRvL3zzjvRUN9QBjIb1DPIpGCL+l38PQpkjeerEOBYqNHp22pzd110Uf4vfT/tfcXxajWU5G7Ddj+q1fgehRAJElzIKhCiOfjugLyucZ1UT/3k2qBggykcdimh4NAmhaqBeU3NGYvrFPrjajHxJ4GicQapEW5txfgJE0RYHHrIocFy6UU9sj4vmtE/uuRH8j1q47pa2Q9F6rHpe7Prp1pHfI4avadbREtBWyUxRUfLjYfm6TcUxPx8n4EsDSzZECCEDQspqGlZBVXe4ImBDdeRggdXqJIMggXd+M0WA6+FQCY0CGTS7hQoohFSgUbO1SaxkwK5ipq2XXpeS9c82V5C7gRgU3umh2hHmwR0HD6bz5ObRZ9QynO8kOtLhFPCKIp5mqCosuRR/4a7PxAEUqsVUMUMBsbkVjom77W7BBc+A0JsRi/9oHO5gKlUKsnffJ8SmA+X7wkAIr2h+btqNwZPeDH6cvw82UKMjLK/1uGHHS7f01LHM//nTIli04Trsa91uFKi2oQ+PX35O26/vSxgoi2KtD+XAlIjrZqOKWubsGZYc+A8h1Z9aSdOBVh3QOYQaWLT/Pz9jTfKiNkAnz45AakugNIuy5RL0m/Dbpiq5TQSr39TmG49ebLUTJPdRtOYLoYG1rpthxt2CGFemP+oiaPzyHH+81//lLTUwgULpGMIxygbOtBayjPI6kqLIWYNSOohkE844YS+4Lf8nQ0GsmCByGEDPS/oeVyiqRln6SCrShzZZoWhFKHiSUM1am+Pu5OJaSq82xYDr37lHGTmrZZAEoNdQrgI6Y/U+ol0Co0RIBs0rava4DTPQb55GWGKmJi4IR3T9BHL1ACJWiDRAJgNcNnoJ2y7S3IK6VsMlkgbXipyYp50cHb8LG9MFpA4xCwPCuDCJL6IHHgee3111MzCXCKhw3UkSs1KFwY6qHUJXAJM9pEikyfsbUyNpeYfgS6vh6CmduaNUZhxkRLwBDGjpWzhqtup6GZpp552qgRQGJQScIXEfuadRSObhgSFqLW58Ji/5sKKbsZGk57nfvSxRyUYxLEzl51tzwZ1xWwgR/JGnFTaIADHhSlb6SQTASMrGzRdZzT8+RnPS4COQbJ2knyqMkHKJSw0ECC/9+FgV3RFz503Fzf85gbcdPNNMiaNMarprEBWLneUhsk55PXUDOfv/BxTQlf/+GocfczRHTaDY9033z/qq530tZaKpyBIyPu9evo14o5IvjscVLRFE90c9r5mi1up7W5qWi9gQ3+d64KWC0HNqi6a9H09+gTknJQGxmDL3hcuPHYRUK4udZnuesYCcgOyeZtIQ/qbrOWlv9piYOZXz0Hm/cC05nSguB7IpPHFMymscwPTeqeTj4IpQP4AC1/4NQqNbyPBqiYvKP0j8Z9BK9eswpBRk5GunwS7npzuYSgZSfgG2wYEAkhofT57HgcLnKo6WPc0wTzELDYA5MeEJyZR7yCeFXb7jEStVbso5Y/R/EWLF4mZesstt4i5pIEP9SEJYC44ajfx3+g72baYovwsfWwhgYQkA+VYc2+lKy6/ItDEYU8tffCMvHJbGt3xoUvT+qabgv7UkV0OdTdEnuv999+XVj1s8kdhpP6bWhZcuGry81pqNvKcXJSkIbI7ym677Sbn0YAdv69aW/OkXQG50l9kJJ3zydRWY1OTuHNKTKn0fyU7EYJX50DrmhoLpKMAAA4bSURBVAmoTTfdVATDrrvsIlOnLgA/q0KA42ePtGjQUDW+mu5MfTEnzHPzUAtF75H3TXCyQ6c+d41Ka3NF0jh5TY6Bm9kxyMkgWG8owJWA7xOQwz6LsBzW5rJ6CFJmxptIc5sPx6N9GORtWURum5KWYUN6SXookI8KNDKj1gQyA2eqkQlkauS1bgHtgwLT2jyRUevFWP78NXAaZyJls2yxiBIrX5JJ6Q/WnDXQVqzGkDG7YvCm+8CsnwQ/NgiukYQRhK7FQlCuF3toszqKgObYZNt2Sh+ywUQ+8Wfoa5MeWSSDiTsVBjGA6MPWyVWfefY7s/Hb3/4Wt912W3kTLwW85o411ROtflJ/T9M0ZCRx4Rx26GFyCZpmulh1R0ZGTKkBeH7tjyWfrWxQf9NN5TUQBXAlo4iam00H2J5X0yPqf/MEGjiSXSFCH5idTgheWg3MgTMXrhFuFV56/zxHdxo5ytTSOabFwPt86J//CKLFYYxBGG/hffI1BXc5qwBIeomNDjg2KiENmBGY6mtrhoHR/e6AzGdGH5lMLR76DCrBRQFE5hwDk0rZVKBLCoz90eJxmT8+CzZNYHyFW+ls6NEnIOtCjXqJ+pr4odHoD13Y0I3l4MqcqHUuXjrqXGTmrESVFYNFkBQKopVkUTE67HlohoO2+hR2Ov1Y4LipQGYp1v37lyisegkxtMHwcoiZgdvbnmtDqqoB2UISRXsk3MxkjNvlcCDNXlOyVTqCtiYVZI7IoKW4opMjhG34TvdkEI5fSQ/8QmNTo2xNyqIJ/qQ5SUmuwReV2EJFDDnFLOJnOxumq8ipZhM+3TeZVxcTPdw9kRFvCgvmcakJNCKtYNMaWGoaMrSi27x2tWAIWi5Q5nOp6d96660OOVIFAL+/1VZbSSNBNsRjJJ4Hd1ygeUkNT36xEllUizOnzP2hKOiUvtrbyC2rpJhDf/zxx6VwgYErui0qaISfHbKq2EKJ6TUWmgxuYEPlnqg8kDliPzMCUbnyGkDjnBLItI74j4Cs5J5H74PPmr4454GAjebWCWoV1jwnnzl9Zj7LDT02GMidXSAgPkaOKJDDmYu+JFzTZuD1485DcvZyVJFGyX5eLD+iL8IH4bNk2RZm15oaGzufdgwsAjm9FCtf/CXcxplIWln4Trt8Nh5jG50cYvEUio6FojUMucRm2HS7Q4AGVk01wPeT8FwTdiwcbXlQocYNomZlbV15r93Dt+OnxfSLlAXqu/ShaW6vXrUaS5ctxcoPVgr7iQ+UPic3LiPZYpNxm3TYb5gWjUhz9oAOa2GVw6yaV8n6ei1laqnZyNfVAuhpoRB4WuFEQUDtQdAsXbpUemxTwzCFxngAtV1ntEIKGDbXjx7RRc77JsjLnU7Chd2Tacl55darvK9VK1dhzntzZB5bWltEEI4eNVrGNmr0KKlC0k3R6cPStyc9sqdDO5tU1gZr9Futnq7KJKMWTtTyqeTd67PTZ9mXHLJAbMN7dkU0bhcru0Ihr9fQ6ysXgLUOXj3xQiTeXII6akqmBxI2HCPItTnZvLSoZR3zkipfCCGJE5h+WoYVz02H2zQTqVhBmvKVij6SiRR8tygw5AMrmXVoMcZgzOSDkB6xC7zEGHh+JtjahG6xRKJD+6CDJAp3c6x40sHQewflDoQMAXSQd45us9LdmaKLIJr+KQuDyGZfUa1euQg0+q3AENqjcJXXt9jtakF3tuBUSxN8uqB1oSupQaPJXOhR0Kr/GbUkou5EbwUMx1upuTXgpf56Z9uuVLoO3QFZAnJddOvQZ8v39bqqtaOBNp6/s95hlZ+JCl3Nb/cFzP8RICsXW5e+7nvcYfJW5THz1EthvrYAo+wMSu1ZlFi1FLaoLbVlUWsm0BYDlg6ysOPpxyB9zDSgegXWvvIrZFfOQNJqE451scCsU0I2X3dK3FDbQHspgSZvFMZOORiZsXtJtw/HS4U9qYMgVuAVV4K5HJePQDcslCj7Dz3J8wrtHOYoxeQOK7EkP11Rf6r5Ts2T8qErUPhd/VsDPZ19X021qFbT7/LzvQGMUiw1wBP1RzsYXrq3UtgfqzdtahQIaqrqeKRqiwI8zLH2Zob5WWWP6eejQpSA5t9akdSbc3b2GRWWyupSS6fSclC/OyoEeH11KzQF1dk1ZG2EhJG+jHODgVzpAnelp6JKrqx9FAj82ehgzoXXYe2jL2OcmYGZLQTbnFpBMzXmo9kuaIWXw9rxg7DX904Gpu4MWEuQn3sX1ix8HEZpGTJxJtgJChZIMOjB3QyA5ryFrLkpxm/3JZijdgesYSgVDdjxVJgvDjqA6v87+vXRuwydfN5oZ0DuRrVGgy19kbJySaWBhn4xX9MFr79LXj4UCgry6MKIvtebcXTlq6oGFSZTWLhfuejoV6sfGRU0ek7VSFzc6i+q39zbqp9o04bo9bXrhs5H5flUyPX2OpX3pj6t5s75fqXVE/1OTz5/pUDuLHDaW1D3CciqcTVw1YlL3LURqhjJAk0334fXbr4Hdatz0udLcoHhgmV+lMGvRSR/7D4JXzjvdGCrsYC5Cv7yZ7Bi7iMoNL+J6kQBFjeHk+6WluSDHa+AtlIGVu32GLPtl4H67QGrHo4w0ph9Zna4Y4F5mH0K5q0c/FJfugeTuuJtPtxKjRuNHnf3wPRz0UhsVItGtaU+5KjZGPVt1UTU6K4Khp7AHDUfVbtE01kKBM3TdgbcygXNc+p9RIEYHS8/E/X7e7uI9Xsco14jOk8bCmCde15fz6eCka/p/fMaag4rqPk5dS+iv/M7vLeoto5aTxrNVxZeb+9dP9cnIKu2Lbu8IcNRtXO43fH6sVQsdGFDkvswaylm//Z2ND33JqpbiqixEkGDAd6wAbS5RRQ3GYyhR++D0ccfClTZ8M02GNlFWLfgSbR+8ARi7nLEWRgh3eRjMOw4cgUHfmIMakdPRe0WB8AzxsCT0kMHFskr0sM6OLSLSDD26B0pY2x9vFq9Z/nchwIBH556leCqVTWKHP2kvqeRaz5oXQhRwKkG43tRQaGLLgr2yioa9eV0AfakkSoFTXSMHLuawVHTUhe1CrDK7+j3CGKmCpUIEx1LV5q2q0XdmUBUja8+vGYCdC678lE7u4ZqTP1u9Hnos9U5iN5vpSZWgRolrWiKMSoYNhS80c9vMJCDxR+GfcLFrOklfb0zIOt7/FmCh3jJB/Im8o/OwGt/eQjtcxahumQgLqwpE63FPFCXxuYH7olhJ30ZGFWLLP3fFCPcWeSWzcSqRQ+j1DoPttsmgS4BspWCa6SQqtsCIybsD6NhO+QL1fBtA6ZFXngJiRj51HoTQapIhVDHgFZHECuQRZcrl7wbZd1ZgKVyIVUuxuh3dCFFH7a+H/Xb9IFGtb6CVwHeGbC6WzgEK4/OorbdmZbRMfD7au6qGR21VFTgaHCK14zmwLsaX+UcRgOCKtii1+mtNaTXi56/8n6izycK2M7mqzMhK/iJbNKu8Qd9XdZhb3pJVUxOn4DcqfSKvNidIUrQsI45QYYXi5jYR2fRSix86gW888y/0bRspQB5wpStsP3UPWHtuDUwJCMbQVAAeAJEdvRolVrkppXvYuWyOWhrWQfLjiOZHoSJk3cBEsOBxCjArIPH9j7hLopBtXJnGXC9gc5HH4A9+H80+vxRpOjAdwdm4OOagY8NyL0dEKHAbhQ8KNESliAUKPpAayGoQGIUlCyPlCUA9rgDo0mSWOBDE09Br83WANBua9C72qbJnICXN2DG6gCrWnp0CXlLUk6UhkEBxcAxMAMb0wx84kBer9cCzUxwxcldZtudAvduCrnYrCfmHlEWd4wItiVlcb/rBNQ82UDOy8M0SoAtXcQCAcBf4xlpsMdGAmSL8mCxhvQPE7NmAMgb0yIeuJe+EkI+4sxpRJHVUfQRyLwRbUnGF5NIzKlRg8rWItI2T65IBpcUM0S27JDa4nLdZKh65TvBjhL8vAQ8hJDRvfn8EW9r4OsDM9BvM9A/GlkI7mwYz1SRGzQGZ7SaBZJMirOdjqjuYB8dZoMIcAmyMM8cCU+RYCEbF5BoEVC2YFKLk6zgO9KETvZ5KvOyesfO6rcnMnDhgRnowwz0D5C1p1QkXMxfHfbLln2IA1+YcI7md1m+xn2K2Vyeb7BNj7SpDW9cU9SSi5YiZfrDAX8rKFoO/etwE7E+zNfAVwZm4L9yBj5xIAcEyCDo5LPAnL4umUlsLMfuHuxH7XPnxGBvHQE0O5EYkG1hGHCWuuJyBjjQtQxoeWyjwr1944mwbUugyQPlHtAjxUTvYaPy/8onNTCogRnoZgb6D8hh12m1kj3WL4fgLDORBK+B30s/mdVRbAXke9wZPihCoIYOTO3AhOYh7ejF3g47eYhyDqJegd89cAzMwMY1A584kEU7hnO4od5q+XsdWFWBjteAWHBOPXPoGZfJG3298sb10AfuZuObgX4B8kdGcuVzKHOjO2N9R4GthK4NFSEb34MfuKONawY+eSBrRErxVYmprpRm5fe6eg4dWpSsPxkZ1lFe1gCUN66F/Fm/m08eyJ3Y1mXac2/fiyrZSiUs7ynqlVipXT/WG94DQP6sL/2N6/77BciKvWi6aH2ed/0ER+G4/n2Ne9MT1p0RO3so6yPb2ilMBcYAiDeuRTxwN/3A7IpayNEH0B2QOz6o4AyBjo1+qyM8O1PUA0UPA0t+Y52BftPIZdh1iEBXTHMn7334pQ873Z1a23LqypYIG+tjHbivz9oM9AuQy5PcVZBZP9DF+x3jYZU6/sNdMNfr6gEgf9YW+GflfvsXyB/bLHen1qMXGcgjf2xTPnCi/6oZ+P+2p9CoNmsQAgAAAABJRU5ErkJggg==;fontFamily=Comic Sans MS;container=0;" parent="72" vertex="1">
                    <mxGeometry x="26.139999999999986" y="41.79913043478254" width="219.33139130434782" height="80.57565217391303" as="geometry"/>
                </mxCell>
                <mxCell id="93" value="" style="html=1;verticalLabelPosition=bottom;align=center;labelBackgroundColor=#ffffff;verticalAlign=top;strokeWidth=2;strokeColor=#0080F0;shadow=0;dashed=0;shape=mxgraph.ios7.icons.globe;fillColor=none;" vertex="1" parent="72">
                    <mxGeometry x="193" y="125.16608695652174" width="57.13" height="54.43043478260869" as="geometry"/>
                </mxCell>
                <mxCell id="75" value="&lt;font style=&quot;font-size: 27px;&quot;&gt;Slack API&lt;/font&gt;" style="rounded=1;whiteSpace=wrap;html=1;fontSize=25;fontColor=#000000;strokeColor=#000000;strokeWidth=3;fillColor=#FFFFFF;fontFamily=Comic Sans MS;container=0;" parent="72" vertex="1">
                    <mxGeometry x="63.5" y="161.17391304347825" width="161.01" height="43.26521739130435" as="geometry"/>
                </mxCell>
                <mxCell id="76" style="edgeStyle=none;curved=1;html=1;strokeColor=#333333;strokeWidth=2;fontFamily=Garamond;fontSize=27;fontColor=#CCCCCC;startArrow=open;startFill=0;endArrow=open;endFill=0;shape=flexArrow;shadow=0;rounded=0;fillColor=#000000;fillStyle=solid;gradientColor=none;exitX=0.989;exitY=0.586;exitDx=0;exitDy=0;exitPerimeter=0;" parent="1" target="67" edge="1" source="74">
                    <mxGeometry relative="1" as="geometry">
                        <mxPoint x="402.68000000000006" y="219" as="sourcePoint"/>
                        <Array as="points"/>
                    </mxGeometry>
                </mxCell>
                <mxCell id="77" value="" style="sketch=0;pointerEvents=1;shadow=0;dashed=0;html=1;strokeColor=none;fillColor=#505050;labelPosition=center;verticalLabelPosition=bottom;verticalAlign=top;outlineConnect=0;align=center;shape=mxgraph.office.devices.tv;dashPattern=8 8;" parent="1" vertex="1">
                    <mxGeometry x="408.68" y="384" width="400" height="330" as="geometry"/>
                </mxCell>
                <mxCell id="78" value="" style="whiteSpace=wrap;html=1;dashed=1;dashPattern=8 8;fillColor=#7D7D7D;strokeColor=none;" parent="1" vertex="1">
                    <mxGeometry x="428.68" y="405" width="360" height="249" as="geometry"/>
                </mxCell>
                <mxCell id="79" value="" style="aspect=fixed;perimeter=ellipsePerimeter;html=1;align=center;shadow=0;dashed=0;fontColor=#4277BB;labelBackgroundColor=#ffffff;fontSize=12;spacingTop=3;image;image=img/lib/ibm/data/data_services.svg;dashPattern=8 8;strokeColor=default;" parent="1" vertex="1">
                    <mxGeometry x="683.68" y="556" width="100" height="100" as="geometry"/>
                </mxCell>
                <mxCell id="80" style="edgeStyle=none;curved=1;sketch=1;html=1;entryX=0.694;entryY=0.777;entryDx=0;entryDy=0;entryPerimeter=0;strokeColor=#F0F0F0;strokeWidth=2;fontFamily=Garamond;fontSize=22;fontColor=#CCCCCC;" parent="1" source="81" target="78" edge="1">
                    <mxGeometry relative="1" as="geometry">
                        <Array as="points">
                            <mxPoint x="638.68" y="614"/>
                        </Array>
                    </mxGeometry>
                </mxCell>
                <mxCell id="81" value="" style="shape=image;verticalLabelPosition=bottom;labelBackgroundColor=default;verticalAlign=top;aspect=fixed;imageAspect=0;image=data:image/png,iVBORw0KGgoAAAANSUhEUgAAAkQAAACkCAYAAAB2OzHxAAAACXBIWXMAAAsTAAALEwEAmpwYAAAgAElEQVR4nO2deZwcZZ3/P9+qnkyOyTG5yBw5gElmMuYgJBgCASIry427yqCAuqCYsKCuoKsuHiHeogvi4sWPhdVVcAmgq0JUcDMggUCIkIQMM5Mh5JjMkfs+Zrqf7++Pme6urq7j6e7qa+b7fmXSPVVPPc+3anq63/N9jiJmhiAIgiAIwmDGyHcAgiAIgiAI+UaESBAEQRCEQY8IkSAIgiAIgx4RIkEQBEEQBj0iRIIgCIIgDHpEiARBEARBGPSIEAmCIAiCMOgRIRIEQRAEYdAjQiQIgiAIwqBHhEgQBEEQhEGPCJEgCIIgCIMeESJBEARBEAY9IkSCIAiCIAx6RIgEQRAEQRj0iBAJgiAIgjDoESESBEEQBGHQE8p3AIIgCNmiu7t7RGlp6aWGYfwjEVWNHDny4nzHJAhCYSJCJAjCgKKzs3N8WVnZ1cz8D8OHD/97AEP7d23IZ1yCIBQ2IkSCIBQ9Bw4cGG2a5s1E9A9lZWUXADCIKN9hCYJQRAwaIVr8hd+NHFE+dAaDphiESjAmM/N4MI9h4nIoLieQoVgNATCcwSDGcQb3MCMC4BCYDzH4EMC7EaEuRqQDCu3oCbetvqehK9/nKAiDFSKaB+A+ZnYt47VPEASBBuKbxJXfe2YSo/QigBYAfDYrnkmEir5T5f5/DDAjugng2Btm7JrE9lu3M5LrARjqKBS3MdFGxZE1xonIquf//UM7c3rigjBIOXjw4BLDMFZ7lWHmDaNHjz4rVzEJglBcDBghuvye1bUG0YcB9T4QzUaCvMRlJlFiOEmGrBKUIENRgXKUIbd6+AVW6oEXv9P8JPNylaNLIQiDDhEiQRAypeiF6Krv/eUCIuNuJro4JkD2TE9UVJLkpf8R/cfYZcieTbLLULQNuwzF2u7bp5TaDFZ3vPjd65/N8uUQhEHJwYMHlxCRrxCNGTNGhEgQBEeKVogu/f6fRwyhkv8AGTcnZH8SMjr9z5xkCEjMAlkkyDELFG0Dti41u1QhUYas8SjFP+3cffKOdx656WR2r44gDC5EiARByJSiXJjxim+vmlBiDFmTJENwkiEk7HOUIcRUJ3acXaDiMhStJqG15KyUQzwG4dbKiUNXL/zkL8YFfU0EQRAEQUifohOi96xoDBmlw35DoLlJ8uHaJZY8PgiWx0Spgks9sGSOXKQqcfyQWzznmsNKnl2w7MHRWbg8gjAoCYfDYGbfL0EQBDeKTojKynA7gc53kg84yFA8MeQsL4lSlVwfO9TnLlWa8RDPKxk5/BckC6UIgiAIQkFQVOsQLVj2YMmk2tovUNKMsL7/mIHSEgOLaibg9IllYAaaOw7i1S270Rvv9fKcXu8kQ8ndaMnHu8XjNiYJRNece+cvbgHw/wK/UIIgCIIgpERRCdHEmpr3EHNFcndVn3TMqh6NL1wzG+PKShOOa99/DN94agPe2X3YQ2LimSI3iYnLkptMJcYTr9ZhTBIDTPj2rNt//NibP7rtaICXSRAGJdIlJhQqe/fuXQCgzKtMb2/vm6FQKEREdaZp9paXl6+xl1mxYoVx++23XwgA48ePb8xOtIOXohIig3Bx8kDmPvmYNqEMX2+Yh9ISM+m46rEj8N0bFuCf//Ml7D18wn0MEKwyY5EYJMpMkgzBVk/sfZnhJEOx+kHjyoaOvAXADwK5QIJQBOzbt2/huHHjXsl3HIKQK0zTfAjAXK8yRPSPAMYYhvEIAOzfv3/K2LFjExb3ve222xabprk6ekhWgh3EFNUYIoYxJyYUNvn4+JIaRxmKMnr4EHz0gppkGbIJT1xW4jIEt7WGov9b44kPWnKf4WYVKKU+kvqVEITiYu/evbX79+9fceDAgTbDMNbmOx5ByCXl5eVnlZeXU3l5OR06dKgcAJj5/ui28vJyGjdu3G+txzDz1fZ6TNO8IVcxD0aKSogANc1JPkaUmjh72ljfoy+YOcmmOg5dWdE9MYdhux71b7Zlf5BYj9cMt4RsEtHZC5Y9OD6VqyAIxcDevXsr9+/ff8f+/fvXmabZTERfBXBmvuMShCLgbSK6yrph/fr1JUR0HTO35CuogU6RCVHfTVeBRPkYW1YKnQlbI0pDGD7EdBgk3V9j0rgfv+n1TuOL/Ge42af785CSOeldDkEoLFauXGnu37//5n379j1rGMZOAPcCWJCL6e8y7V4oFrxej8wMpdQTzHxxd3f3iOj2qVOnXqqUGgbgD/Jazg7FJkSjneTj8PEerYPDEYUTp8IWH3LI6CTIEjxkyH96fXRGmtPxVqkyTVSme0EEoZA455xzRgJ4mIjei+J7fxGEgoCZnyCi0lAodEl0m2EYNwJ4Riklk3CyRFG9YbFicpKPg8d6sHX3Ed/j//bOPiggSWb8ptc7PcaHGnlNr7eWc5Khvv0RxUU1uF0QBEHIHkePHm0D8CaAawBgz549Zcx8DRE9mt/IBjZFJURe8vHz59s8jwwrxs+fb7VIjXM9dhnKZHp9ojS5SZWkPoWBRb66rvzaVEplpV1BSBW33wGlVGyfUupxZr5yxYoVBhG9j5n5+PHjz3gdL2RGUQmRl3y80rYbP322GcrhhdIbUfjOb99Ay64DfcfDKjNOMhRtxyYvSJQYTiiXPJYoJkOWE2BbfYIgCIJgJxwOP0VEE2+99dZ3A7gRwB+qq6tP5DuugUwRdtU4ywcz8Jt127D+nb24ct5knDFxJCKK0dp5EL97bTu6Dx3vP7r/WLsMwV4fJ7QYExyH6fWO8VhLMSNJqmxtC4IgCEKUSZMmbd67d2+LaZofI6JLmPkD+Y5poFN0QuS3ts/2PUfw4z9tjm9zyALFJMZydMJaQwnt2YQHNvFxi8c+mDr6v2M8gjBwyEc6PxwOIxTyfjuTbgahUPCbZWZ5vpKIvsTMRw4ePPin8ePHQykFwyiqzp2ioaiualxHvMb1+MlH/IXoutZQitPrneJBUj1uXXPyJi0IgjBYCIfDCsB2ItrvsPsogO39ZQDgKQA7mPkXNTU1pwDAMIyDALbnJtrBRZFliBIHJ/vLB1wkxtpl5rfWEDtKTOLMNPfjE6XKLZ5IEBdHEARBKHBqamoOA5jmtG/ChAlPAHhi/Pjx0e9ft5cdP378DyC3e8oKxSVEKcuH8/R6p7WG4PIYT+I4y1Aq0+tdp/uLDwkDiHx1Tfm1K11mgiB4UWRdZqnJB2Ll/Nca0pte7zYzzdqOm1S5xyOTgQVBEAQhvxSVEKUqH2yTGecxPA4yBCcZgmM9CZmjWJxuY5tc4hEEQRAEIa8UWZcZPw3mEUA0q8KASswYRfeoqNqo/m2WQsryX3IandG3fpt6D4FGxXf3yUzSGCBYHq3T621rDSVN94dVhqTPTBAEQRDySVEJ0Z/uuvTGXLW1+Iv/8wYTz+37TnN6vddaQzERimavotVIn5kwsCjUMUSCIAheFJUQ5RzbeB/f6fXR/1261lxnuAkZ0dnZOdwwjDOUUpWmaU5g5gkAhjLzUCLaBeAwgOMAtu3bt6+lvr5e727AWaa7u3s2M4+dNGnS8/mORRjYtLW1lY4cOXI6EU1XSlUBGA5guGEYzMyHABxh5q2RSGRLVVVVe57DTZtt27aNKS0tPdMwjGpmrgYwAn3nCiI6hL5p7d29vb1vtbW1vbNkyZJwPuMVCgsRIk9SnV7PNh+yyxAny5D8VZsS3d3dI5j5IgALDcN4N4BZpmlWA4BpmgAAIkp4tDJ+/Hi1e/fuTcz8tFLqNxUVFa/lLHgAnZ2ddaZpNjDzB4noXQDuB5ATIWpvbx9GRLVeZUKhUOS0007b5FdXU1NT2ejRo2vs20tLS0fqxLJr166zdMoxc0u+b1fQ2dk5hYjOADDFMIwJSqmRhmEMVUqdRJ9ob2XmNysrK1u4gNJUnZ2d8w3D+Ecies+oUaMWAjABJC3qZ/19MQwD3d3de4loNTM/29vb+2R1dbXTejl5p6mpqWzcuHELiWgxM58DYM7w4cMnR/c7/f5HGTJkCOrr63t37979KjM/A+B3p5122ps5CFsoYHIqRFd+97nZMM1LwHg3k5oBRdUMNSSWeIn+H5MJ97WBoo/xbqv4OKG+cUPO0+Ot9TgtvIi+mgCokWDSikd3un9i5shyHlY6P7cYBv6gfVGZD4CoDcxrEOYnUX2v74dZsdHd3T2Rma8D8H4iWkxEJUDaXSQGgLkA5hqGcVd3d/dLkUjknsrKyv8NMOQEduzYcUZpael1zNxgGMbZSa+bHEFEtaFQ6HWfYocAjPGra+zYsQuIaLXTPp3z0ogDABAOh+cBeEOnbFDXs7u7exYzXwbgvQDmG4Yx3toGEcUeoxAROjs793Z3dz/JzA9PmjTp1UCCSZGmpqYh5eXlNxuGcZthGHOiMafIeGZuANAQCoUe6Orq+g2Ae/N1TlY6OjomG4ZxPYCrxo0bdx4A07aycyrVlQA4v//rm11dXS8ope6tqqr6XSGJrZA7si5E5925ctjYqom3gPmfKRSaCWYwAdT3H/q/ATNAFvmgfvmgmPswCIlSlCgfffLCtnrBBKZ+A+l/IwNRn4z0P0a9xxoHJ8mQZRiQJY5UpvsnznBz+VCkSAgwR2tfYKLRAKaB6L0ooeXouvN5MN+Jivv+pl1HgdLd3X0xgH8BcAURZeu1ep5pmr/t6upaBeC2SZMmbQuq4o6OjvcahvGN0tLShYD3X6xCftm5c2dlKBS6yTCMmwBMT+dnRUTjASwjomVdXV1/VEp9prKysiXoWN3o7Oy8cezYsV8notODqpOIhgD4IIAPdnd3/28kEvlCLs8JAFasWGF84hOfuNo0zU+ZpnkxgKz8IhHRhaZpXtjZ2flKe3v70urq6o3ZaEcoXLI67f6q7zd+eGz1xLcJ/EMQZma6tk/68gHX45PjgU89GtP9kXh+vvEEBgPARSB+FR2f/kLAleeMrq6uK7q7u18H8BcA1yAH4k5ElxPRho6OjvcFVadhGIuJaGFQ9QnB09XVVd/V1fXzIUOGbDcM45sApgdRLxFdZhjGxq6urtuDqM+Lbdu2Terq6vq9YRi/DFKGHHifYRgbOjs771ixYkXWl2xZuXKl2dXVddOyZcveNE3ztwD+DlmSIStEtDAUCq3r7Oy8NdttCYVFVj5oFt/zu5HloVGPkEEfCHJtn+ijlnwgsT7vtYasvVesHQ/b6rO2qR1PYEQbZQAwQfQddH56Iip++NmAG8oaXV1d9QB+BGBJnjLWowzDeKqzs/P2ioqKn2Zamc5NGHN9nkG1p3Mz1VyS6s1dt23bNmno0KHfAnATAMrSz2EIgAc6Ojrqq6qqPpmNbphdu3adW1pa+jsAE3L0WiolonuXLl166datWz94xhlnHMpGI7t27bpq8eLF3wVQD+T+9wTAECL6SWdn55SKioq7ct24kB8Cf0e74turJpQPGf0cgL7+a/T93/dZrScfScKSzto+7CwfseOt8cQ0xza93i8ey74kgfKKR/9yahC7APF2Y2LEd2LXJ3ei6oGCvu/NihUrjKVLl/4bES1HX79+SjDzHiJ6G8AOAN3MfaPIiOg0AGcAOBv6r3WDiH7S1dV1fNKkSb9INRahsOl/rX166NChXwdQlos2DcO4raOj4ySAQP846erqutYwjF8Q0bAUDz2KvoHgXUQ0mpmriagqlQqI6NLhw4ev2bVr12VBzkrbuXPnmaFQ6IemaV6RwmHMzG8BaCKircx8GMAxAMOJqIKZZwBYQERjU42HiP6to6PjYGVl5T2pHisUH4EK0VXfebrcKC37PwCzgKjVa8qHdS+nKR+xaqxT5eMk3XUeifXEj/GIJ95aQvbIKfuTEI+tvmBIkJ9EMYpuJ/4edi1tRNWDWgNTc83WrVtHL1269H+I6NIUDjsG4Glm/n1vb+9LU6ZM2epVuKmpqWzs2LHvZ+Y7iWiuZhsPtbe3t1RXV7+SQlyDiXZmvt9heykR+XY1uBzrVG5PypG5U7506dLVRHRhCseEATQzcxf6XnfjANT1jxfShoju7Ojo2FxZWflwKse50dHRcY1hGL8mIlPzkLXM/GsAf3rwwQdbly9fnrD62dtvvz1xxIgRF/bPfnwf9P4weZdpmo3t7e0XVVdX70r1HKw0NjaGZsyYcWcoFPoaEZX6lWfmU0T0GwBPHj9+/Fm/TNXKlSvNxYsXnwdgKRFdj/4ZdzoYhvHt9vb2V6urqxt1jxGKk8BSxbRihXHVqPesAvPfAw7ykSQN0cd4BsVRPrTrAaIi4F5PdHtq8ViPT55e7zyjzC+eBJhvfv0nt/4XAKDrjiUgc7X31fbMCiWKYp9UrsPkny7MR97Zi7a2tgnDhw//MxFpTcEGsBrAQ5FI5DfpTMXuH5x5K4B7dd50Abxz4sSJeel2C3R0dNzdn/VyRSl1f1VV1WfSqT9Vdu3adZZhGL6zzCoqKnxnmbnRvw7MAb9yFRUVgY4FaW9vX2Kafr832mxn5l9HIpFnjhw5stZp3arOzs6zmfk2IroJ+h+ux8Lh8NzJkye/nUlwO3fuvNA0zT9qZoZeCIfDn5s8efI63fo7OzunMPNXiejjmoe8GYlELkp3ev6uXbtmGIbxSwDn+JVl5n3MfB8z/yTd9jo6OmoBPEREi3WPYeaW1tbWWbJu0cAmsIFxV4xc8plEGYKvxMQTMfZB0m7yEZwMIYV4Up1enzh+KPm8MsMqPyoqPEgUI5VYjvgc7PjEBwNoPDCIiEaMGPGMjgwx8++Z+eyKioqLKyoqHk13XZrly5erysrKHyulLkLfYo1+nD506ND70mlLKEqeUUq998EHHzyjsrLyi5MnT37BbRHPioqKv1VWVt4CYCGA7Zr1jzBN895MAmxvb68KhUJPaMhQLzPfXllZuSQVGQKAioqKHZWVlbdEIpHLmXmvxiGzTNP8JaUxNW/nzp0LiOh1+MtQmJnvOXny5JlVVVXfzGRtpMrKypY1a9YsYeb/0D2GiGqnT59+Q7ptCsVBIEL09/c8W0nMXwNSk4/o9PNM5AMJ9cXrcXqMJU5c5YVt5ZziscubVzzxTE7myRmnTJDtecL3yl7ucxkGECirV682ASzwKsPMJ5n5Q5WVlddUVlZqrVujQ3V19SuRSOQa9HWHeEJEN+/atWtRUG0LhQcz/z4SicypqKi4sqqq6i/27iQvKioq1vf09CwCoJX1IaJrOjs756cTZ2NjY8gwjMcBTPAqx8wnlFKXVVZW/jiTgdzV1dV/JKILmFmnO+zy9vb2lAcfh0KhaiIa7lNsj1LqnMrKyi8ENYi7oaEhUllZ+Wlm/pHuMUR0SxBtC4VLIEJUapZ8hYhGpC4fyFg+2Es+HDNG3jPcEuN2kyprO17xJJ5X+kSFRyEp+wOVLD/2DBIYIMzH9lvmZRhIrmmprKz8n2xUXF1d/bxS6m6dsoZhaP8lKRQPzPwGgAsqKyuvqa6uTntB06lTp3b29vZew8zHNdv9ZDrtTJ8+/V+I6DyN+q+rqqr6v3TasFNRUdGslLocfQOxPTEMY/mOHTveFUS7Vpi5o6qqKitjIDs7O+8AoLXgJBGdv3XrVv014oSiI2MhuuLbqyYwcFN68mHN+PjIB1KUj+jxsEuMtVxyHLF4oifo1g3nFg8S6wtMhpyEJ0l+nMTIIlBGRHdMQE5gZt+vbNLV1XUPMzdrxDG/vb39slTrV0rl9fyc8ItHqczvNJyvn6tOu/1fxyKRyGdaW1vPqaioeDGItqdMmdIE4G7Nc39/W1ubzhi2GNu2bZtGRF/TqP+7VVVV+ivda1BdXb0pEoks02i7xDTNB1PpOguHw3l9H5g/f35vT0/PP2u+boySkpI5WQtGyDsZC5E5ZNgNBAz1ko/4h3SK8mETjFTkI3Y8W+KJteQcT9I52KXKLR5r3exwXmnRnxGyy5A98+OVFbJnlhRdK8slx5k/f34vgBU6ZQ3D+HKWwxFyADM39vb2zq6urr4/6AGyBw8evJ+Zd2oUHTV06NBzU6m7pKTkbvTfpNQNZt7a09Nzdyr16lJdXf0o993zyxMiOm/Hjh2BLW6aC6ZOnfo3AH/UKUtEU7McjpBHMhYiJjT4yUc8GZOifNgFSlM+krI/sLVtjccWR4LQWeP3iidWjcN5pQrRSEf5iQXtkPlxFCOH56ROw/Z/Ojv1oAYua9asWcnMHRpFz9+xY0d91gMSsklzdXX1xVOnTn0nG5XX19f3ENFDmsW1x6W1t7fXENGHNYp+bdq0aSd1602V3t7ezwKI+JUzTfMbuVjJOkiUUv+tUy6LtxASCoCMXrSXfPe50VC8yFc+wNryEZMNu0DZs04u8hHvMrNkcrziscWRWI9XPNbinFBPqjLEfTfU7EOpkclS05/hccz8OMmPpaxdklT4Su3Asky+u8yAvsGVSqmf68RimmbKXY6FcI5Rent7cxJPoXaZKaVOcZYvuFLqUZ3zJ6IZunUS0WeZ2fQ5t11btmz5VTbPbdq0ac1KqV9rnN+7Pv7xj2t3MRfC78ipU6ee04kjiC5loXDJSIhKQsZ5IDJ85cNiD37yEfeP1OUjsR33eOJu5ny8Xjz2zFHyeekSZrIuLHiG9nT6mPw4iZFbt5r+2huDiN9olrs2q1EIRU91dXUbgGaNopN16tu4ceMIADf6lWPmX+RojZwfapYrqhlZZ5555m5mDmzFbaE4yUiIDKZFVvlA2vJhPZTTkw8HGXKLhxOkKnpYavEkZ45sx2vCwLHNLV2bYxsIs5xFxiJAflkhz8ySWoSV12mv0joYePjhh9cD0FkRecquXbt0V7oWBinM/DeNYiN06ho3btz7AYz0KxeJRB7XqS9TqqurXwXge7d7Irq6ubl5XA5CCgwi0hn/JQxgMhIiZj43LhVu8qIjH9aMTxrykZQx8osHtnLu9cGhvsR64tKXZmr3T7x6ed9fdkQE5iXeGR6XfdbtXpklQhkWGLPSCTRo8p0mj7J8+XKllHpJJ2UeiUS0uwKKcZZZsXaZ6cxWyhVKqY0a18Bv7R0AADNfrdGN03X66advyPZ5RVFKPalxfqGysjKt35VC+bkx84FCiUXID2kLERERExZGP3xTlQ9YHjOSjyQZssYDx3qsQcVe4i7xMBLPL1YPEutL+5eF+ZHY8/ZPLQT4tLjUuI0dcpIhB/lJ2GfNLMF3LZPBBjNr3bOMiM7PdixCcUNEu4Oop7GxMcT9q//7tPci5/DTmoj+rFOOmVO5QWveYebefMcg5Je0heiyb6+aSoxRANKSj2SJSU8+rEfG6mHr3uR4ko6xx2NrMxaP9Sw4cxliYPOGn3bHp7Ia6mZn+XHs+opLjqf8WPfF6pBuHxtEtNm/FEBEC7Mdi1DcENHBIOqZOnVqPRH5LgSolFofRHu6nDx5ci30Vnm/IAfhCEJgZJAhGjIbsGRqUpUPpCkflhisg58Tpar/WWy3ZVt/fZ7x2IUuuidWjSUjluJ1s8LMn2buv03A9mUVUPzR1KfT21avTpYf2z4FMM/OIOzAyEfXihu9vb06CzSCmSdu3769Qrdeje6ObJ5WyvEUa5dZPtu1Ew6HOYhYDMNYoFMPEb2Vg9OKUVNTc4qZN2vENrmtrc3zNiORSKRgfm6FEoeQPzIQIp6VsnzAojr2LJCXfNjq63uwCRgS64kLCyfW4xIPXOLh+OGIioVTPCnDfP+Gn9waX16/pORrIAztE5c0ptO7rlLtON6oIMYQFRKGYezQLcvM2lOmBSFdiEgrk9vb27vVv1SwMLPOTDoMGTJEVnYWioa0hUgBZ+jIByyPCRmdVOTDLjGxgvHjnWQo7mb+8bCtvoTz8oknVRh4+o19//fZ2Iadt14I8C2u8pMgRimOKWLLMdF9xKPQ9oHqtIIfoPQvaLdPp6xhGCJEQi6YqlMoFArlY7r4OzqFmFnrHAShEEh/lhnzZB354LTlA4nSkSRDnJhZcjyefeJBQjvpxJMGK8N7u97Pjz/et+Jr67LxMOhR97WE3KbTO8mPW2bJdkzfPq11UAYTzKwz9R4AqrIaiCD0ofM7GpkyZcqBrEeSjM7q7iAieZ8RioZMliGf7C4ffQVSlY/kzFGyBCF2PJKOTz0ee+YoxXhSgXFcMe7a+LNbf8jRCtYvG45Jxu8AVMXlJRqIXWos2xP2AcnyE7NTh33925WaAuDl1E8kOPyuY6777Jn5kH8pgJkn6pRTSsEwCusOBrm45vkaa1FIr6cgYmFm33V8mNn3LvTZgJm1sqkAyjXqymh/kPi1JStVD2zSfrdmxmmJsmD5zAanJR+J3V/ux8frcepm844nWar624G1Pqd4ooel9svJwDFm/pkK99Ru+Omy+2MytHXZaJxm/gHAopiseHV9aU2nt233XsFausxsENFhzXLjsx2LIBCR74KMsN72J4cw83HNomOyGoggBEgGGSIuTZSF+GNMGVKVD1jrc5Ah2OqJN5RYDwMMpZhxgICj1nj6jldQ0eOsxyRksmwCBQaz1l8Hhxi0DwpNDDRG9kf++ObjtyX+Fbdz2ZkYYjwFUnPibThkcazbfffBVs7hGOs+g8fqnMwgQ/dNfmhWoxAEAMxsEpFvsVzEki7MLKviC0VD2kJEQFlCtxcsj/1ZjISMjk14YjJkPZot9VkyMbHjGTapipYFmFmB+TkGPR1W4b/u3a/eeueRm7J25+e0WEEGPrZsKcj4LohHaXdvJcgPPDJJsJSz7rMdAwY4onXrgGxSSKlyoC8drvEBBGYepVtnoZ2jdJnlhoC6zAIpky0044tkWk+uzlH3918YuKQtRJ7T6+0ZHVsmxvrhHv/ct8tVdLMt+4PEepTiY2D1Y3UKP1z7wxsL8+Z8K68zsWjcNbhl2VcBOks7i5NWVggO5Zzq0ErHC4KQJ4jId+VkIir0DIyvEAlCoZDJoOrkLFAse9P/P8cf01nbx296vVL8G3VSfbogRWjHbeUgOgcG/h6Lxn0IFJ2ZpFxEJoUMT9pZIWu7qk5AjOkAAB1ASURBVNDfSAVhUMPMx/zGq6WSrQyYYZrljmQ1CkEIkPQzRIqPglBmsxtbRif61C5D/mv7eE2vZ3APWH3qpXtueDApsK47poHpMpDxbgBTAR4DQsAf/tw3xhmM+CDl2PkMA6EcIZoQExSKn2tcUABnybFt98oSpX0MAFZ5/8utUFLllva03uSZWasrVmeWWS5nrfT29qKkpMSzTKbX/ODBgxgzJvfjaMPhMEIh77ezXL2eIpEITNP7LUczlr0a6/iMWrFihbF8+fKcTn9SSo3RmUHpNxstwGuVMTrtRCJ5f9sUskj6QkQ4RcxlQPyFFNjaPkmDsePHMdThCPM/rP3uDasTAur83KUgfBFkLkFCN3CQfcIWoSBL1iUmPHCRH3t2xi/D41BHoN1qDCj5y80B3/tGAQAR6Q6+FoS0YeYunTEtH/3oRycA6M5+RHGIyHc6fT+dWQ1EEAIk/UHVirtAGBf42j6OGaPYwOkTiPDVa79/wwuxQLr/eSIw/EEY9L50z0UPD5HRzfwEmeHxq8MvJkOdCuzSDBy03uRTWMBRENKGmds1B/lPRu6FSGvpCaVU4Q1nEAQXMhhUjXYwv6vvG2cZSnltH9exRH27I4qXJshQx2fnwRzxBwCV6Z6HP37ZGaftcCjnlcVJI8OTshjZ69dbaTabFNrNEpl5kma5rhTqTD+gLDCYZ5nlkoBieUuznqkAXguiQV2UUlM1Z2Rt9iswAH9uQpGSwTK6/eZvz+hYlSb2uW2RIMu+PlmKvwBjxzMsMhR9VI+s/d71v4wV7rzjbJhoRE5kiJF0P7DYPqfbaPguihjf7jpY2lK/VjlL264xWb5Xanv2rlvxsXXr1tFEpDtAVa6dkHWYeZNm0dlZDcSZaX4FmPnQmWeeuTMHsQhCIKS/UjXQlpTRsWeBLNmJhIUOOWFL/2ZOPD6hBO/h3uOfixXedvskGMYzgPYHWBqkKiFO5dzuQ+YkRm4iY5Mur3bZXp+TkMXa1r67+2CAmWt0yyqlmrIZiyAAwPHjx18HYm+CXuT0jvIrVqwwiKhWo2hOs1aCkCnpjyFibmIQohJjl6HYhzFg6d1Jb3p9RPH3X7734/tjjQ8d9jCA09KN3RurQNi/t51bRgOnLYLoWJ/TPod40mqXFXr3tgR2ydKkwNLTs1OIR0uIdGaZFdrCjMXSRiG160QQscyePfvA1q1bNwKY61P0vIwbS4EPf/jDZzCz78KuzLxap75C+bnJwoxC2hmiU6fUprgEIUliLMOCEP0wjkqQswzFZ6Ql1KP4yJFjB34ca7jjs9eAcHm6cXvjkIFJyLpEszUpdn2lfB8yt30OXXGu3Xae7W7GnA3HsnMNixMiOkenHDNvrqmp0brnmWa7ZUHVJQxI/qJR5rTW1ta6rEfSDzOfq1NOKfVctmMRhCBJW4he+MY121jx0bjk2GUo1en1CWYVO56JH3/zR5Z7gRn01XRjdscmP0kS4iQ/TmJkERbd7i2n+p2EzDcmj7FD9naZJZVtg5kv0ilHRM8H3O7wIOsTBhbhcPi3OuVM07wy27FEMQxjiV8ZZm5/9NFH12U/GkEIjgzuds/MwCtuMmSVG73p9YnHxx7D6nexRnfdcRYI89ON2eVMkkXDMSvklMXxEBnH7IxHhscvy+SV/dHOLEX3Rf4a7DUsbrZu3TqFiN6lU1Yp9ceAm58acH3CAOKxxx5bw8y+A5OJqCEX8axYscIAcIVG0cdyvVikIGRKBrPMADCv7Xvs+y8xI5T42FfcTYbYcjwS6jmpwvFp9qZxdUbxJgbvkoFJRTRsdWSUFbJknHTq0I0peR8Dp1YFdx3Th5k9v3K1ijMzN/jF0h/PYQB/TqHqUxr1zlm5cmXObqOic57F0EY67eZyVfCgYlm+fLli5l9qXNOFW7ZsmZnl08L1119/PjNXaMTzc906C+XnpvkekJNYhPyQkRApYC3DKjMWCYJVhixvgpywN2o/MRmKf3ADinnn6/fddNDS5PmZxBvHQU6SJERj6rqX4LgKiUWAHMtpZpZ823LNdv0N9a9qr6Mz0CEiYuZbNMs+VVNTo72gJRH5rgZORGVz5szRGpMxkMilBBY7kUjkAWbWudHrp7Idi2maH9Mo9kxNTY3v+kOCUGhkJESncPIlKFYxGUJchvo+gBO2wFqq7/PbdkxUrGJSxYmLBxLOzCTeWAS+suKSnbHKiZfIaGWW3OTH4Ri2bE+qzy2z5BJThP8382s4cGhtbb2CiLQGpIbD4R+lWH2bTiHTNG9Ksd6CJRKJ9OiUmzdv3thsxzJQqK2t7SCiX/mVI6KbW1pasrYuW1NT0yRmvsGvHDPfk60YBCGbZCRELy1v2M+El2OaE/MatyxQPPvjnEWKbolVZLuJJk1IP9p0Mzw+x2hnljy6t1Jq10mgXMSIHWIifjT9axgs+epaidLY2Bgiou/oxMHML9XW1qY0GL2np2eDZt3/1NzcPC1Lp5lAtq/5/Pnzjyulwn5tRCKRQIUoHA7n/fUUJRKJBB5LT0/P3cx80qfOoYZhfCtLp4WSkpK7AQzx6VL6fU1NjfbEg2xcq0wolDiE/JDZGCIASqmngajzcFyGLI99D/0vpqgMWR6tMhR3oSBffB4ZnphApDpwOoUMj68Yec1kS6Vdr/NQAPgVzFrzdoAXNqsQUdrrZOlQXV19F4BZmsXvSrX+mTNndgLwXW2YiEpM03ywf8Bq1lBK+a4dExC+K3kbhqG9EKYAzJw5czuA+/zKEdFHW1pa3hN0+21tbecSkWfXMjP3RCKRz3mVEYRCJuM34EgvP2mVGW8Z4gQJcpIhtkqVylSKohLiJDUpTl1PEigX+fGq36k+pwxPssg416Etbv3XUalHMrygueZdW7ZseTYbg0VbW1uvALBcpywz/yGVv3ptx/63TjkiuuTGG2/8Xjpt+LFixQqjra3tNsMwnslG/Q687leAmf8uF4EMJPbs2fN1ZvZbUJUMw/jlxo0bJwbV7qZNm8qZ+VcAPMd9EdFX6+rqWoNqVxByTcZC9Ndv/WMrM//VKjMAHB+j3mOVIFcZytSFfLu3fLMpDnWkICHs1a5XHal0uelmlgCAD2PfYd9xCLlEM1X+XgCbWltbfxbU+Ijm5uariegJZjb82ldKHent7b093bYikcjDzHxYs+vsztbW1odWrVpVGsR5AkBra+vl119//RvM/CMAo3LUPfGcXxtE9OGXX355WBCNRSmmrpd0Ylm0aNEJZv4IM0d86q0cNmzYqvXr14/O9DyamprKSktLVwE4w+f35IVf/epXaQl9ofzclFIFEYeQP4JJ0avI96wylJgRSnyMS1C0uFWGYr4EgKHSegF6ZUmcJCTVqetOYhTNLPkMtvZql+316cbkl1mKXZb/wpI34wtcFhcmES0lom2tra0PNTU1aa0ZZGfVqlWlra2t3zRN87cAtD6MmfmO+vr6tO/7VldXtw/A13XLE9HHzzzzzHWtra0XpNvm+vXrS1paWhpaW1vXEtEzRJTTm39GIpEnmNlvcPWE8ePH352LeAYSM2bMWMfMn9coevbIkSOfb2lpOT3dtpqbm6eFQqE1RLTQqxwzd0UikQ/JukNCsROIED3/zWv/wMzrAAcZgr37LHpU9MM7LkNWI0rPxe2C4icyHpkWz8ySl2hpDLb2bddJoFxisrablBWKcRIqkpXumFxCRCVE9PGSkpI3W1tb17a0tPyLzht+U1PTpJaWls/U1NRsIaK7oP+6f7i2tvY/M4saeOONN+5j5jW65YloNhG9sGXLltXNzc036Pyl39TUNKS5ufmiLVu23Ddq1KidhmE87vdBli3q6ur2EdHDGkU/39LS8pmsBzTAmDFjxr3M7Pu6JKK5hmGsb21tvb2xsVF7PF5TU1NZS0vL503T3ExEnjeOZeZjSqmr+sfLCUJRE8igVWbmC7+88pMMeplABhD9SO4XnKgMxbtv+sTJJkNOApVCFA4C4bDdcx8c6nDY7lVH2scghTp8Yk2+NA9gztp2jYuYUzJMQS/s/8D/QWtrazv33Y6kDcAeAD1ENJqZpwKYHwqFZgEwUmmPmV/cunXrbdOnT88kRgBAQ0NDpKWl5TpmXkNE01I4dIlhGEtGjhwZaW1t3Qhgk1Kqg4gOMnOYiMoBVACoC4VC8wAMK5S0PjN/hZmvJaLxXuWI6L6WlparlFL3Hj9+/Nn58+f7rrfj0Wa6hwZOtmPZsGHDsjlz5gwjIr9p8OUAHqioqPh8S0vLz5VSz3R3d7+xZMmShBm8TU1Nk4hovmEYV4ZCoesBjNE4hxPMfE1dXd36DE6lYH5uOnHIwowDm8Bm8bzwjYZXL/jyk/cQ8EWOZS9smhMVn9huiyABSOxac/14t+ElFPE2ncVI45i0RMZPyFJp109+/GSIu3GEv611KYuXaiKqtm/M4M7Vrx49evSqyy+/XHsRRj9qa2s7mpqaLjFN8zkimpri4SaAeQDmGUZfcqvQ78o9Y8aMvW+99db1pmn+CT4ZOSL6O9M0/66srOxAa2vry8y8HsB2pVQnM79QX19frF29WaOhoSGycuXKj86dO/cYgE/4lSeiKQC+YprmVyoqKsKtra37mfkQgFIA40KhUKozEPeEw+Gr6+vrX0kjfEEoSAKd5vtiq/py7F5PUeGxPMZkCByXIZsEJY5D8rNxqwzodiVxYjlHkUlltWi3hRpdnnvF5DneyG+wteP1YTB9DIte2u9zIQsSZm5h5q8DOOlbOLg2Hz958uTF8+fPPxR03fX19W1KqUXR7uVcw8z7mdmza4OZTwTV3syZM59j5o+yxirLANCf8bqCiL5CRA+Zpvk0AJme70JDQ0NkxowZS5VSn9IYsxWjfzmLiUQ0nYimEFFKMsTML/f09MwXGRIGGoEKET/eEDmx78AHmPlZv+n1fQc4T8+Pj0NybclFQtKYup4kUFYJcdrnM9haS2R8YtIWN9cLFL2+n8fsF3M11TpwiOhkbW3tV5VSMwH8HEAki82dYObP1NXVfWjOnDnHstXIzJkzOyORyGJm/gF8f4DBwMwvMfPHOjs7qwC86lM8sKwYANTW1v6KmS/xEzEhferq6h5g5gUAsn3T5kNKqc9t3LjxglmzZvnecFYQio3AF4J77WdLjx9ow1Ws+AdWCbLKkNP0+mQZchtY7SAnXpkWx2yKj+DoZHi0yulkeNzkyqVdHRliRMD8acx66ft+P698ojvdtq6ubtuMGTNuCofDdUqp/1BKHdE5VvOLlVJPRiKRmbW1tfdzDgY01NfX99TW1t4RDocXKaVeCPBcrOf0slLqrpMnT55RW1t7fm1t7SPRcSO5nlpcV1f3/NGjR2cqpe5j/9WW044l6PrSJR+rL9fV1W2aMWPGhUqpDzDzxiBfT0qpo8z8gyNHjtTU1dX9e0NDQ2B/mMhK1UIhkZWVgN98vKEHwB3n/+tjj8PAtwG6KFGGYJEhywvN8siAw8KMThLisN1rn3V70j6X7bHYHLIzKbUbVEyevAIV+RfMeXnApbPr6+vbAHy6paXlSwCuZeYPAriYiErSqG6vUuoJwzB+UFdX57fYXVbo73K4qLm5eQn6xoFcQ0RlaVR1ipnfBLCWiBpPnTr1wpw5c3anGZbvDWnTob8L8s7169d/a/jw4R8hogYiejd8FvvTRSl10DAMz8UziUjr3nKZwsx7mTkvsdTV1T0F4Knm5ubz0PeauoyIJqVaD/d1wa0B8Gsieqy2tjYrr4t8Xis7Sqk3iWiMTxm5MfYAhnJhvef/63/PAsxrmXgxM2rBfBpAJf16FMuARJ/HHpmfX3f/zUtiFXXdcRDAaH2R8dhn3e4lOb5ihIDa1RWyJPYCvBWMlxGJPIG5a1/U+Znkm8bGxlBFRYXf2JINtbW1Z3kV2Lhx44hQKHShaZqLAMwBMIOZJxLROCD2xr6fiHYDaGbmDUqpFzZv3vxykH/pBsGqVatKp02btrBfFKajbwbZqP7dPUR0XCm1D8A+AB2GYWyNRCJtu3fvbl2yZElYp43m5ub/JaJr3PYz82t1dXXnZHouOjQ1NZUR0dlEVNc/KH4cM0fHsxwFcEIp9e/19fXyIZQmRESbNm2aHQqFzgVQB2AGgPEARgAYib4u0mNEtF8ptZ2I3lJKvXnixIkX5s+ffzyPoQtCzsmJEAVG12cOgrl/TRZdCXEoq5PhCav3oOaxxhyc1aCksbExNGnSJF8hqqur8xQiITXeeuutRiK6yKNIY11dXeD3whIEQSh0snrzzMDh6KyzdLJCcJcfpzoEYXCyL98BCIIg5IPiEqKkLie4Z37SyQollCuo3hRBCAQiGu5TZG9OAhEEQSgwikuIFAME6MmPw/ZUxv0QfRFvX3uTpfF4e8qeqVLJZWLlohJmXVPJWk4BrB5C/V+LYuxPkPh11xZVd26RoJQa57WoIzNLhkgQhEFJcQkRFAByl5+0Bim7HEN8aWI5WPYhflz0s8X64Z1QDpZyDKsvxY9RjQAGnRAJuYeIKnyKyPoygiAMSgJfhyi7MFJbLTrVRRFtxyTsc7s7vdP6RpYFInVikt45IQesWbNmJIBhPsW25yIWQRCEQqO4MkRJmRafrJDX2KG0u9xSbVcnUzU4kS6z3FJWVlbhd03D4fDWHIUjCIJQUBSXECXIRfR7DfnxkhxPMYJDOR+5cmzXT8gEIfuUlJTUee1n5t79+/e/nat4BEEQConiEiIGQDpZnHQyPJZjtMTIof6U2xWE3MHMc70GVANo0l3gURAEYaBRXELkJzKpDpwOLMOTTkyCkHMW++z3u/GrIAjCgKW4hMi6MGMQ2ZlAutUscjNyMVC2CAiNA8J7gSMvAYdfcKhDACBjiHLImjVrRo4ZM2aJ1zVl5hdyGJIgCEJBUVxClGqGJ+2sEFKrwxgOVH8dGD43MdzRlwHHXgd2/hsQORr85RAETcaMGfMRAEM8ivCJEyeey1U8giAIhUYRTrtnOE6ND3Q6vcY0fuu+yi8ly1CUEfOA6uXZuySC4MMrr7wyCsCXfIqtOeecc+QmqoIgDFqKK0PE7D+o2nNwdKrdahqZpeFzgbKF3nGXLQKGnwUcfyPTKzCgkC6x3DBixIgHmLnSp9jPchKMIAhCgVJsGaKexOyM06KIXhkel+deizh6ZpYUULZAL/SRHtJEkJk9QlbYuHHjXQA+4lNs+1tvvfV4LuIRBEEoVIosQxTpANGE1DI8bhkjuEgSvOuwt2uO0Yvdq5ziTr1KBEGPlStXmnV1dfcYhnGnX9lIJHJnQ0NDTy7iEgRBKFSKS4iAvwE8N/vT6eFff3R7b7de5L17PHbSJr1KBhbSZZYdNm7cWFtbW/ufAM7XmMn3i7lz5z6Vm8gEQRAKl+LqMlORp2NdVRkPnI4+T/XeaLbth/+qF/sRl3KM9ZizZnda10MQLKxbt27ypk2bfghgExGd71eemV8FcFv2IxMEQSh8iitDdDL8ewwPdYK5Ip7tgX73lmu3GmzlNI6JtnuyFTj4NDDmSve4DzwNnNzivI/44TSuhCAAABobG4eWl5e/l4j+qbS09H0ASnxWowYAMPPfiOiy2bNnH8t+lIIgCIVPcQlR/eM9ePuDy2HQg+mP+4H72KG0VqkG0PF9AASMuSI55oNPA53fdzkh3o7D/EiKV2HAIAszps6rr746rrS0dAGAdwNYPHbs2AsBDI3u17lmzPwHIvqQyJAgCEKc4hIiAKh5/CG8fd11AL837XE/qWSWvAZlR+FeYNe3gP1PAiMvAEJjgfD+vm6yEy0eJ8PLsOilExlcDWEAQkT02muvTTYMY7phGNMBzAAwC8CsoUOHVmRQdQ8z33XWWWfdy2KbgiAICRSfEDEzmt//IZQYL4MwPfMMj5MA+QiTGydafATIeh74Ema99Ce9wsJgYu3atSNDodBWIjIDrPa5np6eTy5YsKBFXEgQBCGZ4hpUHaXuqX1gvhhKNcWFJdWB0/3b2eEYV0kK6oNEfQ2zXvxWQJUJA4yFCxceJqJAbrTKzK8AuHzOnDmXLFiwQNPWBUEQBh/FKUQAUPNkO3ByEZR60n+hRi/hcZhN5rhQYyAcRUTdgHe9tDyoCouVPXv2MDOfZGZ4fQ1WIpHIX/yujcdXDzM/FYlELpo7d+65c+bM+WO+z0cQBKHQKV4hAoCaZw5j+m+vBfgjYLUnnu1xEiPLlHmv6foJYhStIwCYf4tI7xzMeemxYCosbhoaGiJHjx6dyMw3MfOf0fdDEPohor+kUp6ZwwD+xMw3h8PhiXPnzv3AvHnz5O71giAImtCA+Su8ZfFI0Og7Ab4dwISkAdVpDbYOAOYXoOjLmPOi5oJFg5N169ZNKikp+RCAG4joHABg5g1nnXXWWXkOLS+sXLlyyPTp0w8S0TCn/cx8GMAbAP7KzI2HDh1au2TJkqO5jVIQBGHgMHCEKErje4aisvTDUHwLCH03EEt3On26MA4AeBwI/xiz1m7MvMLBxWuvvXaGYRjvI6LaefPm3ZrvePLF66+//gUimsTMBwAcJKK9Sqmtvb297yxcuFBziXRBEARBh4EnRFaaLpkCg68F4zIQLwZjWKIYAQHK0GYAqxFRT6O35y+Y/1pvxvELgiAIgpATBrYQWVk1vRSTqxfBwLlgng9S8wGcDiB1GWLsAfFGABsArEME/ye33xAEQRCE4mXwCJETjacPxejTzkAoNA3gKgAjQRgF4lEA9YBxEkwKxHugaBdM7kQE20V+BEEQBGFgMbiFSBAEQRAEAcU+7V4QBEEQBCEARIgEQRAEQRj0iBAJgiAIgjDoESESBEEQBGHQI0IkCIIgCMKgJ5TvAIKEiMhtVxaac5yexzJtTxAEQRCKjoKfdm+THLI9Om1z2md/Do3tgPtqjezz3P7ouE3kSRAEQRAKg4IQIov0OD3an/uVcXp022bfZ8XpwuiIjvXRbZtfGZElQRAEQcghORcim/y4CU8m++Cwz74NDs/d8JMfL+lx25bOPpEkQRAEQcgSWReifgHyExu/LyONY+ztweHR/tyOjgz5iY3bl0rjmIT2RJAEQRAEIRiyIkSaEuQkOYbDPrfn6cgSPB6d8OsOS0d6lM9zv2NEjgRBEAQhYAIVIosIpZLtsUqQXX7sguT2qCNOut1oUfy6x9IVHadHe3k3OfLNKokYCYIgCELqBDLt3iMj5CU/bo/25177dGVJJ2PkhG5GKBXpcXpu/T4au7I8Wvc5SVKM/p+FiJEgCIIgpEDQ6xC5yZBO5sdNhty2+clRJmKUjgjpSFBUaqh/uzUGZXtujwOIS5JVhAwkSpGIkCAIgiCkSMZC5JEdgmUbbPvtZf2263S/ecmVV8bKHheQ2D3m1W0FJAqINatDtuc652qXJDhsZ9t2IDl2IiKZlSYIgiAImmQsRMzMlqn01g9g6zbr8+j3TmNy7OX8ttszJobDPi85sdbteHouX27jhfz2sUfdXm3CpZzTMX0bRIYEQRAEQZugusyskgPbcyAuJ9GyVlmxdvlEP9QN2/d2kYoeZ5eh6KM1++PVZQb4C5FTHPbxO35jh3S2u5Xzky4nYRIZEgRBEIQUyPUsM79ZYTpjgVKdaQbbc10ZiuImHMr23CtDpDvY2k2C/LJOsS/JDAmCIAhC6uRiHSInMdEdC5SKTOl8weG5H25CpPOlKzV+EuSUlUp4LiIkCIIgCOlTqCtV64iTrvg4CVC6QmR/dOu20pUkne1OX4BIkCAIgiAERk7vZeZyE1c/kXETHvsMMTfxyUSGovhJkdM26z77GClf2XHZJoOlBUEQBCEL5P1u9w6SFH3uJklw2O703KlO+zan763YL47ToGU/SfISJqfvY2VFfgRBEAQhN+RdiLywyBLgLExO250e4VDGa7vbRXHa7pY9sm9z2i7SIwiCIAgFQEELkS42cYpt9jsshSb8LlLSfhEdQRAEQSgeBoQQCYIgCIIgZILhX0QQBEEQBGFgI0IkCIIgCMKgR4RIEARBEIRBjwiRIAiCIAiDnv8P5ERgF4m+TK4AAAAASUVORK5CYII=;" parent="1" vertex="1">
                    <mxGeometry x="446.00000000000006" y="493.5" width="325.37" height="92" as="geometry"/>
                </mxCell>
                <mxCell id="83" value="&lt;font style=&quot;font-size: 18px;&quot;&gt;&lt;b style=&quot;font-size: 18px;&quot;&gt;Kivy&lt;/b&gt;&lt;/font&gt;" style="text;html=1;align=center;verticalAlign=middle;resizable=0;points=[];autosize=1;strokeColor=none;fillColor=none;fontSize=18;fontColor=#CCCCCC;fontFamily=Garamond;" parent="1" vertex="1">
                    <mxGeometry x="723.68" y="472" width="60" height="40" as="geometry"/>
                </mxCell>
                <mxCell id="84" value="" style="shape=image;verticalLabelPosition=bottom;labelBackgroundColor=#ffffff;verticalAlign=top;aspect=fixed;imageAspect=0;image=data:image/svg+xml,PHN2ZyB4bWxucz0iaHR0cDovL3d3dy53My5vcmcvMjAwMC9zdmciIHZpZXdCb3g9IjAgMCA5OS42MiA5OS42MiI+PGRlZnM+PHN0eWxlPi5jbHMtMXtmaWxsOiMzY2I0ZTU7fS5jbHMtMntmaWxsOiNmZmY7fTwvc3R5bGU+PC9kZWZzPjxnIGlkPSJMYXllcl8yIiBkYXRhLW5hbWU9IkxheWVyIDIiPjxnIGlkPSJMYXllcl8xLTIiIGRhdGEtbmFtZT0iTGF5ZXIgMSI+PHJlY3QgY2xhc3M9ImNscy0xIiB3aWR0aD0iOTkuNjIiIGhlaWdodD0iOTkuNjIiIHJ4PSIxNC42OSIvPjxwYXRoIGNsYXNzPSJjbHMtMiIgZD0iTTY4LjU2LDc1LjM3YzAsMi42NS0xLjksNC41Ni01LDQuNTZINjEuODJ2NUg1OS4wNlY3MC44MUg2My42QzY2LjY2LDcwLjgxLDY4LjU2LDcyLjY5LDY4LjU2LDc1LjM3Wm0tNi43NC0ydjMuOTNINjMuNmEyLDIsMCwxLDAsMC0zLjkzWiIvPjxwYXRoIGNsYXNzPSJjbHMtMiIgZD0iTTc3LjM3LDc5LjY5djUuMjRoLTIuOFY3OS42OWwtNS4zNS04Ljg4aDMuMjNsMyw0LjkzLjQ5Ljk0LjUtLjk0LDMtNC45M2gzLjIzWiIvPjxwb2x5Z29uIGNsYXNzPSJjbHMtMiIgcG9pbnRzPSIzMC42OSAzNy4zIDExLjU3IDM3LjMgMzAuNjkgOS43NSAzMC42OSAzNy4zIi8+PHBvbHlnb24gY2xhc3M9ImNscy0yIiBwb2ludHM9IjMwLjY5IDM3LjMgMzAuNjkgNjQuODQgNDkuODEgMzcuMyAzMC42OSAzNy4zIi8+PC9nPjwvZz48L3N2Zz4=;fontFamily=Comic Sans MS;" parent="1" vertex="1">
                    <mxGeometry x="438.68" y="413.5" width="67" height="67" as="geometry"/>
                </mxCell>
                <mxCell id="85" value="&lt;font style=&quot;font-size: 22px;&quot;&gt;&lt;b style=&quot;font-size: 22px;&quot;&gt;Bolt&lt;/b&gt;&lt;/font&gt;" style="text;html=1;align=center;verticalAlign=middle;resizable=0;points=[];autosize=1;strokeColor=none;fillColor=none;fontSize=22;fontColor=#CCCCCC;fontFamily=Garamond;" parent="1" vertex="1">
                    <mxGeometry x="464.68" y="415.5" width="70" height="40" as="geometry"/>
                </mxCell>
                <mxCell id="86" value="&lt;font style=&quot;font-size: 23px&quot;&gt;Application&lt;/font&gt;" style="text;html=1;align=center;verticalAlign=middle;resizable=0;points=[];autosize=1;strokeColor=none;fillColor=none;fontSize=37;fontFamily=Comic Sans MS;fontColor=#000000;" parent="1" vertex="1">
                    <mxGeometry x="412.68" y="610" width="130" height="60" as="geometry"/>
                </mxCell>
                <mxCell id="87" style="edgeStyle=none;curved=1;sketch=1;html=1;entryX=0.629;entryY=0.963;entryDx=0;entryDy=0;entryPerimeter=0;strokeColor=#F0F0F0;strokeWidth=2;fontFamily=Garamond;fontSize=22;fontColor=#CCCCCC;" parent="1" source="81" target="85" edge="1">
                    <mxGeometry relative="1" as="geometry">
                        <Array as="points">
                            <mxPoint x="558.68" y="454"/>
                        </Array>
                    </mxGeometry>
                </mxCell>
                <mxCell id="88" value="" style="edgeStyle=none;orthogonalLoop=1;jettySize=auto;html=1;sketch=1;strokeColor=#F0F0F0;fontFamily=Garamond;fontSize=22;fontColor=#CCCCCC;curved=1;strokeWidth=2;entryX=0.754;entryY=0.181;entryDx=0;entryDy=0;entryPerimeter=0;" parent="1" source="81" target="78" edge="1">
                    <mxGeometry width="100" relative="1" as="geometry">
                        <mxPoint x="588.68" y="314" as="sourcePoint"/>
                        <mxPoint x="700" y="440" as="targetPoint"/>
                        <Array as="points">
                            <mxPoint x="658.68" y="444"/>
                        </Array>
                    </mxGeometry>
                </mxCell>
                <mxCell id="89" value="&lt;font style=&quot;font-size: 18px;&quot;&gt;&lt;b style=&quot;font-size: 18px;&quot;&gt;DataBase&lt;/b&gt;&lt;/font&gt;" style="text;html=1;align=center;verticalAlign=middle;resizable=0;points=[];autosize=1;strokeColor=none;fillColor=none;fontSize=18;fontColor=#CCCCCC;fontFamily=Garamond;" parent="1" vertex="1">
                    <mxGeometry x="630.68" y="624" width="110" height="40" as="geometry"/>
                </mxCell>
                <mxCell id="90" value="&lt;font style=&quot;font-size: 27px&quot;&gt;ローカル環境&lt;/font&gt;" style="text;html=1;align=center;verticalAlign=middle;resizable=0;points=[];autosize=1;strokeColor=none;fillColor=none;fontSize=37;fontFamily=Comic Sans MS;fontColor=#000000;rotation=0;" parent="1" vertex="1">
                    <mxGeometry x="623.68" y="644" width="190" height="60" as="geometry"/>
                </mxCell>
                <mxCell id="91" style="edgeStyle=none;html=1;fontSize=20;fontColor=#000000;startArrow=classic;startFill=1;strokeColor=#000099;strokeWidth=5;fontFamily=Comic Sans MS;exitX=0;exitY=0.25;exitDx=0;exitDy=0;entryX=0.5;entryY=1;entryDx=0;entryDy=0;curved=1;" parent="1" source="84" target="75" edge="1">
                    <mxGeometry relative="1" as="geometry">
                        <mxPoint x="440.68" y="54" as="sourcePoint"/>
                        <Array as="points">
                            <mxPoint x="343.68" y="434"/>
                        </Array>
                        <mxPoint x="443.68" y="254" as="targetPoint"/>
                    </mxGeometry>
                </mxCell>
                <mxCell id="92" style="edgeStyle=none;curved=1;html=1;strokeColor=default;strokeWidth=2;fontFamily=Garamond;fontSize=27;fontColor=#CCCCCC;startArrow=open;startFill=0;endArrow=open;endFill=0;shape=flexArrow;shadow=0;rounded=1;fillColor=default;gradientColor=none;" parent="1" edge="1">
                    <mxGeometry relative="1" as="geometry">
                        <mxPoint x="783.6799999999998" y="441" as="sourcePoint"/>
                        <mxPoint x="878.6799999999998" y="440.7678571428569" as="targetPoint"/>
                        <Array as="points">
                            <mxPoint x="813.68" y="441"/>
                        </Array>
                    </mxGeometry>
                </mxCell>
                <mxCell id="98" value="" style="shape=image;verticalLabelPosition=bottom;labelBackgroundColor=default;verticalAlign=top;aspect=fixed;imageAspect=0;image=data:image/png,iVBORw0KGgoAAAANSUhEUgAABAAAAAIACAQAAAC2xNYyAAAAAXNSR0IArs4c6QAAAAlwSFlzAAALEwAACxMBAJqcGAAAAAd0SU1FB9wBFw43KYGtJTAAAAACYktHRAD/h4/MvwAA7RRJREFUeNrsvXmcHGd9Jv68b1Vfc2hG11iWrJFlyZcky8Y2+AJbxtwGNgmEHGwgu4TdBH4J+ZFz2U0+m2UhLAm/3fyyOcjuEhISwCSACQHCjQ0GG9+X5EPn6LTuY6S5uuvdP7q66q2q96rq6jnk76OPpJk+qqu7Z/p5vs/3YiAscIww5cXM4RIXCIdLABwW9E4QCATCQgKjl+A8oHyW8+viAkA4fE1ygEAgEEgAEHpE+izzle5/1SX6914f7wvtJfpbkBggEAgEEgCE0kifab9jmmtVciBP5J+kePk7kblcLwtIDBAIBAIJAIIj7etoPiZ7pqV/ppULpvfeRvzpf5NfuYkCkgIEAoFAAoBgIH4VsbMM9ev+2iVA+jt1vl9H/GrqF4nrhcErICFAIBAIJACI9jMknf2r/0p/e1NawIws/Xe+0tF9lvqFQR6kJAcJAQKBQCAB8OKjfrW1r/9Xd6nJI0jLAHsKQGX2q0leviS+TH2pKVVAQoBAIBBIALxIiV9F6cz5a5snUFQA6Kk/TfZuX6eFAQkBAoFAIAHwoiB+fbSfpHZmuEx/CxjdAJMIULf6maP+7NfqP4BAYJEDJAMIBAKBBMB5H/PLFG0mee5wKZSCQC0AmOWd11v/avKPvwsMAiAwSgNTeoCEAIFAIJAAOI+oX03cXPl19ivu7AmkRYBNAKiL//Tkb6L67FeBURKopADJAAKBQCABcB5Qvz7ST1J7+t/spWqBIAuACNeOrBoGu+7SkNkZcNGaSk339k9OHNzb+Xp65qldwK7jTx5NyQI76QepfwPlpSZvQFUjQDKAQCAQSAAsIOrXkb+e5tt/5e91t0oQ/uvXX7Rk1cjQ8JIRYMnqWoPXhkfdfgRMrNq+7sRuMTN19sQB4Mih8dO7Dhw89c2dokPOMpknSd/2V/5K7wqQDCAQCAQSAAuc+rORfpLw5a945nKZ+AG8cs3K4fWrV6waGFp+Sd/SxpLsG8ugHv/HNDSvlgLZ1v32v2ePTZ44vGP85OFD28YOnbh3r+gQditB87p/k1+p/YFsCyHJAAKBQCABMA/JP2n4MwAcSNn1HfJPk32a9tOXsHaUf/UlF69dsXbxmv4R+Y2UU/s88/byXG+4UJK/UPQIJtP1p184uefQ7t27Ht/1rZ1CCBFSfCARf/IrvTRQuQJKN4BEAIFAIJAAmA9xvznm11N++g+DF90Wm5bddMlla1etXXbJknX68QGQkv8MeRYAuIiAdJdgzMWBdG0QCYMT2w/v2rf7uV0P7HzmeNAh91ZGAAQKiZB2BlR+QNKWIBlAIBAIJADmLO5PV/injf4k2ctfe0oJgDWDb9i4acOaqxavrQ0ypb3QMRmEstsvO/bfJgXs24CzzQHxNaqxfwGAqVNHd45te2rrPz115JwQohUJgc6flkYImGRAeh8BiQACgUAgATCHcX+a/FWmfpb4PekSBrxsxSs3X7lp1abhNVlKTxb5M+Xof3X8z3JSfxaBQgzo+gSD6B7yNSf27H1y61P3bH3shSAQrYj8W1opkJUB6jJB8gIIBAKBBMCcxv1Ju19F+57mXw789IbrN67btGJDfUnywO0igqQMkMnfddJPd2+2fkxgVgx06D/+LpC+B84dO7B159YHnv7Ks0IETQQI0JQEQEsjBtQ1AuQFEAgEAgmAOSH/bNRvJn4v9R2uHfnJGze+dOVL/EZyZg8PaV+1H0g35dcl2nd960VOMZD0COQkQIBOryBCBm9fP33uwONP/PjLDz51RIigiVb4R/YFWhZHQOsFkAggEAgEEgDlU3+y0E+X6Zct/vbfhACo8F+87rprr7hlYBXLGAlQDPTTk3535X7dewLpMkERkT4SUiBOEMhF/sCJPc8+8PCjf/coRNAULbTQlESAnCRoKfwAfZ8AyQACgUAgAdCDuB8Z6m/X7vMM7cfU3/6XtWP+VS/xGiyjJKCd5asifTaP3sp0lwAS9K+aIZwUAtPn9j/x5I+//OBTh0UQ+gFtIdDSCoFsUkCuTCQvgEAgEEgAlEz+acu//X8ys9+hfPl/9vr1b7x145ZkzJ/d69Pu2udQNfeZhvnMJwhF86BumUArEcif2Lvtvn/+3nd3IwhmQj+gIwHUQiApAyghQCAQCCQAekb+6chfR/2xAGCvXPOTt1/1ypj6WWaWb5L4FybtqxwBVQthVgbIwwGBACf2bb33C9/90T7RCmZEXB+QlgJyWiBbGUAigEAgEEgAdEn+nX/T1M+VRr/8h9286mfu2LRlaA3LHIZJOX818bMF+0YJiyRQpwVkZx8IcHzXU/d99tuPHYpkQFYKpAsF0zKARACBQCCQACiJ/NP1/Sra9+CB37zqZ+648uVL1qmX/yVb/FTEv5DfHuFwbXKKQJByA4JIBhx9/sn7PvOdJw9DLQOSQiBWEUKqOyQRQCAQCCQACpO/Ku5Pkr/f+Wp547133Hznkst01M+jNQEsMaefnTdvi8hxK1VdQHKRABDg0NP3ffMT9xyfEDNBEzMOboDsBZAIIBAIBBIAOck/a/pnqd+X/mc/ecVPvfGyLV6Da7b/IjXR7/wi/nwCQL51crcwoiBeDuqnzm295wtf/fYO0Qxmgibaf0wygEQAgUAgkADogvzlBj91zO/Dg7ey/z2vueHOxWtZZO6ni/3O55i/OP2rZQAS/X2yDDi8/Udf/8T3Do+LmWBGzKCFGUNKgEQAgUAgkADIRf7yaB9PQf0x/fvwwH9u05vfuO5WXuOZmcBp6mcQqdn95x9E1/eW0wIyh7dCIdCcfOb7d3/tq8+IZjAjZkRTEgHy9AC5MiAuDaTCQAKBQAKAXoKI/rNT/fXk78vkv7zv/W+48U2Dq+X8Ppc8AJn6cd7G/GUKgM4xkiOFkyKgPTvg2O4ffu0vv3X8nJgOpkUnIdA0lAcqRQBJAAKBQAKAyD9Z8Jcmf1+ifx8evCuW/L8/vfnOSr8q7ueJ/v5e2/0zOIbDOIkTOIZjOIsWJjCNJiYxhSam0cQUJsE03fmd/5lUltcHHxVU4aGGKnzU0ICPASzFUizGUlyAZfB7Rv+yDFC5Aa1ICkyefuirf/XV7UfFTDAdzEh1AU1NQiDbJEgigEAgkAB4EZJ/er5fcryPBw4fPEH9bfrnr1n7zp++9A7PT1sGWcu/V9Q/hkM4hSM4hXGcwwTOYgoTmMQMWkgW0QkjSeuW+wAisZaIA/BQRQ11NNCPOhoYxGKMYDFWYrQnAkAlAzrhfCuqDGhOb7337774gz1iSkoINFMiIF0aSCKAQCCQACDyz5C/XOffIf848ufvuPanf/bC62LTnycqBrOWf1kv9DSO4DCO4AjO4ARO4AwmcA5TmEYriuHVA4SYkfyF5Zq0a96RFBw11NCHBgaxBIsxjOUYwQqs0HgD5ciAIDEtIOb1XQ/f/fkvPBlMB9NiRsxkREArMzIoXkxIIoBAIJAAeBHRv2z8Z23/ZL4/ov/+yvteteWnlqxLmv4eVPn+Mqi/hWmcwQkcxymcwgkcxjEcw3FMK9cDJ/cHMI0EEIpUgN4JSJbOp8f3Jr+rYwmWYAQjWIpBLMEyLMUgalHfQxkIJCeg4wa0orqAwzu+/aU//26rKaaCaREnBLJ1AfI+QaoIIBAIJABeVLF/tuRPjvz9LPkP1z/w5pvfVl/CM6Z/suCv27hfoIkWpjGOoziK09iHvTiIoyHppzcSpb9PrxBSvdVC6QZkL5d3+qUFAKRNfumGPYEANSzHhViL1RjGUqzAIHxUQ4ekfC+gIwFaEDh95J7P/9k3z5wLpoOpSATIdQGBJh1APgCBQCABcN6Tv8r4T4/28SUB0Cb/n6sPqci/3Lg/wFEcwDHswR7sxxFMpUQFy7QYplcIi8w56Ojf5gDIQiCQPAH1Mp9ko15M03Usx2pcgkuwHKswUpof0HmMQJob2PH5x09893N/9g1JBMwYnYBMRQBJAAKBQALgfKP/rPGfHPCTjPx9+PCX9/3WG1XkL5v+ZeT7z2IHdmMPDuAoTqMdugog1VcgDxRGZqKgeX1QWxroi/7Ul4nUv0k3AKmEQJBZ6yPA4MFHBUNYjotwMS7DlaiXKAKQmBjY4fbxE/d8/k//5cw5MRVMB9OhCEjKgCDjBFAygEAgkAA472N/OfJXk38Ffn/lP7xpyy/oyd8rIe4P8Dx24iAOYx9O4hym0Eq1FfLM8mCOZMFf/JXQnoct2jd/LTJiIOkJtP9vz+2X/48r9gME4KihD0sxihFchMuwsYR3N37sZFVACwHOHPvOP/z/35icEFOt2AlQpwMoGUAgEEgAnNexf5b+5YI/Hx4qkQDgH3jda35hYIVM/nK5X7fkH2A/DuIE9mIH9uMEZqJBQjLtp6cKilSpX/YttWf4iwgAKHyAJAGr1/oEibU+Hb5l8LEYq3EZRjGCVRjtOjEgDw9uhaKjzfAn9n/1ro/f25oMpoPJhAhoKpMBqc4AkgAEAoEEwEKP/eWiP9n495Xk773nlre8a2hNlvzlpT7FyL+FSZzECezEVmzHIcxkxg8mGwuTA4WEorrfXMpXngDQJQ/UYiC92U9EU/zkKrwqVmE9rsE6LMdi9MErSQTENQEtBDi667OfuuvhYCqYEpOBXgTInQHkAxAIBBIA513sryb/0PSHD/81a3/t11Zs5kpaLk7+AgJNnMYhbMcj2IZTif7D+MRYyvBPNvUJxaPOtQBIThIUWikQJCb5ySP6WliCq3ATLsUqDMOTViaVJwJ2PvTnf/PAWDAZTAZTYgbZJsHkjAAqCiQQCCQAzpvYPz3lL5Pxh4/KmsH//K6Nd3qca8i/eLnfSezD03gEezAdTuuLKZ9LJ8ekDD9XvF1CKS56JwBMX8n/d+ifRUQcC59O1YAqLdDhXh8eqliHl+FajGJJ106A/Dhtjp9pPvaNP/rMgROtyWAyHBaUXiqcFQHkAxAIBBIACzz2z7b7SZX+bfqv+B96yyt+odpvI/+8L9wZbMNOPIcDOI3TaEnH9cKNQywT9+vfIHcBkI/eyxYAsmBJjxQKFDKgLQU4FmERVmMj1uNaDHYtAtpjkeM1geOnvnXXf/96azKYEFOt6XBRgro3gHwAAoFAAmDBxv5QTPhPT/gLI394737Zz/5yO+svR+YsMeInL/lPYjv2Yht24BhOScV9nlSIIFO/qpVPzHsBkEwAsJB6meK26omCaRHQAjCEJbgc12AtNqLatQhoJx06HH907FOf+KfHmxPBpJiSGgSbkk7Q+AAkAQgEAgmAhRv7d5r9KhH9V+DfvOq3f/Wil/JwsK8c+xet9m/iBbyAZ/EoxnBCovv0n2TMr35b7BLApQqgfAGgqg3oNCPGX2VFg9xLkJYBHaJuS4ElWIsbsQErsargfoF2Q6LcHNjm+ed+9Oefenx/MBFWBEynKgKS+wNJBBAIBBIAC5L+07G/bPtX4C/v/9AvXvMTni8vBOiG/FuYwSSewL3YilMIUoa/F0mMTlIh/qtjluIeQG8EgC0BIKRSRXsHQXrPX7y8ry0EPAzhKrwe16GGCiq5fyaSJYFBJAJmZh745z/+3InTrUkxGUxHIqCzQoh8AAKBQAJggZF/XD/HUkV/6ZK/CirwfuXGn33fwAjLFOPJDXj5Iv8deAA/xgHMQACJE8hSPzOM6S1DAJQhBroRAPb7ZscLJ8sDW+Fg4Qouwm3YgktzOgHyoKJWtEGwE+ifPPT3f/WFx1rnggkx3ZpCE50tgs1MPUCQWIRIIoBAIJAAWICxf4f8/XWLP/yr67Z0jH9VyV8+8j+DR/ADbMdZjKe0R7KqgGmPW9wDKCPzb77ejcyTFQD2+2aHDMdJgVaCroF+NHAFXoVX5CgOjBg7CuRbUWdAO8x/8nsf/ZsDx1vngolgWkyjPSWAfAACgUACYIHRf9zyl6T/lO2PCrzffc2b31Mb7JCyl8j65yX/Jp7Hc3gSYzgQmv568jcftagHUK4AcKHs7BggRFSrSwC4iImsDIgL+JrgWIlLcD2uwiaHWQEiVYIoIhHQitoDA5w5+cVPfvL7wWTrrJhqTWMGM9LI4I4TkF0fTBKAQCCQAJiHsT/TGP9h9P+yFb/3/guvS1b8e6msv+vLcxz7sRWPYh+OpnYK88hXUDkKblSvvrw3VQD5BIB7/G8XANnLg4i05XRAx7pfjlHcgKuxDkud6D+daEhWGzTRwo5HPvZXzx9qngsmxWQwLUmAZDJAJIoCSQQQCAQSAPOM/mMWlmf8hfRfqXzoLbe9028kC/6KGP9NnMExfB8PYy+mE4YDT5G/6piudn93HkB3bX6upK1uAbTd0ywmOv/K1n0sApqoYhQvx2swgkXK0kABZOL/jrjobBAMpGNOTHzj0//zX1rnWufEZGsqmhAgdwZQKoBAIJAAmHf03xmXz5R5/w79V1B5zdr3/+ayK3giS1DM+Bd4Gt/AVhxGK7Ic0uTPjUcUXVzaWwGQ1wGQBYA+AaDaHWC+vBPHJxMCcbs+xwpcg7fiagf6T34fpI7YTgfsfeYvPv7Qrta51oSYDDp9ATMZCUCpAAKBQAJgHpB/esefp8n7V1CB97Gfe8Uvdhr+PGXFv+uL8ii+ga04g2kgMV5QjvyL5fvdJIA5CVBe6V8e2x5w6QBwTwwkr4vHCMfWfRMCFQziGrwVL1Och47+O2cSRH0BAZoI0MTUzLc+/SdfCc5JRYFyMiC5OTB6GJIABAJhYcFbyCcvxf6y9S9H/RVUUEU1/Le6aeQTH9r0eo97EV3L2XqmaMpTYwKP4h/xdWzDGQTwoofqDBX0EkN+eqXA2CzdJ8/QIaZ8HGGRO66SJPlGd95uhhbOYB8ex1b4WBE2CbqIDPlV4dGaZc9bd83Nl2197nQTDIxByMklSH4T5Kfbz/rZWfpEIRAIJABmkf7jYb9ehvwrMfmj8mu3fuCjw6s9qTyAw5fm8LvR/wk8hq/h23gAp4HwwaoJ8o/nCBan5O6tmW6PILp6VFb6YwnpyGkRwMHRwnE8i53YjhksQh+ySQTdI7JIAsQJm+EVW17Ojm47xrkAYyI5pVmVJ2IAQBKAQCCQAJjt6D/uutPE/ssH/tf77/ilSpUnjHovRf82nMR2fBtfxoM4GW0Qroaxvx+JCuZM/t2SOuuBcOjuzHTrim1xvi3+T1/SPj5PTHlmYDiCJ/AcTqKCGhpKcZFMBYjE+cujmSr1q2++YvjB51sQjCU3MjO95iEJQCAQSADMHv1nS/5i+g///OSGj/23lS+JewLj2N/V+BcI8AK+gi/hAZzSkL8nVRKUT/ZzR/DMIW6PWVAkhEB38b+wnJXc8RmvVzqBp/EUTmMN6om5hFn6z0oKJkkLYMW6O27Yv+PQJGNAJhWg+ksSgEAgkACYxeifKaJ/ifwr1Y+9/ed/pzGsjv3hGPufxd34DB7GcQgt+ReN/FnOy/Mft7sjCcfHylsB4LK+yHYdk9o/YhEQ4CS24X6cxEZUMpMAkl+nZYBIbGWsD96yZUXroT3gYEwgmwpQvMQkAQgEAgmAnpB/P0uRvxz5+4msfw3Va1d8/IMbX+dxnir4y1f09218Bj/EQbSiB6qG5O9H5jNP1YWVIQF6ec+y3AS1D+AuJ/LE/7rZBJ130ovSAQJNHMFzeAQBLtPMK1TRfyf+71QFANy7ePMtlz/93JkZcMbQ9gFgaBlhJAEIBAIJgN7F/lDG/r5E/lVUUX33Df/xo8OjXmI2X2cpj1vsP4XHcTe+hW2YDvcHtw2GmPx7mfMvQttFri/La0hXApjif9cY33xPITkBSBSDcACT2IPt2IUKRsIf9fS4Yd2jdHYztnsDBi/YcsvZA7tOtvMAIlsLwNJuAPUEEAgEEgC9o/907j8V+1eqf/LOn3h/pcalzL8vNee5kP9ufBNfxQ8xnhomIJM/cyjNK0rr82tMg7CcPZMicleiFzmEQPZ2QnEecj8oB8cpPIHdOI4GBqMfd6GcXJA8+2RroF+/9uYL2YO7GROMMSTrBZlaCZEEIBAIJADKpf80+cd5/0qH/FFdt/STH7zytcXL/po4iR/jc/gmTqTWCPhRJYH+KL1NA7A5Fgm2iJyVfkR3SRCX8MltgofxIHahimWogGuWD8myQqRCewYA/OKNN1z68LbJgAHpVIDSBSAJQCAQSACUT/+yBJB7/mttCfCTGz7ysSXr2oV+cQJAbvmz4Wl8Dl/FgSi/EGf920KClVbtX5YsUN2nrDLA8s/ZNunQJf+vM/DTvaFtOfACHsEYlmMF1L0A6bLATjlg++t2kmf4gttuOrxz/1kGCMSpgPSTpp4AAoFAAqAn9B87vLIv34n9a6h84HXv/oP6gJwfkMv+7AR1FHfhn/AMzoJL04Q8VKyRfy88AHvOfm4SBVnz3l4B4F4AaLqFS5dATNzxiucJ7MdjOIDLwgkBSEmB9BkzqTVQhBKg0veyW/yTWw8zBsaA9AABxVtCEoBAIJAAKIv+ZV6XC/9qqKLWX//4e7e8q131X6Tsr4n7cBfuxyEIaaSALw34dY39Z7cbYK4gW/7JVkB3WtcTuttoINNrmTSMmjiGXdgGjrWRTBFaKSCnFaTqAn/jS9c07t8ezgaAvfmDJACBQCABUJz+WcbXTY77Del/3dL/86F1t3mJ6sB40Y+NuAPswtfxJWxFMzHi1yXr30s676ZufzbTFO4CADn9gKJ7D5MzAto/B1PYje04iSEsAxzWBbHwOckCctWlL7v04W1TQfumgkVPO10XQBKAQCCQAOiS/rNtf3Fqvk3/NVRvu/h//I+ll3Qy//k6/gOcwiP4PL6B01HJXzUifz83+ZdJ9vnvZZYMpsqAIlUDTKL/5P3MCQD3+N9NRgjD+SWdgJN4DAfRjwHUwaFOWMipgORxBIChC265bvszx6fbFYMirYMyJ0ASgEAgkAAog/691Ly/Gqqo/utr/sNH+5bI8/78xLQ/Mw7hbnwWu8Gig7dFQCfynz1Lvxd9+r0XLeoKANd43j3+F47SIDvmVx4azAHsxQM4i4sxoKB8tROAKLxnAOqDL7vp5Nje0+22AgHjDwlJAAKBQAKgS/pXrfqtoYrqB173zt+vNrgU9+ep+v8+/gYPYTyxSiBe79NN7N8712D+iAK9A2Cn6Hzxv6n6XxjEhDwtkEVFgZPYgSfRh0syoiX9tci86gwC1drVN8wcef4oSz51RhKAQCCQACif/jl8eJllP5X//q9f99648M+L1sK4VP3vx934CraHY37LJP8yqT1v1wEr4THLEgB5lv0i171t9n9aMDCpj5SBYQaH8RyOYSUGlXQvlMeNRaXnbbx+afDoGBgDhEi/HIwkAIFAIAHQHf3zRPRfSSQAav31T/7mtW/1pNlv7pn/afwYX8I9OCLl/Supor/5EqsXXf07W/KFOc4AdEsPuMX/RR4p7QOcxHbsRwWrpUmGMv2rdwYKMHAEYOzijeuHf/gcC7WDkG8gSAIQCAQSAN3RP8ss+41K/5YP/N1/u/gWT7qJ55z5P4Z78Dk8jlbG+C+76G824nGW4xbdPC9h9QHcY3e7KMi/I9C8gyD+wYr7AqaxHdvBsAz90Tpj1baA9GvXGRM8svbatQ89MxNAiLQPoLgzSQACgUACIA/9cwX9V1G9dsVffmz5Fdm6f5eq/xdwF76AY4l+wpj8y46c84oJtzQAm7PIX2iIv9wNg26k707/6XOONwgexyM4g/VogEv0j5QbkPU82n+HV9xw9TPPnppGEC4LElQOSCAQSAB0S/88Q/+d0r/am6780McWrYyH/fDww9wl838//g8exrQU+Vd6EvvPnmswF1Iga/pnewBUsb6tANDmGLjdx/QI8c6AzuaAJnbiKSzBaqMQESkvgYWNgX1D11+35/mj58BCF4CZ3g6SAAQCgQSAnf7lob+J6P/nNv/mR+pD6bp/l8z/cfwDvoTdkfVfjSb9eT2I/cskYrMHMDeihWnkgHA+Qv4BwbZWQnujYbIvoP1T08IRbMNxXIoakEkGqGSPLCdqfde+9PCeA2eYEAJCCMO8ZpIABAKBBEAu+k8s/H3Hdb/2h+22P9XIHxOewT/guzgCLpF/ZZZq/lkPb929gOjGCcg7BTCfEMgX/+cZJMQSuSaBE9iJg1iK5dGzsbUExkfwa1dff3TP/jNM1gyMJACBQCAB0A39ywt/aqi95+Xv/s+VWrzrz09M+9fjLB7G53AfZqS8fyXR8jd78XLvPYDZ3QDYiYuLJwDKiv/tvoLIiIB2OV97VPDzOIABLIcP04AgAUiF/u15gn7lmpee3r/nJASDCCRtRBKAQCCQAHCm/07pnx/F/5H5/xu3v/0/Vqoskfm307/ABO7BZ/BsYoNwJVzyM3t5//myTaAXwqbI44jc8b9b+Z8r/QPJ3gAA2Ifn0YdR+IlEADRJgc5tOADubbzu3Au7TkJ0igG0xghJAAKBQAIgH/1/4HVv/Z2KxzP0b6PwcXwOd+NoSP/VMKfgviR4bpDXtO9+SVA3LYhFKgCKo5j9r/YJ5IlTDAynsQ2T2BD+ZEExESC9LKjzNfc2XieOPX+UCbRrAYy5EZIABALhRS4AFAt/5Zn/Ev1/8M1vfr/HuGLgr5m6nsMn8X2cBg93/CVj/9mLlPO7ALNF5t2uIdKznD0pYGrfE4ao30brZs9AlQroJAKAc9iFnViFpYr7pJcFiUgmMACMX351bXzbIQgEJAEIBAIJgDz0z6OxPxVp418V1T/6mVe/lyem/XEn+v8+PotHpKa/mP75HObNe+MBlCcfbPG2sAoAYY3Yy4n/3e1/2xHkIUGT2Ied6MPFiG1+9dpgBnltsADj6zY3JrYeQoAgSgSAJACBQCABUJD+//QXX/Fv0/RvN/BP49v4BzwbVf236V9X9Dd7AoCVYNerbsGMt2ClP4ukAOiO5N3j/2KjgoVFFiTXTwAtHMAu+FiJSsYBSB6HpWUAu+Sq4dYT+yAQAPGAQJIABAKBBICd/lNT//7kHTe/Q03/zGA+H8N38FkcSqwQ9I01/7NbO9/r+7FZeAZ5mgDNCYDuvQDTtfa6gOzaIIbjeBYVrERdeWuR8j/aCYF2KeHolQMzTx1goi0ChDCZJSQBCATCi0wAKOg/2/hXRRXVD7/l9nfr6F+Pk/gi7saZ6GCdWf9Z639+SwC7U8F69Miux9IPAcpP8vnif2GM/13WBaePGv9Qtn/CzuFZNLEeNQP9q52WizdUxp85xAQCBAkTQJALQCAQXuQCoJ8p6d+LEvXtzv/q773hzvflp//9+BS+i3OJPX++hfwXjgSYy7MXysdjuSLz/D5A/qr/PDMFROYZxT+cU9iBw7gEg0YZ0akHkF+HdZuCk88fYe1ywCDjACQOQQKAQCC8aATASHI1W7LyX6L/37njJ35Lrvx3o/9n8Pd4ABORmeBHA3/yZtXnpwTI6wHMnyFHrmRddGOALeYXjucip5dmcAAHsQLLorNKOw8i9RqEUoBddtXU0Z3HWCACBhEoRwiE9gl5AAQC4UUiAFL0r839v+flP/+ffJ6P/lt4BHfhwdS0fy+aFzAfoujuH60c4VCWJ8AcSN9lmG+eCYHCenRX+leV9SULAmewDwcxjFXK4cC6rYMCjF+++eSBvSeZEJ2mwPSDRoYDSQACgfAiEACKsb9p87+GKqr/9qXv+i8VLx/9j+M+fBpPS3X/vqXwb2FIADYPzsFFANgjbHefwD3+z79SyG2iYCwCAuzFbgxiedQToEpixO5BJx3A+IbNR/cdOMUC0ZIkgJDGDEYgCUAgEM5zAZAo/uNR7X86+q/93Ob/58Px0F83+p/Cd/FJHJQy/53cP5tnmfSyHy/vQKMirYHZ7L9I/OtO6eZCvDznYvMVbILEdJlcpAIwHMNWLMVF8CMvX7cqWH5dub9p84HdL5wNiwFFZsEgSQACgfDiEACp2n8vRf9R9P+mK3/zI9VGPvoHvoLP4KQ0RDCf9T+/JUB3dj7r0fmomwDdqFw4xv96shcGOeHytXB63HhO4Dk8g35cFkketzSEV7nqmt3PHTsHgRaCSAIoMwgkAQgEwnkqADSd/5no/+bRP/hYYzAv/X8eX8BR8Kjtr1KY/heGBHDxAIo+C+F4NukmQBPJdjezL39yIQ/96882WQ0wjl0ArpSee3bPoZwICF2AytXXbNt2aqLdFBgEqgQASQACgXBeC4BM658Xdf5X48r/9Uv/5I/7l/Nc9D+JL+BLOCIN/PHhFTD/504AYFZcim4mECYz/SzlAxRF/iY+4RT/54v+YYn+Yxkwjt0QuBQ8kfowFAICAPzapg2PPTXRZIEIWBCIjF5AbKWQACAQCOedAFC2/snmfxU1VIf7P/HRxZfIG//s9H8UX8U/4oTU9lcJyZ93QU7zTwLM7baCdEyMxCa87vwEt5U9+Y5ZXG5kz0F+xmexHR5Woa4tBFQ9h2r/Zavv3xoErCUCKRGQfkjqByAQCOefAMgU/3mJzv82/dfgf+o/XXRd5+rkwl/dR/pJfA2fjYb+tP/waOjPQhIA3WX2zUkA1qNzk1MAwhh72+N3l/p/YaFqU/zvVvtvWhrc/juBbahjJWoJo19oPAkeBvcDy9Yse/A5tGcDBkLlAYQgCUAgEM4jAaCs/ZfH/tZQRQ2VP3/3pjvbpO+DwbfSP3AWn8cXwm1/1cSuv26Jb27ibTZL58QsIsI1SheO51QkYrfF/7NH/4h+fBFOBngGwGWoaAVN+p4CDMtWLq08vgctBKLF2h0BmidJEoBAIJwnAiBT/CcP/qmiEtJ/9YNv3vJLHW3QyRHAOL9vCp/G1zARWglV+KjAA4vovzvanP8SYO4XGotCj2rKnLvH/3ax4Nom6EL/kH6IgWnswgyuihYBZe/Z8UbinYHAykumT+w6ylpoiSCSAEongAQAgUA4LwSApvivEhb/hfT/Kze99Xc9Jhf/2eh/Ep/G13E6shH8VPR/fkqA7o5Q7jOy9QC4xf55+wPMbXci92PY6T8zuA8MU9iHc9gIL6R3WaaojtS+zfoNR/cePM1aIkArHA8sVJqKPAACgXAeCABF8V977l9M/1VUX7v+fR+q1LxoNICd/k/hS7gb42ETQTWa988sNezzXwCYHzdv1M96fH7FhwkhJ5G7DBW2j/vVHc9tngCk0UATGANwMSqJ0X76eoX2eOArN+7acewsC9CMigFF5mRIAhAIhIUvAJTFf8nWvypqV634yP/XGO5Qvx/Svyn7fxLfwmelhT8VI/0XJcK5q7ufbcGS/54i1QQonAk4Dx27yAOXFIHuXiLH0dOvF8MEtmMAK1HNlAJC2enHAPDKlRsefWpqBoEI0AoChWUQgiQAgUBYwALAUPxXjYv/hvv/9x8PXZTs/GdG+m/i6/h7TEgLBDzrxP+F5QG42/jM8d6s9GekHwNU1A2w314439c8gkg4Ur7azI8LAqfwHBZjbaYWQA7qWerVrzauWHv/U0FLtKLZgFC4AKBKAAKBsIAFQCr73w7vU9E/Kv/7N0ZfysLBPW6Df/4Zn8UpeOGBKtGyX146mbN5+eaxOTrfbC7cNgUg3zT+/Gt93O1/1+I/4XB28jOfxHYMYL1VfDBJMvUvvqD/0V2shRYCtBLFgDQamEAgnA8CIJH9Vw3+raGK6gfffNPb451/LoN/vox/xJFIR3RK/+DU9z/ftwIUeexiz5l1eWb6KYB5FgO5CYG88X8v6F8nhBjOYgxVrE/V/afNfxHRv4DABaPNU+1+ALQSS4JkN4AqAQgEwsIUANrsf0WO/9+66R2/53EvUftvov8ZfBt34ZAU/cv0X5wOeykBmCWh0ZtIn/VQzLgcyT0zX37873JZnioDXU9A5z09jX3ox1rI44DStQAsJZ0uvmz3rmPjaKIVBJp+AHIBCATCwhQAkv0vZ/8r8uKf9Us+/Mf1gU7ZX1z7r+/7fwB/i4NR33+b/tPkWq4E6C5STp9ZXingJgG6WQDUTWIkzxSAYg14rvG/2/zBPDRvp3/51TiFvViB5eBhnJ8+rsg8F+Zdtv7hp6dbaKGJQMTFgFQJQCAQFrYAGEln/+PBv9HWv0r1kx9evNZL1f7rW/8EnsYnsRdcWvqjLv0rc55ebyrrWWkG/2wdw0UA2GN4l1Y+d3J3awnU1/67zBI01RbIaZBx7MclWKo4vlA0BAIMtb61Kx/YihZriZZohi5A2j6gNACBQFhYAkCy/3li9I8c/1f+8pcvvT0e++tZ4+MxfApPA9EIAb9w33/vJQBzMundZIBLY2Oe+f+stOcqUk2ArpG/i1PgKiZsX+Wnfxf5oSoIPImTuBQDmUdLHyFeJLxo2SJv6z600Iz6AZQ7AkgCEAiEBSMAUva/J03+78T/1V/f8tpfYfDghfRvK/47hM/gx2hJU//8Lvr+ey0B8pj8czPMp/ujqpsA8zfqucTx+YYH55cf+aN/+f/2qxDgCMaxDn0JJz/ZGCgnDgIwrFx76tD+E+Fw4OyWwAgkAAgEwoIQAAn7P732N6z/v/Xi9/1Xv5rM/pvo/zjuwj2YknL/vqXvv8xIt5cCoBsqzpv7L0NIZNfc5L2XezWA+3mYadwW/xeL/kXGcWniEKawDrXolRFa5yTsCmDrLn/muTMTaKIZBKIFICAPgEAgLFABoGj+yxT/LR/804/2L/fQ+WOj/3F8Ef+Cs9LOv7b5z7sgvDxkmJfOiwiGXjgWLMf9yx+UlKcYL69wcKv+d7P/u4v+k6/ENA4CWB/+eulrAWIJwCvr1z70dLOJpmgJeT9A6oFIAhAIhHkvABL2fzz6R27/q/zFr46+tGP824v/xvE9fA6no9x/RYr+u6n4L6MWv9x4Pv/ZzlWJoFC8+iLnEaAKdZVHcqkwEA7iofzoP/saTmI/FuNC+Fr6F6niycbgkr4n9rB2JUArmgxIGwIJBMLCEgAj6eY/Xyr/C+P/33jl7b8kz/03D/5t4sf4a5yIBv/ErX9uBFbO1LxeiYUyBcvsDi1iTk2AwplwbcTvvmHQ9ph5j+o+VLj9UzmBMVyEEfDEVB/5vix1hJGLzhzedyIsBhRCIFA1BJIHQCAQ5rEAiOx/nmj+67T/VVBF9aWr3v+hSiL7by7+ewJ/jb3h4J+qNPbX3d4uQwLMlgDILwGKOAOslHMROUsATdP4bDLAdkQXJ0A4nZH9yOp7McRlkePYjzVhSyBT+PnpVIBgF69/6pmJSbQTAXIaIHEHkgAEAmHeCoCU/e8lov8Kqqj21//iDxet9JyL/8bwd3gimvvnZ+b+zZYLMHsCAF2sNLJP/yvv+bJcY4DsEbu78Z9vQqCL5MhTa2C7JQODwDGMYz36FdF/shago5i9ysWr7t/KWqwpmmgGQegBZNQPCQACgTAvBcCIvvkvSgB87B1X3MEyo3/0tf+fw/chIgXRnhlQZud/2cRelg1ffnqClXa2LIp3WY443pW8bfG/S/d/N8V/Zp/CfSrAYTSxDjXJ7hdKN6PTHtg/3CeeOYAZ1hSdSgCRKQgkD4BAIMxHAZCq/k/a/yH9v3XT237bY+343579n8I/4evh0t+49U+/869Y/rxcD6D38/ZdhU7vKgLcBwHbZgKIAvG/mxAoSv9uLoLNG2AAmjiCGtZGP62qWoB4648AcOHo/t3HxtHEjAgQRJMBKQ1AIBDmuwBQ2v8J+l8++EcfqQ/Fa389Y/Y/wAO4C8fghbl/31r739s0wGwLgLLcifKFQJFNAHn37Nnjf/1987X1ubsWrvKh86qcw1FciAsVu35F6vULnyUfHX3o6dYMmmgiQLsWQPEikAAgEAjzSgAY7f9w9O//fO/o9e69/8/ir7EbPJoflBz8U6YEKDMv3huqLfNRVGt8WYHXIT0HsLvtf2XE/24uQF4p4Eb/QvnujOMI1mGR8Qw7KQIGoN4/XH96DDNoohnMKNIAtBuAQCDMNwGQmv3vZQoAq6j98k2v+5W48K8zyEdHOgfxt3gcTNv6V+6k+7Ki+15E2265e2b8qlceBnNcp+My0Les+N9E/K4iJG/uP31JXCVxEqdxORpIO/ki85q0rx9ZdWT/C6dYU8yweCxQZp8QCQACgTBvBEBm+E9m9c+axb//4WqfTP8m+/8k7sa30Exs/WOOW/966QLMn058NoeP7fqIeQnY/To9BevKAfMU/xXP/YvMq9PEETCsRUVD/5lHYqNrHnyqNcOamBFNBKpCQPIACATCvBEAie5/T0oASPb/n71v5WZX+38K38QXcVYa/aPb+pefzrurBJgbAcC6nERYfoVAGQ2A+RMA9tHCZdA/DARvJn31Wc/gAIawWnrFzKWP1cZQ7ekxNMUMmiJuCExZBiQBCATCvBAAUfwvz/5P2P//5qWv/2Uexv225j+Bx/B57EvM/fe0JJg/S96NBzCfZvHN1vIf+5GL5PxVl6iG5YgCx8kXv9sovgj9J8/nHE7jQowo2gDj75jk9C9buW/P8XFMY0Y0RbwhMJUKIAFAIBDmXAAoyv+85Orf5YMf+kitPzn6Vz/5fwJ/i8fAo9E/nXqBfDQ3NxKgl4RbxpAfVtpZuh6jjIVAdvI1x/82+jdd3w39x/0qJxDgmtSvnCKs7wgBtmrlg1uDJptBUzSjhkCRlt0kAQgEwhwLgET8r6r+r/7Fr170Evfq/7/HdzEl1f571rW/ZUmA+SwA8h29d+6ATFRMewt78V6xpkDTrVzsf7PzgIL0bz4aA0OAYwCugG4FUoL+ATQGqnj+AGYwI5pBMyEApDuSACAQCHMqAEay3f9y9X8N1Z/d/K9+jUebgcz0L3AfPoMT4d4/Pxr9Y9/7l08CFPcA5lIA2B+P9TDmTx9XZNIAeWN7WwKgCP3mFxouBYUu/oP6ss7rP4mjuBAXKCP/rJMhcOGqZ58fn8A0ZhJLggWVAhIIhHkiABTlf34YuIfRf3/jox9sLE7O/tPZ/wLP4X9hLDX5z9b7P7sSYG4FACvteaglQp5JAHkLAe22fBHxYK7+L1L772b0uxQBJr8fx1Fcin6NTxKfb9B+bb1VIw89ixnMiBm0ghaULgBJAAKBMGcCIFP+F8f/bQFQ+8jPXHEHD+nfZv+/gLtxf9j77+fq/ddfx0q7ffFzsB2P5ajzZ6VcX4ZQEZkpAEVj/yLxvzmKL5P+XW5tFjydwUknIbAGDY1nIiRfhUFgYDg4u/swpjGDGTSDeEWwoFJAAoHQHXhp8T9TTgD04aNy80U3v52FUT+3Zv8fwXcgwo1/8aYA12hR5FhJo79GzNobkCZ+5igFyhvvk1cG5N/CJ0p5pW32v+sswGL0n71OfSvVd/KGQI4WfohnFOctUrdn4YisW25fegFf7A15fazhVZgfttFweYjGCKOPMgKBMAcOgKL8z4u692qoovInv7vk4nj2v7n6/yF8Dgeiu/sF9/51nwjoxgMoa3o/K8FnYLnPyXR8FckyA92aJgHaLncfA2x6ZPdWvXz0bz6W3h9gEJjESVyAZZlbqR0PvzIy/OgONiNmMBM0ozRA6kUjD4BAIMy6ADCW/9VQRfWXb9ryjk7zn83+P4HP4GEwxeT/XkqAYmmA7tcKdVulz5y/K8+vSH7FuhgGJOBekGey20Uuerc9Uu/pn4VpgMtQy6Tz1c9uaNnxwy+cYNOYETNoUikggUAoB7y0I7GQq2UR4MPvr73tvXF5AA9jfx1pfB2PhPa/n2r9y2fs54sZxbx+i1hPdguywq9W8jashNe4yHtrXh/s9mjd0b8oQP9xGuBx/FC6tUi5FkJKAwAMt9/OhtgwH/T6eY3LaQAGMv8JBMLcOACZ8T9+tvzv8tu8aO2vafa/wE58AoeiBoJ28R8vGNWX4QL0crFw3rG+Li4FM1J9WYOS9Nfm6dd3oXT3crv8ToLp3nnPQOQSJ+3XbgKnsAEDiiFAQrFhsdaPiT2HMY1pMSOaQStTMEAeAIFAmCMHQA7xPXkM0BVLb347QmOAW1b/nMNdOCwVEXhOxX/F1siUAdHVC1bWfcow/ou0ABZ5ndIRc/HRP7ryP2G4NP1Vnr2B7m2LQtrrp7o8VsuH8RUE4WVC4yt0fkk5bnz5wDI+zBd5/V7dq7JOQQ0jF4BAIMyJAzDCMuSfWv7z0X+/cmM8/c8zrP6dxg/xeUxIk/+58rbdx7G99wB6tSuAlTTloBzN16YrZqDoIhP88hj0eZcNi1yP7/a4Lta/+vIZnMQKXCDVUajcgM7r61UW1beNiRk2hZlgRpoIINUCkAdAIBBmyQGIxv+kNwBE8f8b1m+8s3MFt1S178A/4LR0CB6OmRGaCKu4C1BeJcBc1BTYJIBdIhTvCyj+uogSXle3V9vtsfPsC+wF/bd/F07hKziIeAVQZtNP4tdrw+ZVK/kQW8T7vXqqHZA8AAKBMLsCIPFZxqMkfzwBgL/3Vz3Oo8Y/U/nfCXwD26LKweTcf5eP9HIkwOxQOZvF+9sTBPncCtH16yWM/kCeyXoqo980K8B+7Nmh/04qgAN4Hj/AWUASu8kkhQhdAAYGj79qCxviw3zQ6+M1Vol0Mot0As0DIBAIsyEAUuN/mET+YSLgt++4YBMPbX9z/N/CvbgXPLxzdu+fmwTIQ9buMeZ87BBgxjFAs80Brtl8FwPe/R0zfe9a8qcfJJSX/oV2JZAwuAAcwP14DC3ohwLJLsDF6666nA3xRd6A12B+tCKTPAACgTCHDgDPJgD6q6/7RUjT/0wSYA/uxdGo9M9TjAnKa+wWvW1ZjYVzIQq6dw1YjtuLEtwAF0FhJn7zxEG3r8qgf/VrYpoa2KH1Y3gQR8KvVUOBkmmD22+vDLNhNug1vDr3mZcqBSQPgEAg5EDBIsBU+x/PTP+vdtr/PGn6n+6z6fP4IZqohLP/dYt/uysIdC0G7PVK4bI+n5kjfauSAKwA4avPQC4CdK/ptycAisT/eZr5XKRlfvp3O04a4+jD5Yo9v+mSQAaBWsNr7jrIpjEtpkUzCKRSwOiGVAhIIBBmxwHIrgDy4cNfv/imt3cWBHJNPX8HW/EAzkjRP9fOCXCJQt1dgIWdBsg/SaBsiBLuo46+88b/ovD7bF8v3Cv6j5sCz+JR7M7E/iJVDNhZtnnNSxtL2BBb5PV5Na/C/JTBRh4AgUDorQBQ5P89qYHfh/87b682OmN/PWP531l8Ebsj+ve11f9A3jx/mRJgfoI5eQCzDdsk/vzvj/p/1Xf5sv/29ULF6F9oj5M9BgfDPnwHQbT/D5mpgPF3HI2+LTewYb6ID3oNXhGyZqY6AAKBMIsOQHLGb0T/Vy2/6s3tq23lf1P4AX6Mmah60Fz9r46k7Fvg8kqAPKJgbuWCS6qhN3sFyxBitvjf/R3JN8vPNfpXHcOF/tWPA8Xl7d+NaTyBRxEkov/skTvpm40vGVjKhtkg7+fkARAIhDkQAExRARAlAH7rnb7fGfzjGYITgb34Is4gLmhmqer/YlPZupUAvSN11uMjuu4wLFJPkRUKxUsm86wUFk50C7hvAHSjf5uLIZwudfnZZDiDb+GYUSB1UgAcjdqtL2ND3hDv9xq8Sh4AgUCYRQEwwhQiQOoAuHX08tfG1f+mz6QpPIhtEFECwFPctvcSoFyvYD65ADbSzydI3E38bB7f7b4ut9QvDhZOgkNYbqE3/9WPab5ULzuSLoDADjyFGUCaCpisBZBfm42bB5ZgiC/y+sM6AI88AAKBMHsOADL5/0787/3KOz3eMf89Y2DyDP4lon9fmywoWwKUTe1zXzaorvovOqi4t45Gura96Na/Yj8bIkO/rvG6i+Sw1SHo3AEGoIl78ELUDJgtBOxIBQ6GanXLDWyYDfEB3vYAOHkABAJhFgRAogCQZ1cA3X7xJbfybFpSgVO4B7ujxb/x8F/Xj3l7a5graXS3/mW+uQCsi3vnLyN0n8Hocst8Y4OEU/yfN/qHc/Sf5+dRGOmfgWE/HoqmAqYrAYRUGcPAcOWm4WVsERuMxgJTHQCBQJg1ByAZ/8f5f+/db/d4J1Ixt//9GD8Ci5RDnCxwr/8vGvXPf3Jnij/dyAJWgkzoJlK3UblNhgnn4wjre2y+hyhI/0h5C67Xi2jUb4CH8KziEeV7dH7pKpVXXM/aSYB0HQDIAyAQCD0RAJr4n8fx/7otPKL/aES5AmfxA+yP1EOS4kQOH6CYJMhThFbO0YrG82lR0BsPoDuyt8X2+df1CAfqdhMMIhf9m/yBJIG7vx7CyVlgYDiExzAttQPGr1/67Dmu2Di8DENskCXnAdBeAAKB0GMHINsD4MnxP3cY//NtbIMX9g6qyv/KkwCu7YTlEnvR+zLrUF+X3D6zSInuxAIr/OzNFfwuY39M9n/39C8s9G+O7pHTGxCZd3Y7Hs48kpC+arM7B0PF33IDX8QX8QGvL/IAGO0FIBAIPRIAI3FIn6z+D+3/W0dd4/+TuA9HIvpXl/+5pgJcKb+IBOh1rJ+fWk0iwD6y2ET9pvx/np2A9na9fK+yu/3vRv826hYW+jdF9+7iQGSkAQPDUTyBqVTsnx0S3P7lu/SKpRdgiA/ytgfQmbtFHgCBQOihA5BMAHhxF8C73uoW/8/gR3g+rP/3DeV/oqSmveIuQPeDgsqn/+KRe3lHK94+qB/+kzf+L1pz7zZfwIX+kYnu3c7AVF+wG1sVmzDl3YCdPxX/5mv5EB9kA14j0QzIyQEgEAi9EADJ+D/hAKwfvuJVcIr/D+EbOCFN/2fGmL+IC1AeRYuSjtMLEnZZCMRyPm5x7ijrPdATf74+gjxyQHQR/XeT+ReZ1/4k7sOpzCyA7LvKwLH+8sYwhvgA7/ca4W5A3mXdKIFAIAGggjQAqLPer207hj0Av/5TXs1L9COpMYmH8BREpB6S43+LN+nla8sqm97npo/AdSdg+Z5BPrmkf+2LFFYK5M/+u0T95pG/5sLEPFX/+q8YWtiOZ9BMPc+08Gv/qdVu2syH+CLez+uZeQDJ31kCgUDo0gFILgCSHQBvuH71G+PsgCkE2YsfYDrM/3On3H9RWVAkq1/eiCGR86UtXwLoI/xueaE74WRa5quPqkUX9C8cXAAXDwLG49plhlD8RKddgEk8hOPa1zXpAWzc5A1iERvkDa/mp+cBEAgEQjkCIDUAOJP/f9+r6kPc6fPnGTwMRON/3Mv/upcARbf/udHdXM0SYKXd01xayJxlhHB4jfIWBebZL6iz983iwFR0Wgb9C2MpYIwA27DX2NAfq/D+gWsu54v4IBtgdV4JPblEEoA8AAKBUI4DAGX5nw+/6t/6M7EyMMX/u/ADtELrv/1pVZ7t7yIB7EeeCyJnpd6bWf7v/gyEk3UvYDPlhUP8n29KAHIWfAoDJQujI2CuC3AZK5Q9bvv3ZhKP4Ij2mSQzcS/ZLAaxiA/wPl7lFUaLgQgEQtkCIDEAiEX5/0gE/NKNi1ayxE4SHe7D45J26HxOCadmvt6N7BU9OOZ8EBD6BUD2WQCuvkz3BXpuUkL9eLYafnWvgIv5rxYswioNXMv+9D9zHNuw1cjh8S/ismUbLuaDbID38RqvpFpwSAQQCITSHABdB4D3ureylPeo/uQ5jIcwnqD/fBF+EQkgCiQCRO7r4XRmsyUBWKF7dSOaitzXHP+bKNq199+F/oW14sDNa9Af1fSV6gwYxrEVp62yrv17du1VGGCL+IDX51UjCUCFgAQCoUQBkG4AlOL/t2xYsZk5LAAO8DXsiBoHsrd1y+rnHyVbhL679xFmK8o3S4D8RX8MLkkDlvNVEF28lm5RflH61z+iMJyF0DgDoovYX27324UfW0Y/d37jLlq9cgUG2ADr53Xmh4WA1ApIIBDKEQCKBkCp/h/eW3+Khat/Y+9RRf/TeAIno+w/V67+LULv5UgA18W0ZdKcK7XH6sv0ue7a8+8uCoqa9lnL3kaD+vjfbv/3iv6hlQR5rX9hpX+R2gtwGrvCNUHmd5qBsxuv4YvYItbPa16VeeEvYvxDQx4AgUDo0gHILgEKJcBLLkguANZRi8C3sQss3P3naW/pRu/C4ZLuJEA5aYDu436W43JmdQTyyZAyUwS6WNhtRoD7/P7u6F8oH7tI5t9W9S8MJYIMAmN41MEDYOC45JLBYTbABni/V4sGAlEzIIFAKEkAqPv/PXjw3nUn5/H8P/1nzil8DydS8/+F48T/bo3/lSVJgG5JUI9V6Hcm/3z0nEcI5OkTyOOiuLfsme7p3vhZPPq3PZKwOANuLoCt7wBgOIlHMG3xADpDgW+4ii3ig6yfNXjbA+DJrQAEAoFQSACMMK0E8OH3Vze/Ph7+w7WfODN4Es+iKbX/MSM5lGX8ty+5CFc5ErJLCVpxgaC/h49rUhLA5XObGXv53Y7gekuR+zmr3x9hjP3zxv8uQkEoqTpP9C9yDgM2uQC2R49/Y3ZjBwKH7ZAMl1+KfjbI+726V+MV5qXVOCUBCARCUQeARTyRif///csbS+L8v55KjuBenAKHDz+8pY0Wy60GWK2QAL0o9CvuGlRwrcIFyBvh62cDug/yyft6CMv39tfFNf7Ps9DHrbfAPqfA9p2p6l/9POyFge335jQewxmnZsBFizZegkEMop/XeXIeIDkABAKhqABQFgBKMuC2N7LEInLd581uPAURDQ9gqRLA4qkA4TzMd1QpAbrL9Je7hEiWAPnq9vPMAegFhPF1E473SRO2cLqlOfvvnvvP/jzkKfyDgwugi/jVHQUMTTyPo1bh1/5duvoKNsgGeT9v8Cr3ExMBQRKAQCAUdwBUBYA+PHi3rr7wmuT8PzUm8SwOgGWW//TGBxBKcq1jvTIRkFcClO0BdF6LKuoYxMsKuQB5rP+y2CD/cQRM2/3s9QMuk/27oX/XnwLdvD9hsf7tEwGStw9wEGNoOnkAF120ZAkbZIOswevMZ166K5eSAAQCIQ0/B/knEwAcHry339lpADSXAO7Agwii+f9c2ycAZWtg+lKhKEhjlvtU4QO4HAxPZG5vO54wPL4ojVB9VMDh4wY8gHOFCFkovmbhayGUt0jfLv6aGYQMyz1Myd1HUVcI2NcF2dcG26N/WKQGcsoJ97SD7lVq4UlchlXaocAi+gX1+HVXfPMFNsD7+WmvGkwLD0HCARAL/aNqdEsqdGGYHLuPPsIJhJ4JgBGWkgGJAsCqf+Ur44tNMeEjeC7aHswsdK92B2wEb5YJHF5Ir1cAJUiAfHLEDe2higE4bsQDOFuaBHC/l43488X6ZhHgWsQnckiJ7sx/83Fs19mWFRUfCLQDF1nfFQaGy9Z/6yEMop/38XHui6ZogociQLR/lw8vMBEw+u/wAfRhEXwAnuIGrdG3Y//YD+hjnEAoBvciQDn7H7oA77qxsYRHE/31hzqKJ3A2Mg6SHQBuK36KzedPjlbxUEEVdVyJzU7Rl3A6MnKchYsEqKKORbihhERA8rK83QEuxzZV+dvie5tISDsB9t57O1Hrx/IIJwmjdx9cy/7sw4CR6DoAzmI7zroVAg5cvpr3swHWx+vhSOAFPQ9w9El8HGuwHDV4SvoHPHwW3x/9V/QxTiD0SgCwzBKgDo97W14LaQOgvhjtR9iVmP/HrAQpCm0GEIbZcBwcPqqooo4rHCVAkYjVdixheCs4PFRRQR2LcGPXEiDfoCA75ZvjVXe5JBzib7fdfaoZgSJH1J4m2/gI5nG/sMoA23ZBvTwQqWsZ9mCbdSJgOwG3+XIMsAHexxu8EvUCLEgRMPr60V3Y5Hjju+ljnEDogQBIJACS8b8Pf/3QxTcxp6Fjj+JgYvwvKxjzw7niP/1953OwLQH6sAFXO0iA2Z/8x8BRKU0C6D2A5HXFyvnsr4yN1l3eO7s1b5sRqDftzb6BS9OfrStFXfPvJqQ6Xx3GDofNgADD6ovqA2wQ/bzB68xjXrosZwEVAq7FxTnkwmvog5xAKIJiRYAcHN4vvZpzntoBqMKz2A5EC4BYVH6W/uB0Kf9zqwZQfS8kp4KD4UowPAZbvt4191/8KOkXmkOgEp7njXgA413JCZHzGvcKANtzsvX/mxIDefou3Cx8W4beTP/2qQNuQ4JtTYPZ2zEAAfbgAFZY3kkOgap/zfr7j7EB9PGaVxXTrfbvq1QHsGDwZ7luvWzBOBsvQT8EWpkrPAiMjz1BhESYXwIgpv70BAB+zR2dyMNcAPitKP73JMNBKEfLuhQFulJ++mO2k6TwQ3q9EgKPW4ncdG2+0kB73N55qYNoouKNuL+ABChSwY9cHMGMpXO28TnCmdpt1f9uNQVuhO1G/65lf/mL/vSS6QU8ijutHgoDw+WXPPAUBnifaHjVls+aoplQ5+I8/RT7ID69IOj/5fi+8frbsHdsF5ESYfZgSAGkRgCnVgDfunrJpUyT1Y8R4Awexbgy/y9yzWA3XyY0Q1pVNoaPCiqooYGNuMbwwW3+WHc5y3y3jM/QA0cFVTQwhJu6mg5oXgpczBEuyiIiV/zvQv9FhUHWvpcH/opC9C9y0X+6XkBo6Z+BYRzPYtIo6jp/LhwZGmIDrJ81WC0sBOQLNAmQBysXAPlfP7rPTP8A7sHO0ZuIlAjzQgAkbpWRAG8J43/zBMAZPIQXortlb+e69qf7cUBMeiocPmqoo4ENXUoA4fj4eUiThWdYRQ0NDOEWDHTxBrvNCGQZLyKfBFDRo4Bbpb/OHYA1khdd0b899teVFppW/7jV/Ouel+7ZHzVsBUiM6mTXXMr6MIA+XmcVzh12dJ0PmJn39P8yPIhVTjf94ehGoiXC/BAADPKeHyZtAeAbt8hTRnSfLmdwL8bBQ9udOUXv6GIssP57BiH1KnjwUEUdfdiAl5QmAbqJjONlC4jaLSqooY4h3FLABdBH++X4AMX8AlvPvVpA6DPrs0P/arJ3tf6FU+wvjD9J43jcOBEwxvo16GP9vI/VeYVVmOdQpLPwcXren+Gf57jtCNESYc4FgJQAQCr/z+G96bJFF7FosI++BuAonsNM1DmokwBw8gGKDAEWKRsjDonaEqCGfmzKLQFcI2OR861gqZILDxXUUcMivKKAC8A00b2raGBOz9bVm3EriBMGN8A2NqcI/et3/QnjYmFYWv5s3gAsxn9ahU9jzFgLEv/kLF9ywVL0o581wrVAce0rYa7i/7W4LsfN/4BeMcL8cACSPoAkAd6wBVE9vd4BOIvHcQCI7mgmCTcfwHY/9fdM2p/eIVc/tNnr2IRrHSSAiwfgViNgqgKIkyo8lAAN9GERXt6FBNBfW5wXmOVZ5hFwLu2XOpp3p3/TImC3NUA2698W+6dlBxxi/zZaeAHPY8ZpGsA161k/72N9vMar3E9PAjgvqwCa8/z8BnPdevPopURMhLkXAMlwNJEAuGKLnFzUrwB+BOfCunuuyP7nH+zjVg+Q/Z5F+wflp1RBFVU00HCSAEVy+vk8ACYRszRxGXU0MFRIAqSP6xbb54NQRrdqmjaTvqr8ryz6h9YNsE0DsA/+6VXsL/8insOzOO2093H1hWigPQ+wmpgGcP4mAea7AKjkuvVQztsTCD10ABRNgG9Y1z/CpPoiHaXsxe6o/p8rO5GKrPstug8QgFTO0Im2q6iggQau6kIClNMnwKMYLh6Y1J5fWEEdDSzGrbklAHOK3E1JAlboubi9L+5JBGgJ3pX+heF7u/WfN/aHIfYXuWL/+J77cMzBqGNYvuSCJehHHxqRA8DP8yLA+Q7R49sTCOUKgFQLYLIDgN95O0t9rqg+ygI8iwPS/H81pYtCRYH5UwFMKrCLDfb28N0q6mjgqjBR5yoB3H5jRe7fcNXqxWpYDnhrQReAOZF/3s8nexbfhb4Bt4I+OFC+yfwXTvSfFQFFYn/d9cXIv43D2As4JQE2jLI+3s8arM6r3Et3ApyHSYD57gCInM+GBABhHjgAWfoPWfPSmzv5f27o6z+MnZjWbACwde2X4wwIwxOKO+55OBWgL2ciQDhd7k7RLDG8nSemAnhhU+BwbgnAHAVBeawg0F1u327/56V/u2Ogutxe/W/L+wvrpL887+IUDuCUUxJg3Sgaop/18xqvMp/J/beUAqBnQyA4CIB01Vy0BujVa4dGOxcilViUP9iexW5pU0D2o9OleC9f1K86ikywSHQ1elKevV0L0IfNuVwANz8g7+1ZauwChy+d4zBu61IClMEB6sn4JjkgHP0Q3SyAfPQvLPSvG/kjrAWEefL+SDkQRWP/DvZhv1VEMjAsWzw0yPpYAw1e5V6qWIdSASQACASTAEgkAHiqBsB7zY3MkFiMbc7HcSCzKkjkMtjLqAeIuwDipcVc0XJXQRV9jhJAT13dkWr8mqZ3LHSmAlTRV0ACqGP+vK5BckK9/X2AUTgJqzwQhmhdWG8Bzf0E9Jl/nawx0btwSgy4dfvbyP0Qdms7+pLjgK5aw/rCeYBZCXD+JQGIMgmEHjgATJGQ5lfeoEoApD94z2IHzoVxtt4lEFZJUE49AKTwh2e6Gtt/KqigDw0HCSByzH/XXS6UH/Ei4VGkli+EEqCBYWzJ1VnkvviXOR/NtP5GGOge1m4Be4RvKwAUipjeJBXU1r9b7A+jsM1f8W/CJPZjxqme75LVqKOPNVjNSycBKGamZ0MgWASATP8yE/E1g8s2cMlP1H2qbMPRRAeAvMJHGDvpiyQHbLIgnrOXzLBzydzww46A/jlyAbgi8pfrAjxphPEwbsvZXJxsMkx/5+4O6JY25Rnsa6qWd6f/tI8gtD5DltjdrX+32B+G2B9dxv4yTmDM4hK0/6xYVu9HH+tjDVZJdAIw6gcgEAh2B0BdBOi9diPnzLICCAAewhGJ/tORuK0XIG9ywD6+tx37i6h2gadSAH5UaldHP652cAHsNOnuAYjoBUeqViFtwHSaAot3BLgLBVi9FVP0a6NQfZZe92oKqLr3TbG36kyFNiVgSwEUjf3LIX8GhqPYof29k5MAPt+wivWhj9VZjVc4P88bAckBIBDKEgAjLOEB8GQR4I03xD30pmW4j+FMoqNd/ghlGpLstkhQf0l7EwCkNABS0407ZYF+uCMgjwTIlwbQfbwLxEOAWOoMO0Iqnl/Yh8U5EgFlNQC6Si5hGdOjistN8b/qK9ttXTL/KjkitHF+kdhflNrTdSYUAA5JgFVosD7WYHVeYT47v+cBkgAgEArBN0b/2THAWHtDXKSmo5EWduMgAlTAE8XHIor+mfQhnW4PZKm4XXetyoxWXcIgL9xJDgJiCQIWkJMaVwN4OHVMkXp81eXCuktPfbT2eXIgIbBY9MoJeBAI4EvneBu+Z5wRrxIZ6q9YIaIyV7/ncWxs9r++DFBYon9T7YBLA6FO2Lnt9ysXAQ7jGIaMQq/987rqgnZVK6vzCvdbPPFDT33mBAIBuhRAtgWw0wGwtm8E4WJfaCORadyHs9IIIJYi2bg2Xx3bm6P6/NQiopZFD+kGh1SLQ7gloIaGVA5YtPs/z+esCM9JSC5Asmah4wHwsCmwnQhw7QgwDQLOGw7abX0TMWajY9e8v+p7lSUvHOlfOOX/3Rv+RA+M/7QqH8cTsE13YGDor69aigZroM5qvJJyAM63ZMBdCzTMUmMYHhETYS4FADJdcuGfV90Ur6rRYxKPYgqqSgEmiYAO6WU/LMtPBsSPpc6tx3X3Pnz4qIRLeK7OIQFsssAsFlj4djBlEWCcpohTFRXU0YdhbCmtFsCNG4R1UZKu/E04vDbd0r/tbMxRvzBuLbQ1/PWS/DuYwPPS743+lxe4dCWrs3YVgMc8h9UdhF4hyPkWk0NDmCsBMMKkTxGeGgTEL78WiTBC/VkyhT2YTuwAFAiiD0WWcgJcZgR07wPIewhYZtoekyi2LQJqqCWaAu0DfezdAPZeBZEI05ILjFiiFoCjEkoAVxcgWfvvFvm71A4Ih82Jwnidy+xAd/rXNyCmo3Rhaf1TXeY25rd3mMYhI5/E786aFayOBqujxqqhBJDIf4RkwKxh7GHLBKck3jG2lV4zwlw6AOkQtO078+Ha8g3MulpsGk/jVNS7LlcAiJQIgCQCTLFVOT6ATIDpkUBxqx0LCdZDBdVEU6B9kaw+x2yXAu0ehewZJlsW09MB2xJgcc65AHbyZ5ZrzBXyavJV5+jtI3pFDvrXFeLpH0E41PybyR89aPczCapx7ELT+A6FS4GGvRoaaLAaq3LfoXOX0Dv8fI7b7qGXizCXAiDrAYTs87aXeFXbBkDgOB7AZCIBIBezySIg+WGscgKEQRLkHRsUU2vnO450owNL1Nu3dwT0OyQC4CgBzB4AT0iVeGiRPA2gE//HHQGNXLUAeck+//wDYYnjdX/VFK2jfyjpX+UXqFrzbCN/8+z/E7Ng/MvkPomnMWF1ZxiqlctWsAZrsAar8Yo0D9DN/CGU6QHcm+O2T9LrRZhfDkAYdHZaAJmxBfA4tqGVon9I5Ju0S3VOAJzoRTiLAlmIyDY7z8zdi6VAdkdAPhcAuS9LlkwyhQpLFgT68MJqBZfpgFnZlncIULonwiYKzH35MBK8MEb/wkL/wqEVUJ//d9//N3vkHztsOzFpdXAYgDUXoI4GaqzKKsyjUUBzilc63eo0bqCXijB7SNWnJioA0iWAWHkVSxQAqj9HjuCFRMyabHdjKVJONwh2JEG6IVD/XbY5T9UcKEK6lz0AJs0G6JxREFrxHXFSDT/kN6PdFKhv48uejVDuStCPT2ZSgoQhucI4vkVMOgG88Lk1AORpCmTSoyEjxXTnZ8/kq8hYKN8L24BgM/2r3QIgz8BgKB/dVliovt9sVm0JHMNpjBjf2zZWLEWVNVidVbnPPcYFkf/ceQDfpVeesDAcAHUZOl8zuPjiZGOaCk3sjnYAcM3w344sCBLrZUSGwM29ASZyEspRwOkzYBmyjaPsdsDkR4t4XWoB9F+5EEzcApiMzBn0u5lY2LPgh02BW0qdDii/Ey5+jJkS7a+BOlWQl/7VVf/CmP93o3852p+L2L/zEzGBA2hZqwA4lg17VTRYg9VYLVEFADAqAyQQCFz5CQNkvWfvzVcjNdpXhUPYgenwLkgtARKZ9bz5RYA76WclgMj0ATBjjr1js1edywHdJIDdAVCdYbIpgyU6AvwwVWHbFKiu3XBZGOyyzleVftFb9aYCPRv9C2WWX/36ZwcI64sTXYcAz1bJn/rVnsA+nNYE8/JlFW/NUlZDHTVUmM99zQwsAoFAAkDpAEhDgDZdLROTDgcxZryVTgQIhQgo0hugfiyhIDYGaFYDyUN32m5ALRwQ7C4BbJF19n9VvUR6PgBXFiz6YddCHQ0sdnQB9BzALM/HvnpJaPL/IvO9Lvuvk1L5M//pa/S1/0IR5UNxKzEnxn/y9T2IU9b3lwFYs5zVWB0NXs0MAyIQCCQAjPwgSwCs2cxTsalaAByR4ml1HblKBAiFE2DqDYCzJBAGkyMbbycbA72oC7KCGvocOgKEkwcgtB/aqr4FnpBUTCMB4jVBNgngvhmAGZwAoZ2tZ5YKwvhKCc10ADf6VzUCCugGDQmHc4K25G+u6J+B4QROWFs1AeDCJaKGBq+hynzOmUddAAQCQSMARpgi/g9ZZmX/0Foolvsk0cQ+nAaPhgXrPy5FypDXpQN0Q4PziQB5yA6M9C//KycCvHBZcHI0kNsEAHteXFcjzzJOBc9UK8gSoBpOB9QvCzbb/S6jgViKRN2m8amsc3VuX1fQZ0om2NsJ1SOAALdRP71b71MM4zhs3DnR+XkeWcx81FFnNVZhflq7UxUAgUACAIqgE+kx9K+5knNb/h84gT2YkIromDUehIMIgKZBMF9ZIFeUBjJlrp1JUwE7LoBcDhi7ACgsAXT3YwobJn59VImKuBbAi+YCDHcxFyD5+MJBIKg26Zl6BoT1K1M5YJb+dUkHXd+/3rlwGfI7H3AOL+CstQqAoa++bBA1tKcBJncCEvkTCCQADOFDov5s0xXJCgBdC+CxRKURDHF/lqg763ACbTrAHO2bjy1SEXVW9XSG78QzAnlm8E4tmgvgZhvbL0nSLVPqMZZ6Y7jGBeBhLUC/ZS6AWzGg+v0zSQD1JAAVrZuy/CIT1YuM66CrJ0je01zzr1/eM9e9/nacwhknr2bdCK+yGqqoMp8nxwGTBCAQSABoPIDUGqA1VzDYiwAP4FRmBbCw0ki2P8AkAlhOEaAj6SQRMuWGwKwEiDsCri8oAdTkKRLPlCnPUw7euDERUDO4AEzx/Jnx3MxnnY3JdUkfVdW+UEoFQJ0myGP9qzcOqtwKnZc0X8mfgeEUjjnd9sKlospqrM4qvMI4FQISCARXByDmFoxcyawJAGAXTkUtgOZmKfvYXn1NQD4noHMPYY2Wsk8/2xHAUZE6AtR0AqPoMLkCTEP96TPkDi5AHUMFdgSY6F/V/y6MIsvWz6+jf2HdBajfO6hyAATMFf/Zn6P5Sv4dnMEhA4vHntEFi1ERdVRRYxXmUQsggUCIIU0CHNG1nzPwW1bVh+zpwynsxBkpR22ez6ea6CdbEDF5pycGuswLTF8jNPSq3mzIwo1rHEAQ/uulPloZrgbDQ9K5pk18kbgm+3/W8k86IWqvIr4fRxD+7ZwlECSGOzLchnusZnF+OaAb+Su0LozQykG1HwDo2wdhEB6my2G83DxiaL7hLF6Qfg/SP9Ui+tlePNDfOFtDg1WZz/1wGmA0/nKEHabVswQCOQAJzslMArjxSljpP8BpHMBMYkqgyerXOwHZdECQmROgTweovjaHPdk9AcjMBkh3BFRRDxMBJm9DWP7PZrdtZV3q8UA8Mx3QD3sWVImAfAGgTLvMYUqALvYHoMzdA7qmP2EUGqp0glBa+7rYX1fvLxTXzzdM4wgmXLo22NplqPIaaqhyP1oKTCkAAoGgrAFIzgBg4ODr1jGH+qFjGJdKAJmG9F0vSdKVUIoAoRABIlPCFUfnwnD2TJFlV0sAP5IAnUSAaYKcTQIgJXfs8kR+jXUdAX6YqtDNBbBl/1USgGUuSVK4ujXQZP+rm/XU9r0wOAP6BAIcjH/1+c7n0JiB4Zx170P753jFMKuixmqsyuI+gCJKkEAgnOcCgCkcAAa2Yl3yCjV24pymA8Cc8VffRl4cnG4SZAlqsBcGMsM4INUHJ7dIAB42BcajgWwxvltNgPsnMrNKgLZTUUdfaTsCRIKgs3G5y2Bk9ViebArBVPinkgP22F8lAtKPKea58S9jAgcdhgExLB8SVdRQRYX5nkdlgAQCwewAZEoAl65TTfdPYgrbMJmYAQhjnJ83IZAVASzxMW8SAUJqA1R9SKb77WGQANF2ZFTCCfxX43rAUBBoXz/bOQ+zTMnXFOiFPkCeZcE2BFppoJvyIJTSQShbBIWGmmGM/V2m/es7AVTDghdGWnwCexE4SIDFi1iF1VmN1XiVygAJBEIMP0P+2UX0/NoL4hJAPaaxA+es64JUhX/MeAv5knhssNxoqFsklI6q9Qtv08OBBdoldgI8Uw6YfvECMGyGwMOG56YvA0zHyLYP9OwKZUBfDtiCANAAIHAr7o3KAZmiIdJGe0JL72qHQACa2XtpMjd1FZjp33xblehS+xO9iPsXowoAGMfZnvzqTuKgQTbGZYBDfbXaRBU1VkG6DJBAIHSB0bXKjw0GhumxfQtKAIykw2Ep9L1hfVobqAXAITRRl2SCgGmzHNN+r7skKwLk0bTJa9P9AEJDcfrRuEIjAYQkA3wI1MEAbAbwMJJ9CibqV/UMCOi3BKjP0CYBvARF3IbvafPGLvQfv4YiVarnthBJF/W70L9NDuiWAwO2ev9yyH8xqhjAItSwAsBl4TGbEDiHv+rJr+40jqEF33rmjK1evP1Iq4Yqq8DjXiAn+KgHwPTxfgf6EWhtr86Hwpmxe3IcsQ9CcUTn44xejwvgoVnO+fT01duMIdThgyt/yny0cGjs4dR9XokB7SvOwDGNY2MPzYtndzkWYRHeiwrOZYLpRajgv44uGXtiYTkA6ZmznT/e+rUulUOncSJVAKim8nxegFoosAQpMSkmFhHlJY+Xnf8HpXCLIyimkAACgIdWJAFE9AIGuBoCjxgpPxm5ZyUAy3GGri6AJ0kjhttSLgDTtpKp3yuhtch15XdCYf+bSFxn1ptifxfaFwbyz0//AxhABcvBMAqG1eiPPn3jX54AARim0deTX1wG4AwmLImd9s/LhcPPV1hVVFFhFZau5iUJoPp4/2n8JZY43/oU3jb2Dctt3owvWY8DAHeMfae7o4THefXYt+bs1duAS3G30y3fhB1j28Kvb8d3nO4DnMUbxu6ds2d3JS7CN6w3uw0YBW4e+9HCEQBZ8g+TyxdewhQElI5HdoctgNwh5nf3AtR2uT4hkIz6k3JAWD5Qk1+pJICHVkoCAH5Eo9eASS5AlvLTpC9Ssw1MZ5j1AESOREBHpAzjVtxjrR7XiYAg5Veo2vSyWf7sWB/1OmD9RgC7bNBZ/PpL81B/FUsArAKwAnWMoi+qEIlpP5mgab82TfiYwQ979ss7g0Oh9DCLgGUDqKCGGqsyj3uMCxc1/GKm/7yiaAhfH7197HuGI97gQtwAgG/r35fRt+Eu53P65uhNY/fP0Qv4j7jS8ZZfxpfxZgAYfR2+5nz8ftwzeufYV+fkZ2MdHsgxXe2Ho+vHdiwcAQCols9hyWh8ge534yyeRSAVCjKn7L6bF2BLCCQHBiET1apGxtqIliklQOd/D61wTW/7+NXwQ/+qyAXQ0bQwuABunztJl8I9EdARcFsso4H0Nfr2Fb4qotWJL9tmQF0Jnyk9oHcA8tj+KwAsQw0r0MBSjEhlrRzyeuY4GcQyyZy2/R9gPx7t2S9vE2NYjZo2bdS5fGiA+aiyqvCjaYCM4n/NB/xr8PVCd5w2XjuS4wxu0kaNf5jrjP7L6O/PhQQY3eBM/wDwxvD/X8/5MF8ZnRuPY3XO4arVheQAZBvOGXiVD13EEh+BagGwE0EkE8zUrXID8tcFiAxdq0oDkZIK7lBJgM7fTkVARwQwCNQACFwF4BFF/G+TAO0jipxnmE8CtJ/NMG7DPTjtGPUj00lh2rZgImX9qh8YlgOLQnl/O/nH/y9BFctQwxCWoA9rMrMWuDQXIhqhJyXQWTQ3suM0BeGfJnbjbgszdIMWDqCJmrYMsHO+w/3CE1VUWYV5zGdcUPyvI69XFaR/W7T9nhzHWq69ZgyX5DjOq/Hq0evTWfZZwOW5br03/P/jeG3Ox/nmnPwMfze3cbpgBACDahgwu+n/svfecZJc5bnwc6q7J21erVar1CiwgI1AJtky+BrZIohkcjBJAozxZ8y18bXv53D5bGOwjQM2GF8wxgYblJFAgIQQQkLkYERQYKNCrcLubN6Z6e5K5/3+qFNVp3Kd6uqeDvXOT6uenqruqtPV9Txvet4ztCYSPXrZengIHM0UFQAUjAao9ghExYNJqn4Owysr0GXPFCgA88GVQQOhAQLBAcfP4iEcSAD7tKiA939eoipLhQK49QoLYKACFCAO80zEQAIflxJ085Ja8rLhP03GJ7ktsGj2Pw38N2EG67AeczgVDI+L5bvk1k9IXn9QR+F9jlyidJqUirLB4cCGgXtx3QDhH7BxEHbuNcMwP7tubqlFMzTLmmIgUBlGPPnwf1FJ+H9hrqf9PxRebX3qXz6AC5X91SETgPZzcZ3SDr8j/n+ixHs9Sf/hkM/umRVHhkaFAER6AEJKgE84K5g9l37f6OIQSNoqv6QvrTIgGiPISgBEt5ATAoFyQNKg3X6jAIH/Tz5wNDEDgoOn4/OwEihItDogrUxwMBSgGQKwX5YoQHLKBJnQm0QY0oR10+E/fQxQ2uTAYor/3v8XsAaz2ALgLACPEtn7qJJiWP0xyO1H1RK9sklvEgNJvRHygCoOC+bA4Z/BwbHUcvAwqz9tw65FtNBCizVZVPKyNvfmXjb4/9/6DbnbrFF4vUZqAOCzbdVj+49ixXiVreGTcJPiLiJDrn+l/Tm3GkDBtmOoBKD9ZHxVcZdn6feOSwQguQ2QoXHWozQgtweggxMFIL84Dcga9JNHCxjkDoHAd+PKMYA4BQhAIZwEIOFjE2ysx7nYEdInSEsFyNX1ZZuzmVI5IImkFOFCfFWJdifLF6UVAqbRh2Lwn1z2lxb49/5tYROA0wCcgnmcgbUJksnuKjfEKsH//LRIIV+Q2oleZXK6Kb4aDmzYsLAX1w6c/BM6MIvMA8ApG3Y2Mcua1GRNTauhv0Lv/2X6Zwps1VFoBslqO3wpPqN0dJuGvIxbFbf/Ff0e//GfKBOAq9pd/fNDPLvTFbd/5ur1KqgTgMBdiKQATjkjv4mO42FYaMZmACZ59OrRgLKxAAoJBZeteWKxd3ah1YkoJgMaWuBoYhaPx46Ib18kFVBWgV4tEQC0xDFciNtCUYB0oAl3VSTp9acJ8cYH/CTJA2XBf/rsgK0gbMEMTsE8TsKWENzDL0iN5vADlasgmx8E+6ORIi3hKg5Wg0XiDgQOGwb2DAH+ATcJcGqB63rjPGtpLWcGTaYxjTGqpYDC8P8sXF1uT70YIHcVCEDWh7mofGYv1q8f4kK+V3H1JI9av7ut/n6fa/+8/v2hnd3nFM/ua6N/5SfrAMhJAKzfml/JcAL3S34UK1Trr0YD0ssD4wSDEE0IqIJ/eOukIb4kKgHCAWRCA000sQYn4XAqBcjWAlClJapRAEhk7ldwK06kFPch5uEnCeokj9GJ1//HZYHTAT+prJCwAS2chFmsxybM48wQ0LPQtadF4F4O6cvefVJzpZb5GZDk+yMSU3JrQMwhef8e8d6Px2AuVeTKe3bdAjS0WAszzJ0IiFoNMGQ/W9JX/uXhHqb+LWWQ/Gz7wiEKAz2lr71fUiJhccrQSOITJ/HCj3cBMMltYmDA+tNkLyrZDmN/6BablnEvHw0o1iWQLhpUxquOA677ryZu/EwUADLpUQMNaGjgZBxCXKqYpcoBxUFd7RhVKYDXneJSgCzPPy7oEx2cQ4njfinH78+Cfxfu12IdZrANwHbJZ9cimXsmlemxSMOefEmHrxeWcH3kXS1B+R+JlJJ7JZBYWQcWLOzGp4dW+ePgEDqYz5W4Xr9ATWqxltZ0GsxTAgBqCuDe2nWcWWK3u/XzFEI1Vdm9Sp0AAHDG0NZRlQ69NPL7wyXe9CNDO7+TFbe/YRyu/WbC/SI0a2brmoWTmJT1TrZlUQLIIiFTlhnlKksD0pMC6b8XUwEIL0MyvDJR9uf4j2Uo4mJc8Mn4aQz8w8V/0b+xEkWA/VEAd01+VaIAaXK5yetHKTn6In5/eKt5LKCFkwCcAYbT/GI9BhYJ5WvyxZkA9zLgq8N9epmrnEwKav7JbwF04MCCiT1DhH8GjqPo5VwbDAxr59FgTT6DlugDQF0H4MNW2Uatt63K4b5dQTDHtU/hsqGs49MU6xN+iAci8Y3vt5+nfHanD23lVVfxb8aNACRoAIA99bQw5LIUAnAiNC0gy+PP+mt1SYF4bICU73hReI3eWIH4gGSGhhQPAJLD/kldAQgVlQ2aAjCpdv1XcSuOh6AuHtr3mgDjw3cpMfyf5fc3sQGEbQBOwhy2YW0odC/3nDQivj38bcLFeloGj02HdpYJ+dEkizyBQv48GbgE/9cMue+nW+j9Wo1Nc0ebmKEGmqzJtBr6+4T/W/WLlLavLAKg39RWDpS3LxiKINA5xcWTAQC/HW/i029q343HK57d8/QvDuE6eZFisuFb6vUaq0sAWMSJEj/nnorcMUDAEo4lFgAWJwLVJAWyqETZCvs4JASdAfG/y2HnuCRwUhyAFYqZJHmq/VAAt2fB2+oifFlEAdKG+sbH9SaXAkYfAYTNIGzEDE7CHDZgUyiIHwA+JBXJuKcPyKOaKXFMcrZ/z3JpAFIIaXi8FIWEgEjk/i0Y2I2rh972exxGofkRW9cdbaHJWtRgGhv9NkAazpG1/6AkDF+0ekujX69cB3DqUA7sSsXzSCYlv6/cjXFje+DV9u2nqhYA4nf0XeMWAQCiJYAM2ilbtVxY4ljBcoI3nEYEmEI0IH9SgPxceoqgfI09Yp4/xW6vYRV4Jk3NSyIO4ThA8C+lDM4aVBQACGoBnoVbpChAGMbDsQAgqxmQsBZNbEALa7AOszgFDXgV+Y2EHnz5qpEfIeLpJ411qgLuszVxwqoNFOsn8er+LRjYswrwD/RgSHUI6bZpHg1XCQCalv+Vng7v/3/h70rt+KvKe9iVHviPcb7S9tcN/tNuP1lxh9emPH+wxJt/FI8b8OmdpLj9xcOWKOqLAGxlESdKSgKcdEp+h/oJnIAVUt/LzmZThldeTAJYrUSwH+Av0zooh8iTC/7icQAKBeWHSQFaYptn42Ycz/Tzo7p/BGANmpjDvOjBPz3Uc99AEM7XQqCPUFlpGO6TvPFi2fs0X57lwH1aeitIfwSAz2KSSZ73f9WqiH7ZWEEX87nXx/p51mRNarEGa4AJOeDRNdu/LAcHWb+Gvy+x29v0j5Y6nyrt3bhW8Vwv1T8x4OXcorj9IylxgR+2O8oDNB878OvxjxS3f2hcSHAz8R4qRVw3nJR2yw3sYRwFiXYsVgjm8yIC1dEA+bcyd7wy8M/hiCbAJNCP9gJQYtxjeBQgSFc8G1/yKUB4RXksz382NmMdZtAQfQ9aSGNPk6UkRUVEuB8fiTUjqnCf7d9nwX3a3vHIEUlUjSKRL1fzr7dq8A84WMIRnJFLVNfMQUMTDTRZU2vkZPSmgAC0X6YKogKgPjoCq3NIeY+Pt/fo3xjoMX1YDf4zZie+BFeoetztX9VvHejZXah4ldw1LgRAS3CDQtHY9Vs15FGAQzjuy+LkecTpfy+yHyVIzsZV65O36DfumTxANhoKd8fAOFhMmGaXFDYPl9D1c3wsBoSJs50FKHuQ3YSGBmYwj3lswnNDQuTJeX/3/zqamEEDM5jDLOYwh1nMYg6zmMEsZvx/W5jBDJricRMtNMWP2y7pHUvDb6D0ntf8YwyOtyERDiZto6XsGRAS+T3CWzBpNVisv4BFkjzh68qChR724MpVk/x2sBxJ3SRfE2vnqIEmWmIB8ln9RFv7jaXg/3f0sutVaQRA/5rySJoBawK2X6XYnPjGjLP7Mn5d+QD+daBnp5ryuXF8vgla4v3CvwMytuZkSvTVZDsiKgDy/f0sIkA5RCDrGUpsUaOQV8wr8P+TJWrk93TgwMYKDqYAZ7LYDeWUSQ6WAjTQQAtzmMNGPBfrUwb8hEP/Fr6PY2DQ4OKK99MU/7XQQAsNNH3oZT7gsxBgh2GZRSC9ergvBv0sFhCLRnlcyd8eduOKVZz4QehkDndmUgSANVgTTTRZY+T7AOwBv/5/lgLefxmZ9Xmv8h4nD+5g2v8DVynt8PrsQb76l5UP4dHtVw7s7H4JX1Hc5d3jSQASKrJmGnObAESKs+IE4IS0Y1QoJh3qSYkIpMUDsvcLOrbVx+0ml8DFm9u8ETAEW2SE98BK8PuTSABFQvf9TY8sSwGaaKKFBSxgI57lRwG880KC9A9g4Xs45IviaNBENKHh+/VMwH4YohsCnqP+fRbcaxEojycasr378OP0V5VfOS3R4H5qDhwYMLBrVeEfIKxgJfNqcK+BhVlXpJI1mcbQ0Ppmm+Pr/b+hZOvfS0aH0OhfgSrg/fsAl1RVjW9f7hY3KR/D1e0LBnR271Lc/pn6d8c1AhDx/4FzNzItv1foMJZjAdMo1JMyFShKBKgQEVCZgEop3r8M+/GueCa6wQ2YuDMG9VSABFAF3U/lKEBD+PFzmMN6PBNrQzGJtDiAhe/gACw4/pikMOxoCGvzBT67RwVkwM8G5rB/L8N9IxPuk0hEdg8ci3UjRKsi3CSPCWOVvX/XOjie28/HMNtsaNRgTTTQYA1iI14FcNUAX/u/Su31+qFq6udTgE8rE5/XDOxgPqh47PlNex8ucRQnDejsnlP52Y0sAQgnPBnYWZvDYJJsx9CJDAIu6/f3ExHIig+Qsm+dnHKI+8Rc/J2LOXAmDHwHncTMf9ooHe/v1bRll48CNNDCLGawDr+INf75JXcBQFCAb+JhWBESEBbodQG34Wv6aZFUgBaiBsXC+UlwH/Xvk+E+jRxosSJWlkIAOWyYMNHDLlw2AuO+u1guclWwTXNoUssN0zANU2olvf836P2p6dkjcOpXtJ83oFdW0xl4oMA2ZZoBf28g18svKu5w23h9H7QY9IfSAFs3FtEMXRJiJEW17FWy/fl/owSoj9KCQLalHPxHj4GHAIH7OvAGOtiDu1L8/axCwOQSw2FHARgYmmhhLZ6KNbFZfxQiPl4i4Ot4SKIAWphBhvT73ShAEvyGYbl49p5FagK0yDiqONyz1Hx/nAHLn7937g4c4f2PBvwDFnqFiOOGObFMTcbYVEoBty8tCf8v1T81gqfzVvUFGMiqPldxh7cX8KK/jVcoH8izBrLKpylu/7fjSQDi2MHAoG3dXCR03oMdaQAs5nHn+fYqiYH8igCt5B1P9vwDCOShf73gfxf78NVUf58yIwHVxQDKUoAgNN/COjwFayKxjiS6QrBxOx6EBVtQAAqVkcQH8mrSO4cLAocH9yxhxVhCU2lU98ABh40eDOwYEfgHbHEcLONqYADWzmoNJmonmZYS5phs+3ipvd6pf7aCD6l605X3+MgA4P/piuH61+uFhuTo12Z1CqQcy4sGsMrXKG5/eJwJAIvixcYN8tPpQUgr5RZKBUoCUQDuqfA+lBIRKKYESLnwzyXY55L/b6CHLu7DDTBzQB8Jfwl0AaiiD7YMBfBWSkMLLazH07AmRHpIqn2Qfyx8Fftg+FGA6MUEaVyvJpXYhYkHU4R7KME9y/lJvxK8z4dLff+jA/9MEACWu93aWTSo4Y4DZoxNn/9f7qv1Fv2fRvN89JtLeMnV27k4W+moi6dSHlA+ls+1L674mnmF4rfk5fr3xzsCEGAHA4ANm+QsQXoEwClUUdRPd4B6tIAqgNM0+OeSR+gGhA10cB++AAvRwH7a/+N0gFUG/2UoAHw/nwOYxSzW4QKsifj+cfh3KcCteBAGLFgSBZA963CRaDgCIB9PUvY+Ge6zw/lpAJ/+fPqV5ZE9ByZMdEcm+B+OAOTZ3Aw01iANDdZgbNpUAErC/xv1/6joQxoEBVDWMqgaIKFaUqng1ZcqpvtcpdfMMxT9/6/p143b90KLCQGHUGJ+fbYCgEcALGk0bjFgLUoF8vr78/5CoUEuav5/EvwHNMD9cQv/eujgPnxegj8qQAMQ8/mrrc1SowBehtsddtzEDOZC5YDRGAAiFOAWEQXg4HCrJFhKLIBFwDtayy8DdRTuUQjuE6ZaJZKGpGs7HCviPjGyYMFEFzvxqRGCf8ApeDTzLWJSecV0ef/vLLXbG/RPjviJqY4krrgKoP0MxR3UJuTdr3xA1epHblPc/l3j983QEtDCv3syNremyIuYcKQd1fzusqoBaskBKtFiF4d/JGb/DRhYwb34HAxJbChc9pfe/keho6t6CFpxCuCei5vOIDTQwAxmMY8NeIZoCqTI6F8eIQYmvox9MGHChhO7DsI1AYjV8XtwXS6cXwTu89ZH/txksuMRPbfGY8eIwT/gZLqXTCIAQgpIg8Y0TZueGED7T/D+Eru9pcLSv0F1ARxQ3P5fK24GVJwzqKtN+vvdEp91laWAn1A8u6+N33cjvQaAAYzNr0u/VQZmCQIQv4GqheGL1goUowLyEbDIEJf8KEAS/HMp809+4Z/r/V8P0xdC4j4R4AkkJy0WwCtNAKhRAO9obXHErkfeRAuz2IBf9nUBKFISGKUAN+EBGLBg+9GS5KOJy+wGRGBwcJ9P9yBFekhK+HjB/50jFfwvQgACm21BA6MGGkxjGpua8H/7T0vo5gGvqyj4P1AroU1whXLVfpb9s9LWDyue3efwJuUj2lrh2a1V2ro7jt8OLXZnDj1urQmqt9Nvqy4ByJcAVu0OUG0JVC8ZjAN/vOc/DP9eRtgRoNBDB3vxWT/3T/5KBTRAjgbwRBpAsTlzw6UAHvi7UQDNl+lpiVqAZ2JdCPR5YiUAwcQX8QAMmKkUALGWu/SxwIOD+zTKF+16cEAiyTOKwX+PtjmFPv9WEwwNaEyjKeoBaL8N7ymx21v1yys9jMEJG71j9SCy/TLFIPmblQnOJ5QP6rLKzu6Fiju8YZwJQPyuwQBgdqHIXcKWRgEXA9syZEDldShhFkCxIsUwCYjDP/dD5W5I2IN/ikF6EA+QowHJhIgkyeLhUwAIQmMLMR8tQgHmsAEXxmoB0ijAF3C/iAKQNEUwnQqE/02C/CrhPg38A/jnoWJI22/wHE34d2WJi9hMkzFiWoM0xpg2HVJA7feUa33TPzY2p3iv8h6/W9l7qxUhvkQxASAiMcqfeSWjeNsXQrWgb/+4E4DYHFXGWuvyR/wg5bZIhTz/4rEBKkgGkp5nkmee5vlH/f80+Hc1/02YQvbnM1LjHxJB3YWVeYkIJGnrDVKZJZsCeEoGXJTuhdvwmpjFLDbg2SIRwFP8f+5TgM8LCmD5zyWtdhT+WURHsD/Az2/0Q4iyJsG/p+9gojey8A8ggwDIa9zUoKFBrhbAVOT/27+NPy2x25/oY7Qy+o3KnudTKlpdxSbEklLK6nB+WvvVFZzeuYoFhS/Svzn+EYAwNogIQL7/XLTChfqaDdBvXCA7pSD/nzLh3y0IM9HDSgT+KUYEgkdtPC1UHRAnDO5vw6cA8LUMHHBAkuD1isa9KMBzsDaBunCfFnlnYuJ67BUUwPHrIMKjj9M0D8uBflG4T4r4pMG/J/proDOCpX9q3z8GoBmazMRUhmOMJ/z/IcpM73tI/+vxOs9VUyn8+6Gc3e0ldqpiOLBaDGiP/oXx/JZoqQ4ZwFoFA4UOytxNsumAqohQNhngQI73HxXrTff+HTEGdgV7Bfwj0feXnzsTT0e0FgAIj9vNgsVBUgB3ioEjCEBYhd9DDI8CPBdrQ/4/D61+UCFh4LPYgx5sWOJ1KVEYOUovi0K3OtyTIvxz8TmbIxz8hxRTyl+xVgMMjGmSFtMke/9/Vk6UVT8DE2/tt1XyMo9S2vpNpd9HvW9hw9CX9B3jei1kAvyWhdxNBAHoH7aocIi/HBmIK59EA9Py71nBfzcjvIy9uBZGohcf/TkTzwiNE5YTAyTdwmmA8J9GAbgQM7L88r8oBWj4HQFz2IjnY12kSY5iIAoQDFyHveiKpsDo/AQKjUKiAkfO+q7xLw7/jvD+Rzv3r0YAgIYm4F/zr4WJJQHtt+LPS+04loVcymoAH+m/GbD9AtXISukYwFXqUw+UC/ii+ysmEfSbxvWbkqYEyMCA9TNqN6Ds8rBBRQeKkQECTxjumvWqScF/yw/+34tPw0RS2D9aSNjGhZgRCaV4lICFpHUGfUeOUwBviqGX/0+iAJrQBZjBHDbiBaIjQFZEhN8xH0CpiWuwBwYM2LBhp5Q+pg1fjlK3/silmvcP2AL+e2MA/0WjRg0NjDRoYKIJcHLh/y/x0VJQw0Zy6E++Pai8xxV9v6daAuDV+pfLv1WJksx/6PPsrsSUmJYC/wDA1s7GYaM4wGQDbBl9gHw6kHWDZBnQHy3LS8/9u97/Hnzaz/2n5f/dx2fiIsxjFi0gtVQwvvTDogCOgH+XAsSlecOJgBnMYhYb8SIpChCOBSDSEXA1dqMn9AGD3DoijZBImJY4SHjM8/6Dyv8dYwD/xTtH1jQZg8ZY6blY4wH/78D/KbXja8f1jPUb+wiwl1vjN+FxCpsf1a8e8pI8pv2WPs7uEsUdXj4ZBCB2S9g0ryKhqzJutx9KQErtf9kEJWnQbXru31P924tPw8gJ+7uv2MazsYAZtNAQYruUWCrodSoM464sT23ksP0KAAopA8QTAV5HwDw24cUJFIAkKA0owFXYJXQB3HdBJHYQTg6U92+r8v7JH/fbHQvvX8Wa7kRmDZOmAhQ+nQ+WuUx0pl8xvgugfwLHFEHuVX29oZpI0tv7PsHfUN6jdCNn+/mKCoCvHb8JAGkRgLB7yBqad8vM76Cv5oatTgjStk9+vtgrJgf/TXTRwxL24BoJFtLeFyA8Cs/GPGYxg5a00Mk0AAXnFVZ5v+TC1/X8f+RSgAZaaGEem/AyrE8gPPHxwSauxC700IMlvGuEBirxhPqA6iiAuvfviMr/yYN/YK4JjRg0gCbX/z9WZi99/FURVKcdDLPYcbHvV9BLXAkvLvlepyse2hXjfNloKdjAAGCt3wSYNgUuDq/ZW6reyvuhA0l/Sx78Epe4jcO/Iyb+7cU1ob7/tMgD4VF4LhYwhxk0pWl7yVGD1XGZHAn+vWezKUDDpwAbIxQAfisgj6RFTFyOXejC9MWB+JAogHru310Ra0xy/8rr4UstMjZJQkC67/O331eqAvySCVgEVZD9h/aLSpMsxWSJ/pW+P+EvqwsC4bSSb/ZRTJFl3QYYS5Wtraq8r5/gPyls7Z1qsi4dRTz3OPzb6MLACnbjahiZEO79fhYuxhxmMQNXd4XFUgByEoAPKfwvUwC3zc0LzbPIIIi0WgCGJpoiCvAKiQLwyKxAuTXQwGXYhY6gAE6EZA2KAqgH/73Sv85Ewr/H8WhimwDbf4X/rbxTT2f6f43/ues3Ku+yvfSbqSUA3lLJ+V2urLX/f4ey8G8e7+umEj+gSC13OWKgvk/2UbIM3x9+FztCuX8LNgyYWMYeXC1gIf6O4d/PwsXC+2/543Yog0itgjcolf95sxyLUACvJdClAK8SFICnDDvivjSQGwUwBAVwBh4FKAP/DuwJDf67NqORp/PEGJu0QoD2Efyx8k7v1ucnZgFUkwD/0H5lqXV+A2YVNn97ZUOV1JsB/+fgoxt4ZDIIQLQ/LBEmi1CAqmGqyiQAEhIWFPLCXUhwJO/fFDnhFezFlVLlf/o7Es7GC0TuvymAE9Kon6TOgcGLAUdNhn/H/+CLRQE00RQ4j814DTYkCAJDeuSaicuxU1AAxydXg6IA5Ur/3Ma/XZPq/aPJwBgmrwOg/cH2u9qETSX8yj+bnFXQ/wnHFXcpESRvPx9q8ZI9lZ3gAeU9PqBa6th+juIwoTePrwJANAKQcFNYO4ecSvewoAsqyPpX6/NTSJE/Cg8UIgIkKd0H3r8j+v534UpYuUSDBPzPYQGzaKGBYOx6WrNgWKtgOOZ1/1uwQkKyKhSghRbmsAmvwYYYmeEJswBNXI7d6MIU4kCDSwSUU/2zhejvJycU/hHS+ZwoKeB34N2lIHPSEiGq4eh/KvEeZyqu8c2VEZxbSuz0LsXtz1Xa2tA/Pu6XTGYKQGtQDviWDdRXSQ6KvC4lsJyw70+RcbduM5gDAz0sY3eK9x89Agjvfx5N0TjnQif5NQDxPaJjhIfj/1u+Uj+PYIQKBZjBPE7C6yJRgLTP1hS1AFZIILhqCqDu/XMh7tyb3Ny//AmzSVYBULC/nrQTGko7mtp0xR9W+t7qSg3nKW6vVjcwAcWjuTUAhKzqfiRqvPcH3kmv3e/rIiS5i4R34ZKSPffH4/TEyJ8w/KdD3dn4NawRjX9B8Z+3zJRROxAdlTNY+PfC/5Y/x6E8BZjDJrwBGyQaxVPPQu4IcAZSC1Am+O+p/u2YAvivoV/Y7+p/MoFnpTgcuKKpAOn2vkoJzhXqUs0qzYCq8w1LJCVGmAAkyOcf7wAqU/RQmghkv3b/0QMWA9fwyF8va82F9+9m/3swRPDfTPH3w8+cjRdjDnOYFf6/l/+X77tZKZTh6LOS0P/zKvJRmgI00EBT1AJcgo3SeqabSwE6IhHAK44ClK/8704B/BNL7IOdRvsj/YMTeV5/o+rPt5UgVbkB8KqKYxzqUs0qEyFPVTyar05BBKBIESBFQDVvKkCRn36iB0X2g9S0xkP+P0lyMCvYjSt91T/KPIJz8GLMCdlfjwC4P14lQDJtgOJgnH6NiwSA6/8nu4XFmwIbYkzQJlyKjbnw71KAy7BbJAKqpQD9iP5OQ/CfgkaY6Y4D7NPfN6Fnpl6TrpbF/jelrV85gDN8WHH709vFuyPUSOFvT8IFoyW68AmeMnJKAKsGrn68/qQ9WUL4HqH8P5dKwkyR+9+FK1K8/+jxnIuXYAHzmEUDTX/sOhMtgCwhBhBd1+EkZr2Qt+VP6euHAsjSQCfh0oKF2GZIF8CuKBFQZuSPM0Yjf/q3noPagPfo7Uk9Nf0L+B3FXRoK/v/bsKDwyr+lf3oAp/j/Ke/x/oJnp6pXoE/CFVNQB6Af6K3O50cfr0F+IV5wRnH/3wEXvn8HHezBFZL3nxUDOAcvwxrMYRYttEJgqUkUIJr9R0KVwqBJQJD/t2Plf+WiAG4lQAtzOAlvwuaCFECuBagiClAm+M+nJvhfm+z/T/LJ6f+CntoeCq1yagWAgwHIEnn39usLbPMSxekBr9NvmEQCEEInw+KJE++qLdhTJQ9lXwMSpESn2Qf5f9c7NrCCnbgsARaSXvdcvBzzmMMcWmhCE/X/miS4poUIAI+MzHFflw0hBUAh/T+KQX45CgA0MCOiACoUYKdUC+D0RQHK9f0bUxP8jy8UTWv2X8nnHUtTHb1TUPu+/RJFKvLFAcU4/h/lnbYU2OZRisdx+WRcLFoWlnbMImNqhn0nKUMSWKQBMDq5zoUE7neDd7Abl0cG/qbZOXgF5oX33wjl/plEBLSMs+CJxZSD8v8tvw0PCetUhgI0JGkgNQrg1gJ4FKBMIiC9MTOv9M+cOvg3HUCa2jSttnWyT09Zea9giBwnK71qb2Dn9xHcqbjLPxbYRk0T4Tcn5WrRYndNyVbMdPDFKsrYliEJCPn7lND05xbHuaV/O2LefxrJOBevFN6/XPkv1wDENQDj6xY8M8gUQCD/YyMtHVy+HFATugBb8ObCFOAy7ELXH0hUJhGQ9unnl/5ZU5P798we3sDJUbY/b78Ttcm+fbGYgdqQnEsHeMDK+o3tqgH74CQSgJhT37OSatWjvpccuB7de0vWWCPP/7dgoYMV7Ip4/5Q69uccvAJzAv5bovyPxWoAKJICQKqawGArABy/+M9Bej1Y+SiAJtQBNysmArwZAdVQgGKiv+Ykj/xJsSVbLBCfchLw/vZbJ/r8/l/F7T/UfnkuhKp14L+16gbAUAzgM8q7/Gv28bcV6Yr+2cklAFKV2sGVrOx/HovIuj0DqgV9/dYXQOoF4DHpX0dU/nfRxQ5cFiv9S5bwPRevxAIWMCvgPxDI8eoA4ANksgah/MqDVgFwJPnf7HLw8h0BbhRgoVQtgEdN8ikA5UR+srx/t8hzsuC/2PePx5tPptcme+Trfcp75NQBtF+sNgFA/9iAz3CnOgXIOLuXKjZDvnlyLhUtC6eXjDD4pkG1Jm1VBNapsCdXrASxyHu6YOAlQXko/O/4c+BW8NPE0r+kY/LgfwYzaEXC4SwCkK4aYBbJGbQOIIXC/3kp4PLqgN6kwC2KtQBdQQGK1AJk6QBkN/65+g7WhHn/xQiAzTHaebuhWvtPJ/fc9GvwRsVdPpDz9zOUXu3IwE/xL5T3yJr6qCYA/LvjPwEg6d5B8X9X7PDtNO2m2wCGJmNbDvzCYfdw/X8wB66Dnbi8ICw8Gq/CGgH/DeH9hvP+mjTdj6UQGC6NzWEVRDoy/L8E+Z9BRAGCMUEqFOAyMSy4uDogKXr/3Jd3mrzgv1boO+A4AAMREYi4WKDptfe0J/js9U9W/IIfUtr6DwZ+flcoDz9G+6Wpf9o24OjDuEYACGYn2qeetGlzDGoAvCgAD5UAOhL8d334z48pnItXC9mfFpq+8A+TUgCB76/50wDSXk2enTeYJECa/M9gogANoQugTgGCKEA2BUhWVQSygv/OxFb+Nwp8/oBDDMQZBxExEo2AUx0LKDMvfmxMEYSL9MoXtmFo5KvD8FkpZ/4mRfLxpcklALE6K6uTXK8erqVvFvLBV/cH4H6nPfmKf9yH/2WR+y/m/b8a8yL335Qq/xuhFEBQA1Bk/FpYpqhqS5f/GQQFYKWaAlUoQHIVBWXC/+RW/jczgd/717BBDETE4cYBavtA+/cn9twOKW7/yfavpZKDS5VeaZ9+4xBiHF/E/1Lc5f0pUP+uaf4KaLG7BSSMJGPZu6XyBAEbCt2AKKMKYPVNLgAMWgDdQTAGuqLvv7j3v4AZNNGSZH9YJA7AIqOAUaA2YrD+v63g//dDAdxEQBNN5XLAomOCohUngDzeKZ775xPd919M2cayQcRBjEKhlOm2fxj4PLzVMvU8fIoeQPvFiiVyvzGkM1RXdExWSDhb6TUumazLJDoLINTTR2SshEfVJMNLK9TpPqoWjP6BVABoopeq+pfs/b9GVP7PCPhnPvizEAkIfjzgrEIMubz/ny7/M4gogObPCNiiTAFcaSAnlQKk92VQavB/ckV/WU4NgHddmQ7AAE7BvOZJoQD/rN4Z7ttH2u+YRPzXPw9bcZdzU55XU99/nX7zkM7wGvV92rHiyLaabuLv6f81WdeJlni/8GmA0cnrviYATVEGWN39pPoUAJdSAF48w8v9Z/f9yz+Pxq9jDeZF8L8hNfyFoV8LQT/zC/ziuopRFYDq78nh/H8ZgClLAZpoYqb0jIDkpsCoJkD8X55Y+je5I38aaBXarme7C8K8GMDk2B793SgP4x8cQhTg1auwKm9S3SFl2O+TlWB5mBK5b1TeI5Lyab9KrbxR/8Ck3T20GPCHKEB3OX8KADCDhgJwVTUYSA0EAYSAxPWJe77sT3Hv34N/FtP901I7AXgo1JJcxgapF6BKswvJ/1RPARpgggKoRwF60oyAcFNgOBoQn+sobxVMdzDRm9iRP83MGpzgCrNsv/CFQESYmCJA/YOA/qE+xrN+ZAIvC+ifwu8p7pIgktx+3Qif4SeVZx+eH/n9LKW9d0zeVaIBi+Ekakgwz1jJ1gF0f2bRBDIkbgcd6C5GKSjU+MfRQw8d7MYVit7/jBj50wx5u9Gwf1j8R0s8TrmmYlBtgMXlfwZDARoiCqDWEbATXalngRIoAKT149IzlFD535tg+C8eAejY3qIRjfwwICWPud0CAP3Demn23P6jiaQAqv5qkma+mqqgNeRTfED5kw6XDr5Paef3TCQByMLVpaPx2sB45nUu5INUBfbFBYBUYgBcFP/1YGAFu3FlqupfWvC/JVr/WMTjD/8Whsbk8sikNVWJaBTZLqj/d/qK+5YvB2yW0AVwBYJNmIKshX36APLlChUe2QK+6K8x0QN/m5gttF3XAuccnLwowCj7/02lrX/Lf1Q2EfDXqmKwAz2fVbP2W2JPPUHpBd4yZIrzBeVd/r7tTxNUnm942aQTgBhOHT8uh1XTwN1NAZS/m2TBOvXxClFw9YrIvJKw3biiYOPfdrwWazAnKv9ZyO+XSwDjeX/mL3MRIqNVfE/25H/68//7jwLMlKAAu6QogCOJNofbOLn0yIvvkGjw9HL/OyZa878h4m9535BlS0hfcBBxmqQuAP/S1D+k3Bzm2cfbvzWBF4eqJM/H2q8KEQK1CQB3VC5AlG9HlfcIdP/OxNRb0pRa/xHxQ8fi7VZxX3QOTQV/XN2D7z8GIIf/XfjvYBeuTIWF8Ku78O/J/jDJ+0+a/adFav9ZgfPgfoQiSAT0X6hdRv5ncBSgTCKgE9IFiDej8shsBy5p/ltTAf/FIwAdAxwOETg4G3XlrqbihR54ae/Hu0u+54cHmO9erQjAw8p7fFCC/1coTgB4yiqc4dvL7th+uXyuBex1k3j30ELYFHt85BgSp7CFc+tr0cq8k6iA9SCqBgIS43rEPXSxG1cVmPgHAI/xvf8WWlLuXwvFAFhCBMD9jUuQnv1+WXJBZVahnPzPYChAs0QtwOXYLVEAuQrAkbL9wSNHIgK2mO7w04mf+DeD+Zx4vnuFnbA4gcNmHJwTG+2ZAH0Apv5nipndwD7VftlkXRv6FVCVOjpFeqxWQ/C2VTrD3ym564eVtn7HUPsbVikCEKMB+46SP0InfZb9BswXgLdhgH1WAgAgPyi8C1cVzP17wX+XADRC8M9CKYBw/j8MkqzAseaNuSnr/9sV+f/9RwFayk2Bl2E3OtKMAC5NT3BCzzhSYsCr+zcU9B3G1+awptB2RwxwcOaQQw44H+0EQF/NMPof4W9K7npthmL8OEYAoP9jHzufprT14VU6w39R9v177UvbPZys9C4fmsy7h5aFTMT3HQvXXSdD1yasKTTNriqwL0Y14hX3tpgDvxtXJ8BCUrHjdrwOazCPObRCkj9arAoggEItlP1PHwcUfi+E9qrC+pH/qZ4CaGj40kCqAsE9XxeAYk2B4TQKF0WDrujvjon3/gFgAesLUETTMR1v9CVzxwGVZZbj4Pn+celdPzFxi3G/IjyWDXUfW7Uz/E3F7Wfx8YJ5s4m3uBSwlPQnOm6YJ5Cgth7eaSPW+pXXlAHXVQF9ESoQJwMe/O9N8f7jlQ6PwetF419TSNtG4T8s+ssiYJhOLOJHSaHa9v6tX/mfQVAArxxwXlEaaKeYFOiIAj8K+f7RHwcGjImb+JdFANbkxI0IhI4JgMMhDoc4OXzSxwKXFaRdPxBlwNXsAvhzxe0/1X4OoFwACP0rq3aGgx8+9I5J/ZrEUwAIO1XLh7hURZ98k9mItbFAdhnYz48QqMQQwlu68N/FXlxVEBYeg9djAXOYEaK/WiL8RwEPiAf9mZhEkEVcvEkAlBGZULH+5X+qpwDesOAZZQqwSzQFumRG7v+PJgVsmBM68iftk5jH2pxvAQB0THBwxmGTAxtgEz4JQP/3Ejpxrn2wvWuiVuI/lXf5UvuS9ivVCgDx0lU8w88N/C32Tz4BiMekCQRaOhIIrKR53FuwXjSwqcuLZcF5ddUEbvi/iz2J8J+c+3+9P/C3ESn9Y7EGQDnUzxJgMUqL4u+8XxAsLbJ+5e7TvBL5n0FEAVyB4FZJCmD7FQ1y65882dGleTumBv4bWIf1BbZcNhnAueMWAZKDiR8FrH8SZWf9ba+8EmB1dQDuUt7jE7haaftL9c+u6hn+3kBf/Z36p6chApAgBky0dCge/I/C7DZshKYA/kVBvzjcFwGRLu7FNYmV/0ne/xsl2R9v5E8S/Oe1/nkCvyyl+c/7MRDut4g+hpLYsl2R/M8gKABDUwwLVhcI7vkdAeEuAJfwOP7In8umAv4BoIF12JwxqMsnAIa7SGSTTQTOp2AioP6P+NOSu16nGgAfafuzga/0f67yJ/0BZcUDlVf/p8n9joSnAUbFgDnxo4uUUgMQPL8Z69CQBFlVQL9IwqCc8l/050F8unDf/xswjzkx8Y9leP8sFO5PrvZnBasWOJgYdhNfQ7W2bVn+Z5BTX8p3BGilmgJ3wBAUwI7k/ckf+Nubisp/2bVch3UFroxl02dJrhrAxEcAAED/q9LadP/VfkulH9NqrsJ1ymVy4/dJ/8PAXvqtk7xuGgAsUioe88OH04LWwTMMC5jLqcRPA11VwlAU8KP2EK6VhKqz+/7fiDVYSJD9SYZ/pJb/ybBICTEA+VgOiRI3hMbcZJ1v+l/k9r/Bjn3rpxagiZZiU+AV2IEeDFHbwEV9g3e2lpD9mSb4B2YxU0A/knCsBwcOs5kNtwmQpmN99P8ovevHJoUAANAH+urfmOhLaP8kn1zaOGD/Z99+D6SyatTXYF2OXHARWFcvHSy6vY7rQsH/dNuON/qyP83M3D+L/MiQyGJQzVKTKF4KwFs7hnBBRtj/zz/XYPyPPYSpr/1QgJkSFGBniAIEDZ7uYOedhSc7ToqtxUyBYljgcI84HDjkQJ4FMA004DVlp7i1nfbFk0EA9C8N9OXfNxKf8zsHtHZfmOQvh5aKvm4joHPXgzymAxCHsAXRCJgH+/2CfpFkQFJ4/Y4MWAgH/y/FgpD9aYZy/ywV/rUYCYhCYrw3Qn5f79GdsEOtlNEBQUUjIY6o/69S/mcQFKABrURHwJXYKXQBLL8Q0BYE4Lapg39gbaGGZk6LPXByyIYNm/pXmR6nGMBV+s+UvjteNyERgEHab4wIRD4ykFf9yWR/O7KEgDgI9NAJczlpGFC4a349NkcaAYvCvhrk9x8LyCIRj8ElmMcC5tAUPyxR9EdL8PzTgJEJn55lFAC6P/v8Hncg3glQ9G49KPmf6imAJqIAqrUAV4pJgW4UwD3XLnr4Km6ZOvjXsD6VAMhRpCWDuxJA7pI5fNSnAVZtZfO488HsuDG3Nw3sle8ZFaKHHw3gZf94sr8YyVLAFBQBElYOB6FoDiS2sm3EKWBSnKA/2M+HfOpDESDt79vxRixgATM+9KvBf7j+n4UiAEnJkejjR0RYm4Ni0E8JRIBS/P9hw3+/UYCmskDwVaIp0BCFjgZ6uB23YPpMwxYs5E4BAJYN4sRhkwWbHHKIK/LKcY8CfAx/WHLX/9v+/kREAPYN6HVfr397ZD7m6sH6lfqN00MAEhLUxIkfeZgnyAGHd1uP04HMbVR88362KBo3iP79MbhUqP610EQzFPzPgv+kCgAkwmESCZIf7xMytnIjRnICIP38g+I/e6gEQJ0CMF8guFliWPBV2IUeDBgw0EUXt+MrmEZr4BQxhyMrBgAsGd6QBLLg+MOApycCAP3v8b9L7vrUdv914KtOAPSv4JUDeeHFEfqMb0LF8ZrJ7f9PiwDEJPSJH30kuV5fBq8WTo+UuRX3+FW8/X7iBlmkwM39ewN/G6mK/9nwnwyG4aRIMpEhEE7g4ciw23inRHYMgPv+vzVk+FenAPJ/rjrgrFIU4GrsQhdddNDB7bgV02kaTkGjAI4f7YKTTRYs5sChaUsAuDfzv4NRctePtp8/9hEA6J/GngG87InR+pArfbWj03AHCaMJxRL4zv4Hk2V+w5utFaFIKtTEVsSbV00XqJCCaN//m/y+/yYakVG/2fAf9/HjwEgxIaDwUXg6i3dJte3RSYYoQICGIf9TDQVgIfj34gBqFOAa7EUXXXwLt00p/DPMi1HAed+Rgx23OIRscogTB00b/AMAXl16zxvazx53AoCB5LP1744U/lcbsH/n5H8lBAFYTCvw5+A7H6CQ9pq8kfeYYxabRRVAv8V6KgV/pPAa6X3/l2IeC5hFU2SlWajuPxv+w9K/yccS1fhPq1+4R0jcUMoAIcSGBlPE/x+G/E8VFECTKAD8SYGzmMVmXFqYAnwaOr43tfAPNLAxF1nc6+ahFTjMYRZMZsEhznlF87fHKwZwfR8U4OYJIABVD+w9iueN3Idc5diexcn/TmgZuCSqAO5+KKwbknzfmMW2lGE22fsVhXSUDPDnzRDcjkswj3m0ROMfE1p14fa/dPhPB/4ABHkm8Adcay8sOKJ7nxKgH0iv3Bqm/E91FMBdbYg4QBOzmMNmXFKYAlyLr2J6rYEtiW080SujZx0zwcmGyWxyyCY+rSumX42Xl923/Vtjf/ZVc+XX6jeN3klW9kpv1784XQQgcCkl/5/44W7nsPREip+9gDY0P06g4tEXze336+snPbcZb8Q85jGDGSn0nz71L13xP+v4WcqxxvsBvuXP7+MFkwDeM8OV/6mKAriDlLxywAYamMEsNuEFBd9r2tr+om7lqZhJ7WwJrq9jXXcaFllkwRQ6gNOZBIBevrP/w+3y/m5jRE7/bZWu5U0j+Pl+rvQUyKjtnobvg5bqqHsRAIf4UZ2k8jTEPFgOwgLOFnluHuER5YAdBf39vAhBVtxgDX4T80L1ryG8ULlNLe6tqsN/8nigtOmFPxEjb3kCG4tWYUT9/+HK/5SnAIhQAE36vSlqAc7BU1BbPqqcnhFbDq6Cw13i5MCCSaIKAFMlBRSBCFZ6dtyN7d8YwgG+eoCvvQMrE//5frKSl3m9/uXpIwDBbSEYtkbkHHo46E5PGws8g3MACbhUoFsd+IvHALKO4IXYLDT/GkL1j0Xy/3HJ3zT4Zzk34qxxysFR3YWjsIQiYHISgBIHBTmr1P9fhgJoIQqAmDxQEy3M4JmYqRE+lwCcVmAOALC4IiIAJlwdgCmYBJgJER8oTQH+rcyg4PaTFAM7gzvzr5VPgcRsdOclVlAHoF82Hd+F+DjgwM3kLvwT1+8jyILA4SC2+3+GzViXORGwnx5/VeAv8hrb8ETMitx/I+L5s5Tsv6r3H/bFkrskwiGXb/t1AHJ/AMAzYgBB+d9owH82BYCAfeaH/2UqoImmwA14Qo3wObYW63NqANzrZHEFNtlkMpOZcLgduvimlQKUtevaLxjwwQ20YLDCqQAHRvbjfbC+N5SLAERdZPfHvns3hSAIiQH4GZwCzacJxaFfVTCYFPQGKHF6oftzIVqYQSvk+7tLokkQVQz+i1YDpB1L8Pw3RRLAiURTCPHpAJ6tnvxPGQrAfAqA0Np6lMtrC6yTAHk4cVKx1DLt68BhFrPIJBs20XT2AESAkJWu8f5Cny2Bq0oAUFXn/ndGN0Suf7ZvBf+3Tx0BWEyOUHM4xH/8MDd5RqU+ieu2jVkpUlDU6y/6l3TgL0Iqose+FueFfH+WGAGIDvuNwn8x4JdnASQdj7yyB/EDGJIoMElRFYrFC8L+/yjBfx4FYJE0gLzWDTTRwCkFewGm1eawTVxVWTEnwnHDsmGTBYNZZHGHnGn2/SWYOKX0rjcP9MAGTQB+s5JXGe0e+T/sc//7pzcCEJoFAAInx7SP7uPSJIA4rHIQZnEuZiMxAlWvnwrAPPW1t/fM6WiiKbX6Mb+lj8UoAPqE/yyfn2Lg/i2YMGGHOiq87aJJGBLyP46IAYxaf1cyBUAI7qPpAIhKgAZOrVE+w+ZxeuYV6F0lR7sgOGSRSRazyJ5aGaC4la4Xb1P7wrElAFV0t79C/85Ik7ub+xp+9JJJnwCQTgAoTgHIIb4oVQHEQwXe7eZRmPElg7Khv8jzaeH/YhGDPCpwihj3q0VC0eGAP3K9/3wSQAhGAmeNBPJ+uxO63wvAERZhkrssPEoQyP+OYns3S30uWhYYkANPjeEU1JYVATg18/vg2ZEOOWQxEwYZZFMwCbCOAXwSzy2989jqT+m34ZK+X2T0s+wP97FC10/Pd0DLcKODiYCWvhep9euBnYIF8NQ0gSr0l4sYFI0BnCYFoBHy/eO/JY36KV4GGLxGkr8fVl92/70WJmxYcEIEi4eg36vTtGH5o3GdkbzEWE4MABH4DyIwm2qUz4wAbCywFeFABw45ML3LhCi1mGT6KEAfnmL7lQM6qMGrBu7qe92+OwafbFn7xjR9A7REt0FKALhJgN17KRSQTvK+GTbgZGjgqVUC+ZSgyDPJz6umDph/8lFNvzgNiGv9q3QBJAkBJefzvX/vxAMwRU1/EAMAwr0AbvufWwDo1f+Pyx2dpcRQ4itfWxpKbM4cBBx8L/UlOMwki0xmk02OJNRRG/RPlN716vZrx5MA6N/By/p6gT1j8dH+z5L7fXBKCUBCGaCPPt+61za9X5Ng2P3/LM7EQmKAO/nWpEoGsoA+H/jTbpJxQEr2+8vDUVTNL5o6Cfv/AOHT6PmwLqswhtc1XP43uk4dy/ktPE6Z1ehUwBZwKrRUah1c+cvmEQM2LGYwkyzY3NP1JlBkBsi02qtK73lZGVWAEYgAAA/1tfdvjMXnurckPbpmeiMAwf1DRh2H26Z1+F6PETgZ3msba0OKgfmeOxTD/WpAn00hqHAeH6X9/+iiRkv4khIDwE/wAHoiCeBEagACkSDbV/+zYWdGW0aTELDMLeokdZatwylAAYHtwx1wONziJrdgChXASVvavrTz9Gtwcemdr2v/cvUEoP24gccAvtfHzhfrt49FbOfGUtTu16frPpLfBeDKATv79wRJgGRVQIBwKtaGigWL+P15Pj8K+vxxiM8iFg+hfDO06h4sMV6SVRYIfBKG8O7dqAuX2gK9D8f2KwCcvo5vtSwbvjj21zifQQA2Z66fZ/uXyCELJjOYAZssx5nAEsC5PqHiS3hJ6Z1vbz9nDCMA/a3WmFgJX/7t+pXTTgAQiTJzcHBy9uxMkq4Ne+DAVqwPTQMoDvVVQn9+1AHY7wY3QFKbHlUC93mgRzEykJQI2InvoAdTJAG43/MfkABLigA4Az3m4QF/+Mo6XuN8qq3HhgJXGuHBZThkMZMMmGTCIT76JYDtZynuMN83VFzfR1b8S+1fKOgBjBIBeMFUfE26its/MG33ES3l3hxyNckh+3s7kvrSo4GDk3AGmglEQSUOEPfW86GeFKDffXaf6LWn0OCdMERHny8LsBTT8Y/n/ePRgE+hB0NM9+OhGgAOV/3f8ku7i5VdjgbgU2LAKfw3DgdOP508E24z2IZ1BT5jTvoybJhksB4M2EIGeNT9f01x+/UVeIuf6UPb/jvtJ1RIAOaHUf2q34hy9QvjlSFX9CH0G6aaACSqAboxAOf+Q8sHORzfC00CWUITZ0pVAOVC/qp7FSsVjD67jO+K4DlPkekJ4Km/iClLmASYB/4E4Dj+Cz0Yfj+ArAgQ9P47Qv5ndClAepkaJRArEleYjQM4UiN9iq3D1swSQO8qOtLp2bCZxQxukgWLc+mSHt0SQFVBC6MSSPxUHzv/pH1eZeczJHqmf7bUbh8aqy/KtvpeUYZrh8Gf4HCb8/07IEoAo2Vs7iMXmrZgY2R+XTqs5/nrZbz+/EgA+Yp7lk8AwvAbfXVKPJbidzNPCii5/x+pSZVbcSd6MIXGnzSgUVT/mzBhSu1/o0gBKDMaEu8V4SK2YU9XO66ibRTfsrw1f2QJDixucgMGTO4Q53z0s//6LYo7vKeiN76oj33/M+NvHaVXMkdU0AMAvqZ/bYK/Vpdg6qzIMCDuJgHuvZvH1ADjkHsytoZEbKFQm5/+exL059GHNOj3b474Nkz0YITgVSYzlPDOyV5s3hKzRPhDQmV/2D6MRXQFBXBi/r8tqEE4WjFKFIBS/NOopyqvhAMbNo71r1YyscZwcqGoN+HBJXK4xUzWZT2YZDsOMBZdAGq520MVEY9b9fLB9yenVwLoO5XqWQ/qu4e0ys9X3P5+/Znj9D1p/7biDg9N371EywxE+TEAcsj+/l08MWQd3ulUtNFIhbQiPns22FcB/Z5dj0Oi394Ojd7h/j48JL+bF9VIW0gWAb70sH/UjuOf0fEpgJ+PgQULBgzRKBie4jw6FIBSn0mmkI6vbWjgZpg10qfA/wxOx8YiIkC05wRZsNAjAybZZI1DCWAJX+xQhe9cvq1vNuNvb1Z4nT8e2io/KHUPF7FXj9P3pP1a/IvSDi/Tv1ITACBJDoiDk3X3I52jXKQAkFgHQCDM42wxEzDf71eH/rIB/+QbpIl/xiF0I9P3AEQ676MBa9UbdlJSIer/ptku/Cc64hhtAf9e858l8v98JClAWpQnGvXgIQrgnttduKtG+lRbwJmYyZwDKCoAussWc5hJPeZSAB7LPo2o6dfgFYU3vrnKwTT61/FL+GapXZcz/rZP5RCGtsp34kkK3Q8v6ks9YPh2meJqfGYa7yURArAYHgbkiwHDIYecxR3kC9Mkgb9LDLZhk9+4ltUJkBfyVyMPRaE/7G0fwgewiC4MvyeAItl2HvH/KdOzTQNCkgoBkxsB0+1WXC+O0CUqtp/996ICo0gBsuA/PnPKBX8HFgz0sA/Xo7b0r+xGbCogAQQ8sgwHFjfQox6Z3HZsLuXmRlsFUL+2UG/+HrxQf27F7/xN/ZfwVGVlgLv1OzJe8y48I5MgBHz/KfrOIa7yXfpnUKTp8nL8jP6Fif5avWY67ybNjLu3LAbskEPW3rvO+sXAM2YpjXLrcTb2i50bBcAnG66Kgi2V3OIQ/hG/j23wqvVbfmMgE8BNYOD+3ACvoE81WRite1eJw14DJu5HLKQAaIm/c2jg0KRjix4fDVlXPxv+ORAiWV5qw01sHMFVdfg/8yt7Rma0OVhx/Tg53ISBnltLSnwsmgA9cLq+/WysgZaSptTA0MHBwYyl0X+AH7SfgS24BFdEVuvV/n2zKR61cCb24i9yXvFb7WdgE34f58Lyv7jBHbgF4E78C47pdw99nb/SfjrWYw5viyCC+2gLmvhd3KvvHa9vSft1ijscmta7SbobEakC4PY3f/QrsaB4+IZPYNiI8/ADWD5NKA7vedCf/1x+XXScsBzC+/EH2OpPoWuIGgYHDVAIXLMoQPo9NRg1RCXA37WrAbwEAMGGBlskALg/zXC0KEA+/IdHGzt+X0MPh/Hvdftfps3isWLiRvrKu/IdO46TBYsZ1CUTlq8CuFpBIXVoumVV3/1bAD4Xe/ra0q/3EwAjKaKrfxsAJins1n4hFJs6pzH/7/Lo5LtItArAIZvsXftPPEx+4xyPydu4v83iPMxF6uoDThEFhSK/Je0d345SPf/kHLwcBfg7HEDX7whwQskALhUDlqkFICmeQKWTsFfjM+iigx666IkEAI+UKY5GIqAI/HPpmLmIaRjo4TA+VsN/ji3gcZmRNe8qO7zSs2HDoK4bAeBOZr1pbbVNjn1ecfvXTutCxQhArArA/yGLnEd2OL44QFrRHsMGbIOWoheQB/dppX7IIAT5MwTytj2Ev8cBdIWynicSXJQCZN9PWYr4j6pdg2uxjCWsoCvq/3nkyEaBAqjAv3d52bBhoodD+Lca/nOsha1YyGze8eyBE7CZRQa61IPBLcfG2FQA1FZbH/7/KxV3eLN+RU0Akt2I4E7twCHrrju8KvkkCPdgaAaPlzoBssCfcnz4sn5/sq+fvq0cBfCG6zqSAG86BUhTCQhTAJYTpShKAT6LZSyLo3RCR+dFZFaXAqjBvyMqGmwY6OJwDf8FbA6PznXi3b8/cJw4N9FDD24KgHNe+/+1TYF9UG1z/ePTu1Razv1cKoXnDre+fidxLrTneKKCHYGjhadJSYBi0F2V358O/VnCwATCQfwt9nv1UqLlLp8C5ANrsa2K2bX4ApaxjJ6IU4wWBVD1/iE0/wwYtfdf0NbiCcgvcyWYzt5lsmCyHrrkigDZwFhoANRWW39WCwD3SQDiOgAOONlkHVk+uJdL4I8EcRygge3YFJsHkC6lWxz88/3+pJth1mvJJMClAB1/Cp9TgAKkAW3c/6/mrns9bsKKICnybIbVpwDqwX+38a+HLg7Wuf9CxrAJp+WqdxGAh487Nkz0eJc6dQVAbdNjbdUhR2+sCUDIFuMTAcUdm2yyd30vWiRHsRs+0MQ5mAvBpVrYvwhg50cG8qSD4o8O4n2hcsD8KAASqgGSoh7V1eDfiFvQ8ecEjkoiQA3+RWUpLJjoYUft/Re0ebQLfX6Ee0/AYRb1WBddGGQ5lvxlqCsAaptQ+P91XKe4iz7N65XvTMhaADY3v/pdCvUAhGE1UAk8HxvhiBt/GriXAX8U9OaL04jwo4N4H/aLSntLIQqQBaysYtD9Mm5DDz0YIk5BoSNbDQqgCv8OHFH418EOfKqG/4J2Eh6TUfIqrTz99Ci3uQEDHfTIoLoCoLbpsMsVt3+Rfvs0L5eWeUcPx2s5d8jevf/YQ9wvkEsaaes2d50n9AA5kNIumA/+pAj+ZbaME4ZF/I1PAcwCUQAkev9Uae4/arfgNvRgwoAjdSysFgVQhX/uK/73sBOfqmV/CtsWnF2g/I9wcOWECQsW66BLPV8DoJyWdW21jYv/rzzJYcL1DSuKAHgzaBwyyXrgRzw27Cc+3GUDzoCWCJXFRwTlxQWKgX/SlmnUwn180KcAVm4UIFkNIQyOgRRQtRSgKygAwV5FCqAO/46A/y521PCvYDPYhoVMBQDPHjgBh5noUpe66FFQAVDDf22TbI9R3P71075giQRgMVre75MAsrn54zvCvedpzX6PxRZfMSAdLspm/IvFCNK8/bxXkqMA+bUAPLMYkA3ovnsLbkMHJgxY4JIs0HApgGrpnyPBf+39q9nJeFTBFsCdR7nFTepRh7owyHQciQLUFQC1Tab//xb8m+IuB2oCkH+HDybl2tzm5jd/aq5wfwxtUpbf/TkH2yKdAPkjfvoN5RfZEoWeXcRfCwoQiO4kUQAkFgQWkSeuggJ8FV1Rq8BjRzYMClA++F/Dv7qdhtMzxa6979qxnr4CGwbrsg46ZJDF7Tr7X9uEw/9r8DHVfVZXbHq0CQDFSrY5ODlkGca93+Ohgbnxmz+BsA2nASHVwHzwqSbjnycDRLmUwI0C/FWBckCecBTD6713EwFeOeCwKUDt/Q/PGJo4NWcKoGcPHIMDEz2+Qh30qMdtzusmwNomGv6fA3U1v+fU61YkAkAS8jlkk3HnD0jUcsfBM7jHzGI7NsMpKO6bHidQB/+igI+UGELQFPhe7BejeK2URAASIwHRRR7cKJ6gHNAOTWkYPAUoI/rr1PBf2jbjUWgWSgDcfcSdAcDc4RG2Y8vgXycAaps4+H81vqS80y/rX65XLoUAxKoAgjJAm9tfucNYcWBLt3iKgTgHoY22FCrPBv8inj+VBH+kUIK0xETw6CD+ypcGMjPVAXkI/sMySYOtvXKjAIY4vmHVAqjCP/nef135Xy4C0MbWQgmAZfOBFW6RiR5W0EWPG+RwXnv+tU0s/D8PV6rvpX+9XrnsCIA8EsinANwm0zQf+gn5Wu5phYCELdiOZowkpEFJfjAflYF/kt+fnDpYFFEAtxwwORHAE4lFMAeQpGkAg4wCuHEKZwgUQB3+bd/7ryv/y9gczsXaQgmA+47AhkVdWuYr1CGTLMdJyNfVVtv4Q/8F7Ve1CTeW2PV19erlEYDkqYAOt7j5429TpBUwCWzX4vE4KWMIbp6ITjlh32Lgj9SCxChBWMR78Ag6IhEQLweEtEDJUYWqhYCSKUBHRClo4BSgjPfPa++/r6/pSXg05gpIABHuOQoHBnqsgw71yBAKALXVNmnw/yx8G1eV3PnBev0AoJn2h0XaypCYBIDFzZvvuLizsMDF0N/4zciFAw0nYxsOgydmwbOFcqii7fKeLbL9QbwXf4pt/nNNcVPm4l+WCobBq7ABf5C3APgV8T4tOOLI3P8ADg1MfA5eTIJix13sGFUn/kGo/rmivzX8l7EWtmFTzqfi/pww7l3mJhnooMM66HKT2zzgfnUFQG3jCvdPBoMGBg0zmMdG/BvWlX6xF+lfq1c0kwD4mBAeCczhcEczTeOB7z32QgdaCEjCnggDYR2egr3oCIBgiV7LoMCfciE+7S/xLRbxXvwfbIM32kemAEz8BB3/FJkPQH63wDAogPexMgH81VKAMhP/bF/zv4b/craA8zGb4cgHz+8VCQB0+BI6ZHDTcaSWndpqG3Wgfybeh404hC5sAB8Hx2/7N7Zq7JJp1/8rSgDCFID7EwEsMr7/ze0Xav6fWOhWFPi+s/gF3IIVcDBoiAfDqULwV/Pqi71X8NsB/CXeJeZMzgJo+BRAkxYqugLBGCA2hA/zFgAX+kBuo1F5FKD8xL86+F/eGLbg8eJzS/9M3O/iTw5zGwa6WEaHumTWCYDaxgr+L4Lbm/9Y8cTFA3iTe+t19iyjBiChE8BN5tqwHONrdy8f5XCkzDcljv/djEdjJrSNfLsqAutFcv5pfQZZDYB5bYXRVzmAd/vSQNFyQB6RTYRUD8CHUAMQUABXGsgciDSQeu7fa/yr4b8fm8c5WMigZsGVd7jzcBcW9bBCK6zDemRKGgCoEwC1jTT4P6lNGLw0z0P6N+q1LkAAJHc24tJxm0wy936LSxXw8UJACPi7AJsSBgdDGdazgDv771mDiIqBP4kowF/4ugC2p40UKgoMZI/CADk885oCq9cFUM39k8j9133//doWnFcogk/YcwQ2XAngZepQTyQA6g6A2sbB/nYI7/EQ3lovdHECkNgJQDZZjnHb7eF6+CRFQA7gidgaSkKW8emLAXcR8EfK9unHIh/PIv7C1wUIWu7Ir7ynkOytPB6ZDe0j9cYEWbDhVDYmqJ/cfw3//dnpeHQuLSMQON3hJgA6bBkr1OWGPwOwBv/aRt+eNYT3+HX9i/VCFyQAkSSAPBXQ4saOfQd2yV5vFBY8CGR4HNbHfOPiPn3SrS5vrE86+FPh7ZNq+V0K8IhEAeQ0CA9JA8GXCWZD/lBlaaBqmgLVvX/bl/2pS//6s004RxTipFEA72ff8WMGTOpihZaxwrowuc0luc46AVDblNsbavmfchGAcJTb4TaZ3Ljzdh4T0QWiZXAcF+CMWJQgyR9HAd+/CGwnvQ4VyvpHb6lJx7OId+OAPyPADmnwk79clKtbOJwogCXRk7IUQL3xz/Zz/zX892uPEgmAPP+fcOch2GSgSytYRod63JJEgGvwr622XfUSqBIAhCLbblm3QzY3uXHzd3sdWwSZHWnoTzSDfiq2o5GoFVgu658O/mlNgHmRgijFyJ5LsChqAXp+sR1FFAIRSgHQqlEAT7yonEBwdsKmhv9h2Ay2Y3MB/X/CsnHPcW4xgzpsGSuuAgCrwb+22lxbwi/p36uXQYkALIaRM0gC2GRxY3n53u9CsAIkgr/36HE4LaFALs27RyZcFwH/tCZAlZK/rOI9NxHgdQTYfqZd/oH4j6/SRxtEAZyE6QVFKEBWsWZ67r8W/a3STsdZKbGz6Ce047Bjw+RdLNMSLaMLg9uOtGudAKhtmk1fr3+zXoV+IgDyTADObW44vW/c5vg5Zp6YDHBB4Ww8FuGegayQPjIoQl6wv796fxQO2i/6TYHhjoBoMyCAzBv4MKIAXtsilaAAat6/rPlfl/71bwyPx6kZn4X0BaU7DnMLBuvQMpbQ4V1u2U5GGKe22qbJLq6XoCwBkElAIAjskEW9H+098oDn72YVAq7DdmzIjBFk+f55/n4e+FPhen8qBP5BFCDoCAgAloey7tE5gasTBfBISr8UoIb/4X45N+Ps1AkAYW6unzjcg0Vu/n8ZHTIdq04A1FYbAOAX9S/Vi1CKACxGFW2FIDBsbjsGGXfdHgzFCfv+kEYDA2fhnNjAnDRfu2jgX03mJys1oAr+cQrg+tiONB6Yh8YgrZZ5UQBLaDjlUYA8sMnW/K9lf6q0BrZjm68wmen/465DsGGQmwBYcYcAOUFhTp0AqG167en6d+pF6CcCEC5u9yWByeK9m79pG573m1YICBBOxlMwn6gImHVjy/b3kfgYStEBJNYlFKcAbkeA4c8JpFgEwH1NZ5UpgBunyG8KROrEufyJf67ob537r8rW4eewPpOSet+0rnXXMW6hhxWcYCewQj1uk7Pq7LO22lbfnqd/u16E/ghAOALgJQFsMrlx7Pj9P/ACA0B6kH8Gj8fp0EL58GzfP8uDp4KB/3yCQKV8/3AU4BF00YUBO1QEGPQCcJDCQg+GAvTQg5WSCOASBUiKA0SfTxb9tWvvv1Jr4gxsRzMT/j3bedixYfAulmmZVtAlw7Zl+K/9/9qm0i7WmX5TvQx9EYDFsNB/0PPmOJZjcOM7t3IBK2mqAC4cbsYTsRAJjef7/uXAH4UJQj/g71GAvxQCwYbQBZC5UpA3Wc17sEcBDCENFKYA4ekF4Y87nMbIEv2tc/9V+/+Px5pCCoBEPzzELTLYCi3hBFaoy03H6wCoawBqm1arM/8VRgDChYCOKAQ0efd7Ow7dz/1yvyjQBvDB8D+wJXUuaZ7vn+0BpUN+saK//mwR7xbqgIEwEA91AyA1kztcCmAK/UI7plvII7CP2GNIVKGG/8HbNvx8gZoMAmHfif1dmKxHK1jCMjrcqAsAa5tyey2eVmf+KyIACYWAvhqAY/DeD77k+BGAaPlfQAMYTsK5mI31DETBO8vLzy/6Q27RH5Uu+suiAO/BAXTRhSnJ7vBQTcRqm1cLYIlaAMQoAEk0jlLoAELbu69Sw3/1tgbnYKGY/4/v7YdNJl/BMpZo2R0C7BcAok4A1DZl9ms606/Q/7teiCojANFCQEfMBbR478vfXTnkjcd1YiAuZw+eidMiPQPJSn/Zfn2x8T6UEV8oW/SXRQH+MjQsOIBJR4Dm6puXCAiaArnvxcsFgXEp5GhTo1z65078q3P/1VobT8sRAPJ+Dq3sWuIm67EVOoElVwKYagWA2sbPXlDBaxzH8/XP10tZPQFIigA4cLjBe2bnJ7fykAI+Sb6vvPOjcB5akdmAiNGFbDhXG++TNeCn2nvjIt7rdwTY0owAFqqxHwUKYPpdC14JoNzBgJB2QfjT9D45x78M3Il/deV/tTaH83BqQf//x4twYPIOrdASLaFDhmPV9f+1jaHtwAtL73sDno8LdKZvrKf9DYAAxAoBgySAzQ3e/dJXjY4jtZhRgmfuvsTP4Wx/qyRZ4GS/HoWgPZkgRH2mqn3/MAVYlNQBXTB1gBFKx8qTAmUKEJA3R8r3c4kKcCn4Ax/+TfRq779y247HFfT/l40fHOUmumyFjrMTWKEON21HLgCsEwC1jYfp9+o34CKlXQzcipfjIp3pL9S/qH+3XkNVaypuH1MEJJubvHfs+M5vPPE5GjgYIMbfRmGbgUPDuXgidoCJojiWCvTIpATFtkmaUjgo8A8owJ9gq1ikhng3PlLO2C0AfgXwPycNXHw6TPBB93eWEDehUGrDFgSghv9qrYHzcVoB9X+A8JOD7gQAWqITWMIKGY7F+KqpT9dWW3+2HxfhcpyMR9CFDYj/gkeAjRYYOvhnHMey/oN6yYZCABZpK/PxjIGBw0EDDiyynJ7Wufnmn72INTRwaDEQJgErLgV4HB6NexM1AMpAezHffxjg71GAv8If42QBkx6g8pG6GwcUYBaEBhrg/pEGwB//FCmkcugF/2v4r9Y0PBbnArkCQBwcpvP9Q9yiHlbYEp3AEnW44dQjgGob3yjAPbgH2+p1GJ6zUdjWeMjApB8NGmlaQ2us0GPP3Hg6gyYAhCHcDxDYehjYBSfByyxGBEbT9w9sBXfgyZgFiWiIe7M2sQ+jQ1bvhYYzweDmgILPgaUmY+QeADf4b9fwPxBbwHOwXfpmpMUACIS7Fu85Sh22RIdwAAfoCJ2wO45NUpHNSr2gtdVWW0UEgIFJFEADg4YGGGtqrc7xn7sQfhg5GX4ZgAbmsRfHpBcrF/ovGh3IUxOo3jq4A0/CrH+GDixYeBCjFK3yKIAmfTYUWbVwF0CgAxBo/u/AZTX8V2pNnIuLMJ/q/8sFgA59/v6VLq3QMRykA7SIo3zJMW2rbgCsrbbaKiYAK14MICABGjRoYKSxptY8Ypz/M2u3MN+fZKnwOwcL98EES4kBqPn+eYoCwwV/jwL8EE/CnFgFN18+WgTAowAETfrEwiuZ1AxINfwP1DbiV3Fu5tUafBL3Hf3+QeqxJRzGATqAw3Tc6dom8aDtpPb/a6uttkoIgB8DiCUB0ABjmjajWY+5IAgTROE3uKkxrMdOHJXYxHjn/dMowM9hFgwQBGAfRq1exYsCMERpW3zmovu7KwBpowejhv8BGMM5eDZaQKEJgDfcd6LLO3QMh+gAFukILdk9ckgqOakJQG211VYRAYjEADThPGpgxFiTNR9aevL585u0BF8yPCRYwzyO4EFYIgDNSub9R9H3lynAj/BzmAXgquXtwx0j9/GHKQDFIIYShkDU8D9I//8CPDYn/+/96Me/sZ/32AkcoUU8gkM4bndsw3HqBsDaaqttAAQgFgPwSICGBpjW0FqN3vZfYAgoAEssBCQwnIz7cCCUApgs+PcowPmYFZpJD44gAXApwBmSB5q8tlwkMjgs0fdfw/8g7GfxHMwVyv8TbrjveJd36DgdpANYpKN0wu5xh6QOgNr/r6222iokACtYwyKFgH4agGla68ETT3ny/AY5TJAGyGvQwQMwIj0DSeCunhwYBfD3KMCPcT5mwGHjYfxwJC+Be8Fweqgck+B1L1BIBsgRor+7cHkN/wOwzfhlPLpg/l8//vX93GBLOEKL7AAO4Zi9YtX+f2211TY4AhBqBoTUC8CggbFGo8V623+epZb3eXMBGQgbcRAPIi5G2J/vP/ya/3wK8EQ0YOPAiBIA4D5okvBMeAgQ9wc/WML7/w4+W8P/AIzhF/ALhf3/m+4/2uErdEL4/4f5ktOt/f/aaqttoAQgOwbAmg+deOqTZzdosaKyuCrAAoCdMADFXoBRLftLpwB34nw0cXBkCQBwHw7h0ZLIjzzz2YYDCyYsdGHgZtwCp/7eDAD+T8LFOCNX/sfz/7+2nxtsmY6wA1jEIo45K7bpOIECYO3/11ZbbZUTgKwYANNYU5thve1PQ6yxLKkWYAFLuFeSDpqEvH8yBbgLT8axESYAwCLuxAI2iLFA7jAjjwCYsGDAxIP4FO6pvzMDIgDPxPloFRsARDfed8zN/x+iRRygw7Rkd7gtzQCs/f/aaqttYAQgKQbQYBprsOZDJ574+IXNLNRdTojLyzDMYBa70YnEAMrB/6iCf0ABzsBdI30pdHEPdsLBFgH/NmzYAvp7uBM340tYrr8xA/oanoYXYHNm+F/q/z/+jQPcYEt0hB3AARzEMb5ief4/av+/ttpqGxgBWAmLAiOIAZDGmNbQWsaJn316uAiQYkDtUoANsHEvnELdAFl6gKMN/y4F2D0GofNl7Ma3sRsPoov92I9H8Ah+iG/jy/gRDtffloHZOjwbj8/ZxicA9Ll7l3rC/z+AA3SITjhdxyKpALD2/2urrbZ8a/a1N4kJPxwONDhwyHJ62sqPfvqMn57xMxxAAwR3RmC8QI+B0MAzcA92+xOGisH/uIT+w2aMySVhQoeO/66/G0P8Ep6LC8BSR0aFZZl3HXm4yy3WpSV2DMfoBDq8Z4UGANVWW221FTGtzE6L8eFwLgmwuMV7vMtXbrveTUhyREP/wQ3NvV+txy9hk7j1BWNnkfIIia8zDvBfW23JxrAVT8dMgfY/Dg6b3/4w2dTly3ScH6djtEQdbpHjj/+pGwBrq622QRKASAwgVDJOJu86K/fs2fdjRxSU8YiX7kE9Fzs/Ceei4U+az/b90zP/9T2vtvG0GTwO50lTF5L8/+D/dx881IPBujjBjuEoltDhRu3/11ZbbUMkAKEYABcicQ4c2NxyerzDl2641jKDlrJ4xj6YLtfCBTgFTiTQmQT/lEAjat+/tvG2M/CUjPA/Ql+0jnXbI2Rzgy/TCX4Ux+gEdWyz9v9rq622MtYou2OsFwCiGbDBGDTWWKEt86ds9/7k5fyTfHXCZixjH6yMUsAs37+22sbX1uCZeFIm+Msk4FsP3ruELk7gMB3AAdH/bzi2/LWqCwBrq622gUYAEmIAXhLA4jY3nI6zdMNNy0e4SANAmigf9WsADRfgZ3wJmmz4p0g9QW21ja8xnI8nC9nlNPgPim2Odr97hCze48v8GB3DMVqmrmMSl6Uba/+/ttpqG3gEIBIDgKQHwKAxTdOo1bLPOl8DoIES+wDIvw2uwTz2oAvkigKh9v5rmxj2vQ0vxrYC17GL7l+8/+AKuvwEHaJF7MdBHHM6tf9fW221rQIBiOgBhAkAYxpr7Dv6hCfMb4DQ/o/K/Ya7A9aCYZeYE4AU8B+npr/aasuzeTwPj0GzqPzP0dv3k8GXcZQt0n4coCO0bHe5RXX+v7baaivphFRh0VJAi1u856zwpa9c4xCPBPeTCgE5ZvFUnAMtVgxVw39tk2ktbMfTMFOg/I+Dw6FbHoTNDVqhY3QUR+gEVpyeYzvRzFlttdVW2+AjACmagN5kQMYaWuNwr33KptO9LEE8AUDS7muwDjtFGiBZEqgG/9omx7biZdiayarlK//OxR8foR4t4whbxH4cwBG+5BhOSP+/9v9rq6221YoAkD851obFLafnLDsnbviMZdpSKWDg18QLAp+IJ2FOUgSo4b+2SbU1eIqYv5gf/vfb/3q0RMfoCB3DMnUc07IcHtTW1vBfW221DTEC4McA4rUAGhgDmNY02OaFUx4dnviXXse/FQ/hsGgaRA3/tU3s1+48XIzZzPC/TI2/vu/+JXSxRIfZARzAIh2m5f+/vTf/buw+7/tfz+diJcFtNs6+ahlJtizXlpfajmXZSlK1Wdxz+i82bmInp03TtHV6vl8nTprFPYl3uZrRaBYRCzfs27338/SHC5AACZLgLBqS87x4hkOCJDADgHi/n/UT9TTeiv+x9j/DMD5lAzBSBtg2AgMToE6cC8TdL7/5dmZGcSOtgJNe9gQoEPFocD7gaNlATfyNE4OwzDvcPGD6fztPVmn9+SPt+5Zu6poWh8f/RGEcW/ufYRjP0QCwMwfAVg7AIeCCOOhVX3l71B/oPi+Nl2hwd+uqLOo3Th5pvsVXcPv27o22//3Z3XqXttZ0XcuD8b9W2CNWb+N/hmE8VwMw1go4NhKoIoJzQaV9+dziJbe1D1D2/QfNUGF1glkwG2CcBByf4R3m90n/j5a7PP9c/ucN7fmGbsiqliizofW4Ew/3/1v8bxjG8zMAE1YCjc4DOBdI6sHKm19OZUejetkjAwDzzPLRyFIgE3/j5CBc4A+4vM93jLf/1bvfvxf3fUvrukaZkq5RjdthGMej438W/xuG8ZwMwJ45AIcI4pzrO7rX35StAT/ZJwvgWCbkIf2tKzT5N04Ki3yHL8AU6X9FUf2LjyttutpgXcqUqNj4n2EYR8oAjPQB7G4FFOdwLlip3bw+d3ZnomAvC/AKD6jg9y0WGMZxI8Pn+YPBYqy94/9tE/Cb9R+vas83dVNXKWpZK1qP22E/jkeP1rD43zCM52gAWnu1Ag6WAjknqUr5jS8Fqe2NQfuVAYQL3GNj63PDOAm8zHeZ2Sf63zn9/727Yd+3tZ50/1Oh6ptxz8c6kv63+N8wjOdqACaWAQbvVUQQcW2f49Lt5HCgg3IAMIfnE9oHfp9hHBfO821uHbC3V0dMwA/vP2oO0v8VSpR1XRtRJwqt/c8wjCNlAPY8HXAwDSCBc/fXXn89v7D9hf2kXThHh0dElgUwTgQzvMOX9zn6Z2f6/171fxW171ta1VVKWtJVrcXtqB/F2PifYRhHywCM5ACAsX4/EQEJXLBWfuMr4tyBZQCADOfYpDTxhEDDOF5keJtvM3NA9X97+r8X/+Buu+/b1HVNyxSpsKHNqBsPt/9Z/G8YxtExADtaAXflAJxIUI/mM8svCcNDCPaWdgFmOctDqrtWAxvG8SLNy/whpw6YZxnp/uevH31Yp6tN3aBCkQprWou74dj2P4v/DcM4MgZgrBVwvBTgRFQQF3xcuX17ZoGpygAwS4GPaG9doWEcP4Rz/D4XkUOk///7J9r3Ta3pKkXKWqEWt8L++PY/i/8NwzgyBmCfA4LRwUYADcql17/kgunKAAFLKA8IzQIYx5YF3uOtA6v/293/zf5/utMLfYe6X2M4/V+P+3G0tf7H0v+GYRw1A7DHRgAGZQDEiWtGGX/5duIL9EALkOYCNcpENg9gHEvyfJVvkpmy+q+o/rePV9p0tTFI/5d1nXrUHZn+H5htwzCMI2UAdmwE2FEGAHESPFy7eWPu9DRlAAFyLLNGxZoBjWNIms/z28wfOPzHwAR4flb5uzXt+ZbWdFWLlHSVatzqDw//se1/hmEcVQPA6CzAaBkARCFpBkw9WnnjC6nMdGUAmGORT9jcsgSGcTxwvMS/48IBi39huwCw3v7+x3GS/l+lTJGKbPh63IsjO/zXMIwjbwBaoxsBxicCSPYCiuvSq936nAhTWQDhDGk+pmMWwDhWv1xn+D1eHj21Z6L8bw//hf7P7lR7dLWh60n6nzVfi4fpfzv8xzCMo20Adm0EGC0DICDiJCg3z86ducqUnQCwhOMusVkA49gwy7/hs1M3/ynK3z76RU17vpXs/qesq9R8K+57S/8bhnE8DMDEMsBAuVVAnBMJ7hZfeyNfADfVQGCWM0Q8HBwQZBbAOOrM8C2+uu/qn1EjoCgPan/xSEPf1iqrWtailNnw9bgbjXX/W/xvGMaRNgA7ygBj/X6KCDhRVy699oUgkCnKAALkuUSdMrE1AxpHnhxf5neY3Vf+x4f/OuH37nT7vkPdr0tZi1LWda3FnZ3pf4v/DcM40gZgRxlgx/kAIoggQTOKmjc+M/rF/WP7GS6wxjrecgDGkSbLW7zPwoGd/9vV/1j//KOVNl1t6iYVihR1jWrcjvrqt5b/WPrfMIzjYADYywCQLAUCEQlW6ufmz1we7xjcfx5gmRIbthzYONK/VK/xe5ybsvkvefuHlZ9saM+3tKoVLWlRVtn0zagXW/rfMIzjZwBaO88GYCsHkLyWiYgL7hRfvjW7KFPmAGCRAg+oWyeAcUQRLvN7XBnN2u8h/2yZgHub//WR9n2bul+jREkqrGk96o4c/QtY/G8YxjExALvOBhjbC5hMBDhB7q+89mY6O20ZQDhNloc2EmgcUZb5d9zGHbD6Z1v8PZvdP7obhb5DI16XMkVKuqb1qBOHUYSl/w3DOI4GgJ3jgGP5gIEfcF1fXX/lcyLTZgEClgl4RM+yAMaR4zS/yxcIpmz+83j68feT2f9h9b+kq1R9K+7HkXpb/mMYxjE1ABPOB9z6XAc5AJGNbkYvvTR9M2Caa3Qp0TcLYBwpFnmHd5Gp5V9R/sfHdxqD2f+KlihRYd034l4U2dG/hmEcYwMwcSCQsYFAdSLu/vqV5cVz0zcDBrxKnRKhWQDjyDDHb/Fv8VOP/imefyn9eFX7vq011rRMkbKuaWNr95+36r9hGMfWAEwYCGTLAjjVgR8IPnz42uu5WWH3YYK7Sb52myYPbDGQcSQQsrzL+zCV/A9NwEr9Tx/4ZPP/upYG8l+LO1Gf2Fv13zCM424A9uwEEBQRQQVxnpXia28GaaaeB3BcIuTeWHrBMJ4PKb7NN8lNceYfDM/9a/S/d6cb0o0bbFCREiWtUPWtuBfHsbf0v2EYJ8AATOgEGBoB1WFCwDWjTv3WG9M3A8IMy/R5ZFsBjOdMlm/yDov7jv5tS3/S/NeL//RupaNd3ySp/q/oKptb1f+R8T+L/w3DOLYGYEInwLYdUN1aDlhpSXjllembAaHAZZpUiM0CGM+NPF/lfeYPkP/x3n/V//7xb+r0fEtrrCXpf9nQetQNQ1v9axjGCTIAE08IHNsPICoi8nBzPrd8lTH531/YZ7lFhQ0iswDGc5L/L/BdZg8h/4ryt5/84zrbq3+KlHRDa3Gn3x9E/4MfMvk3DOPYG4AdnQCjMwFJGUBFRMTdqVy5sHCGqZoBhy/AN1mlYicEGM+BFG/zh4NDf6bv/f9Z+a9K2vddX/frlChR0lWtxu2wN9j8b9V/wzBOkgFoTW4GHLxAyuCsYHEfPnrp5uw8uJFv2l/Yc1yizic2D2B8yghf5bcPrP2P9v57lHvVP31A6Lu+zrpsNf9pa/fmf4v/DcM4EQZgz2ZAGbxIqqhDJJa7D1+9nc3L1FkAYX7QDohZAONTI83X+Dbnp5b/RNnX2t/7KArpxQ3ZpEJRi1ph0zei0dU/mPwbhnGiDMCezYAyzAIgoo4+Dz95/bNBSg5RCFjkIn3K1g5ofErM8DXeO+DMv9Fjf3wy+tf7ozvNHj3fZFNXtUiRCmvaiHuD1T/DVIHJv2EYJ8sA7HM6gAigPrmoFVc3XnpD3OhI4EHCPsctGqwRmgUwnjkFvsIfMjel/A9r/93oT+5WOvR8W6usaZEiZV3XWtyN+njvTf4NwzjBBqA1uRlw+HKpg3kA1rth+/oryGEsQI7XqFK2iQDjU4j+/z3BFMl/YGv0L9a/uPdRk34i/75EkRLrWvOdsO+9bf43DOOEG4CJzYBb2q7DkUBEivUgvnxr50aAg7YD3qLNI5sIMJ4hWb7F75KeSv5HJ///58c/q9L3bWp+zZdYkZKu6WbcjvtxPC7/Fv8bhnEiDcCEZkCStcCAKqKAF0Tub+RTF66O9wzuL+tChgsoj6wXwHhm0f93+AaFKbb+jck/P3r4jxv0fTsZ/ZOSlAfH/trmP8MwXhwDsM9yYEAR1UFbwL21hfy5SxzCAsAMl0ixTmeKjIFhHI5l3uXrB27927345x8++evVZPKfdSlLkaT3vxn3Itv8ZxjGi2QAJs4DDPVaPeJRh4DcKZ8qnL1wOAuQ5yXSbFK3zQDGU/1lucZ3+BZpPBxC/j0/K/+PIqHv+gYbVLRISSts+u3Fv96a/wzDeGEMAJM6AWT4quqRpB0Q+L+l5aVT5w5jAZSAm8ywTsu6AYynRIbrvM8XBwl9DiH/v1r9L4+IRuS/qGXWfSPe3vuPyb9hGC+QAWhNtgCwPRKoogLug5XL5xZPHy4LAJc5S4UNOyvQeGIE4Tbf5dUD5X+89U/x3Fn/wQMi3/ENNhP5p8y6NuJOvy/D0T/r/TcM40UyAHvOA4y8looXBOE3j65emF86TDsgwCKXaFE2C2A8ISne5n0uw6Hl/+7GH98n8h1tyQarg8n/Da3FnaiPj6z33zCMF9MATDwjcOy9Kl5UUH7z6PrlwsLELcJ74jjFMjGrthnAeAJm+RrvcRGmaPwbl/+PNr5/XyPf1RabWtGxyX+NTf4Nw3iBDcABWQAF9aJ4Uc+vH966MjN/OAsAi1wlZoOuWQDjsTjNN3iX0wfs/Jsk//c2/+R+HPqubq/9Leua1n0r6sdx7E3+DcN4oQ3AjpHASRZAxaOiMb9+cPViYfGwFiDPa3g26FgpwDgkac7zbX6HzFRjfztr/98fyL9sssZQ/mtxK+6PTP5j8m8YxgtrAA60AAoSg2jMLx9cXt7ZC3CwqAuvsMAqDQZHDhnGgQgZbvD7fAk/5dgfI/L/wdr3H2iUyL+uaVGLlFjTqm+PLf6x3n/DMF5sAzCVBfCooPLrh+dPL57e0SqAHBibneMGDSo2FmhMSZa3+QOuIFOO/TE29/+fHzEq/yuUWPNV3466Jv+GYZgB2NsCyAQLoKJJO+CvHp1fWjo7/MZpZwIci1zGsUrPLIBxIIu8w7ucQw5c+Dsu/x7l/xT/ciWRfzYZyv+qr/qW74Um/4ZhmAGYwgLIqAUQ8KKiyK9XTs+dWT6sBYACl8lSozHRZRjGkCt8e6qFv5Pk/+8/+atSMvjHpq6SJP8H8t8fXftr8m8YhhmAIbPbmq67LUAyD0AsKvqb8nzu3IXDW4AcLzNPnaYdFmTsQZ6X+Td8mdSBlf9t6WdL/v/m4Y8qhL7rm5J0/pcosjYm/7b21zAMMwB75ADGhX/UAqgoHi8Kdyv54Pzlw/QCDF/ML3KNOlUiawg0dv06zPF5vsuNLZ2eTv6Tyr/q//fw79aSnf8y3PpX2kv+be+fYRhmACZbAPa2AOLFw721FBeviBzGAiTMcZscRTsv0NjBOX6H95ibMvXP1iC/4on8D+//04aGg6W/23P/Vd+eJP8W/xuGYQbgYAsw+rrr1SdZANUHG+3W9evO7fQKB48FZrjIZRqs2nmBxtaz4k1+nzfIwWPIfy/+Lx/9vEroO745PPGPkq5pzbejbhiZ/BuGYQbgSSyAJjkA9cTixauWm8XVWzeD1PapwtNZACXDMhcI2LQdgQZwiq/zHW6SmjL1z4j4K43eH9+516TvO77BhgyX/q5p3TejXXP/Jv+GYZgBmMYC7CrU66DhWrx49bXeveKNq9ncTvmfRtKXeImALm1rCXyhyXGTb/AeC1Ok/ndP/SuV1n+8s9ql79u+wQZlLVKkwpqv+VbUN/k3DMMMwONZAJnQq6eoeknaAbUV/vrBtQuzc0Phn34mANK8zDJtmoTWEvhC4pjnLd7nrcHE/2Hl33O/+r17rT493/Y1NrREiRUtkyT/Tf4NwzAD8ERZgJ2vv8nLaTyYCfCh//nD86cXl2THeuCDCwEAp3kdoULXzgp4wRAcZ3mX9zl14FE/40+/7bG/n5V/8DAMpefbvsq6VihqSSqsa913TP4NwzAD8GQWYO8FwZ6YGBWv+quVQmb5/O4tQtPlAS5zmQ6rU/+EcRLI8Dne57Nkp479xxv/VP/2kx+WiKTnW1rTNcqyoiXKbGjNd6NeHMXe5N8wDDMAT8sCKOMD2LFoYgPursW9y4OxQA5lAZQMZ7nIIk3qZgJeEK7zLl/jxlQLf8afdon8h/4vP/7H9WTpD1XWfJEiSfTfiLthz8fRjq1/NvdvGIYZgMe3ADr4bBCOqUc1lghPjD6qb9auXUmldMceoWnkXFjgZRaBpp0WcOJZ5C3e5SvMThX7T2r8a/Z/cOc39eHOP9a0qEUpUdGqb8SdqK+75N/udcMwzAAc0gLsc1Kggnr1eImJJUbXWvdLVy/m8rszANPkAYQLvI5So29zASeWHBf4LX6P8+jUsf9o5V/xlJp/dKfcHY79JUt/pKyrVH096oQh3uTfMAwzAE8vDyATFFtBPbGqxMTE4lv9Xz1aPrW4CMLhuwEgzatco0bLVgWfQFLM8Rn+w9Q9/xMr//xq9Y/vd0J6vu3rg6U/Rcq6xqZvRr0wlG35t8q/YRhmAJ6KBZj06qyoJi3ZMV5i9aH/5Sf51PL5cfWethSgwDyvskCDus0FnLAn+y3e41sswlSx/6TKf+T/5uEPS5rIf5V1LbNCabDyt+V7YRjH3pv8G4ZhBuDZWYDRl1XVZDNAUgiIRT9ar9WvXE6lRgV8+jyAkOM8l5mlTssswAnhAt/gHV4hD4eM/dmq/Df6//mjn24SJZV/v05ZigP5r/lW1Bus/DX5NwzDDMCnlAUYWABiYiLxxPjV5p2VS+dmZ3eL/3R5gBSnucppHH3aZgKOOct8lm/yJc7gphL/SbG/8rD2vY9KnaTyLzVWfZkVilphQ2tbU//DxgKTf8MwzAA8IwswWqAfmoAYLzGRRMT4dvjzh4v5s2fGK/mHOfwnwyVuM0OfHn0zAceUeV7mHd7j8pQDf3vIv/6k9GcP+8nGvwYbVLREUUpU2PR13w17cWxLfwzDMAPwaWYBdOwj731SBiCWSPX/ltvtSxeC4HFKATowATf4LDFNenhrCzxWODIs8zX+A9cIpmz6m5z6b4d//tE/rBPR801fY51VLVKSkq5S9Y24G/U1jsf6/k3+DcMwA/CsLIBMDto0RtVLKBERMVqs31m5cGZudvybp88DKEqK27xMj6rlAY4RwiJf5N/zOQSmFP/Jqf8HtT+6u9Im9B3fkqpfoyIrFLXMuta0FfV2j/2Z/BuGYQbg07EAOqLWqMdrjCeSmBjfCf/lYS5YPouMnit0mNFAcMxxnWt42nZ88LFgiTf5t7zF2RFRf5zYP/R/8/AvVrZS/5u6KiUtUtRk338r6kWjff+2888wDDMAz9YC7NEQOHitV48SS6QRERGx+o83Plm7ej6TSURfDp0HACHPBS5yloC27Qo80izyWb7B29wgN3Xif3fsr3jW2z+4+6s6oe9qy9fZoKwlSlJklU1txJ04jKzv3zAMMwDPKQ8wGroxkgnwPukECDV2kca1zi8eLhXOLO1uCZx+PwDMcZ0rzODxdMwEHDmEM1znq3yTV6Ze87s79h+2/f208v371R593/FNarpGmRJFyqz5qjbibtT3dtyPYRhmAJ6zBdgdyql6PBGxCzWSWOIw/qDU7Fw5P2wJfJw8gKIUeJlXKdAhJMabCTgipJjlOu/wu9wmfwjx332+VLLr/799/HdrPqTnO77OJqtS0qJspf5jq/wbhmEG4AhYgEm5AEXVqycmIpY+ERG+1Pjg0aWJLYGHMwF5bvI2Bao0sdf85x/3O1Jc43f5LjdIjyry48X+3K9+76NP2knqX2usJ+t+pcQqG1r3nUmVf5N/wzDMADz/LICOvK7HGhNLREhESNwL/+WR0+VzzvHYeYDkigMu8Abn6NAlxMoBz48CN/ltvsN1UvjHEP/Rur/Sjf764V+u9ELp+Y5vsOlXtSxFilSGqf+wH8c7V/6Y/BuGYQbgU7cAIyZgvBdgkM/1yVRAREgkkYbiH2x+WDy3OF943H6A4dUHzHKZy1whoEfXtgQ8h6fvaT7Dt/gSrzODO4T47xX739v8k3t3GkSatP2tU6FEiZJWWNOabyep/90z/9b3bxiGGYDnmQeQCa/uiqpqTExExGA/QLv/80/C/oWzwY7//+FNgGOJa1ziDDPExIRmAj61uP8sb/Jl/jUvMw+PJf7jsX+z/8P7f1Xq9CU55reqa1QoUZSyVqj6uu/EfUv9G4ZhBuCoWwAY7+7yGhFLSDToB4g/qf/i0bn5xfnkVGEZMwGHEfGkMfAar3KKGSI8oeUCnvGTdo7zfJ6v8U2uDRr+Hk/8GeTxk0N+/+TjRy1CHY78rUpZi5Qoy7rWtBl1o9BHsR8f+jP5NwzDDMBztwB7lAK2wjzv8T7ZDBDSl4ioF/2yWGtdPJNOyxPlAZIbSXOR13mVPE16hxAkY3ocAWku8XXe5wssbx3to4d6pHYm/j317n+997erYX8w8jcS+0uFTa35dtSLwmhC7G+pf8MwzAAczTzA6I5Ar4rHa0RfIg0JCYkrzZ8/msudWVQZ/8HDFwOS75/hGq9zBaFui4OfOvN8nm/zDq8yi2wN4B9W/McT/7H+tPzHH1e6Sc8/dV1nTcpalJKWWdeqNuLOVtufpf4NwzgxnDh9Orfd1p/k8h2CG7wFkiIIskEmNetm3YIsuSU5zZIsvXL53S+emku+WbaKAIfPBMjghiM22eBDfkGRnpmAp0COy7zBLU6xQOrQcf/eif+11l8+fNgmou+7viUNqn6DNdZZp6o1bflu3A9D8ZHfGjCw1L9hGGYAjrgJGKqxjFoAnKRdOkin8jITzLtFWZRTcloWWXjnjS++lkm5rR95UhMghNzlAY+4T42O2YDHJM8SN7jIVW4NUv5PKv46MADt6O9X/vc6MaHv0fZNamzqmm7IOutap+lbvr9j2a/F/oZhmAE4dhZgZx4gE2SDmaDg5mXBnZYlTsnS4qn33nr5CoybAHmMu2r7Jx11fsVD7rFOl551BkxNQIYc57jKDV5jZmvo/nD34CTxTxL/v177YbEdbsX+dap+nXXWdYMqdW363q7Y3+TfMAwzACcgD5By6SDj8qm8m3MLLLlTcoolt3Dj4nufP70gOMDBSC7g8HfW6E0X+YAHPGKdkAhvz7x9SJEiwxkuc5XbnN0Zfh9S/Bn52WEP30r9f608bBMR+p5vu4avUdU1XZd13ZSaNn077keht7q/YRhmAE5kHiAgFWSCTJAPCm5OFmVJTrkllph7+6WvvDaXH5qAxy8GMPKTCsSUKPIRH1KxfQF7kuE8L3GDiywP7r3DS//O2D8R/8QA1Lt/s/LTKp7Q9+j6JnWqfsOt6wYbuklDW3HPh4PY3+TfMAwzAMfaAkzOAzgCSUkqSAf5YMYVgnkW5ZQsyZJbSC/81u23XsqknrwtcPzmPRFt1ilT5C4PiMwGjEn/NW6xzAWWyJF6jCG/SeK/3fIHvfifij9ei2NC+r7r21Kn7jfYZJ0N3aSuTe3EvSiaFPub/BuGYQbgpOQBJCkFEAQZl07lg1mZkwW3KEuyJIssLJz69hsvXwnkydsCd9oAUBqUWGGFFVapv+BPwoB5znCRS1zkPIWRqP1xpX9Sy1/of7X6o0qjT0zfd31Hmlqjqhu6IRtUtUpTW74X9aN4UPfHYn/DMMwAnMw8gGz3AwzyADk36+ZkURZlSZZYlPmzp955/ebFlMhEE/CkNkCI+IiHrLLGGg26g26zF+WpF5BjnrOc4RyXubmV7H886d9L/BUl8r9Z/1G52tek6t+RltapssmGbrJBXeva1k7UiyPvLfY3DMMMwMnNAzBmAZJ+gMClg3SQC2bcnBTcIktukUUWZP78mW/evnnePVUTMG4DhA4fcIcyDar0CPEnuE0wICAgxxILnOVlXhs5wPdxpX8/8Y/1w/X/v7zR04jI9+jQ9g2p+w022KRKlbpvaXsw8Oe3tgtZ7G8YhhmAFyIP4EaKAbmgILNunkW3yJIsuAUKl89+/faNZWHUBDxpQWCnHxE8K9znISU2aNDdcbjh8X+iCUKeOU6zzFWucx7GQu3H/Z+OV/zH9vzpnY0flctdEvHv0dYGdV9lUzdkk5rWaWrbmv4MwzAD8CKZgG3ddQMbEOAkkFSQDnJB3s24OZmTRRZkSRbcPIVry1975dq5SXkAecK7Urb+Scl5gh1WWWWTCqts0jgRD9IcpzjHWU5xhjPkSI80+T2JydnZ7sfIvoC7Gz8uf9IhJvR9ur4tTd+QqlZ1Uzapao2mdrS7I/Fvu/4MwzADcMJNwHhT4Nh4oEsHaZcN8sGsFGRBFmWBBbcg8xRunf/aq5dOy9aSH55SQYAxGyEIPfq02GSVDVpssknt2FkBocACpzjFLEucZZFZ0mR2CPaTSf9u8U8MwL3qj0sP28RJ5O9b0vINqemmVP2m1AZV/27c91GUnPBnTX+GYZgBeKHyALsnA5KOAOfSqUyQc3k3K3Myl9gAmZcFZq+d+/JL15dTsr0o6OmZgPF8QPK3p8sGa1SoUqNDmxYdOsRH8r5NkWeGGWaZYY4lznKORXIj0/xPo7Ax8bjHgfhH/u7m31cedYiJBpF/yzekxiZVrVKjpk3avq3hVse/Nf0ZhmEG4AXNAzChIyAgCDJBemgC3BwLsiALLMqczJ5a/PpLL1/KBuzZFfDkd+3Of2Dyp02REhXWadCmR4+ICE88CGE/3SfP8O5KE5AlT54FznCG85wnD2Mp/qfT0bAz7h8/2a8X/XLtf6/WQ42IfJ/eUPy1Jhtao0aDurZ924c+DEPUEv+GYZgBMBOwsyPA4STlAkkHmSDr8q4gBTc/MAHzMi+zM4Wv3PjM1dns3l0BT+fuHU9XjH7U4AGr1FmnRZsefSLCgSEYF9vHFV+ZYEWUgIA0KTKkyDLLHKcpcJbrzOwSe90h3E9T/Me7/eu9n1b+aaMbDWr+Pd+Wtm9ITeuyqZvUqWuDtnbing93Vf0t8W8YhhmAF9ICTOoI2G0CZlxBZpNCgCwwLwUpuPzb1966dqogY12FTzsXsPvBSq7dAzE6mFzrs0GDOnVq1Onh6RLh6RMRD/4c9vZSBKQICMjgSJNDyDPPPPMsMM8iaQQhgMFdphOMx9OXfsYCd2W19ZPKP1fxRIQ+pENXm74lNa1LVTe1LjWa2tKO78f9OPZxPH64r8X+hmGYATATMLknIDEBqZybkVmZlfnEBMgcBQrk37jwr65fOT3645OmA+SZPHDbt9Fnkzo1GlSp0x0YgJg+IZ6QmIjeyOmGeuATIjOI9QPSg/c5HHnmWKLAInMskd6VX3i6Kqq7chijcT+o3qv9pPJhcyD+fTraoUVT69SoaU3r1KSlyaT/UPzVqv6GYRhmAPYzAW7wJ8AlJiCdcVk342YpyJzMMS8LMsecFMifXfjitVcvzmT2zwU8mzt87yLB0+fZJfgPlv6dcX+z/8H6P61X+8SDDX9daWtTmlrXutS0Tp06Jv6GYRhmAKYyAcKkVUFbmQCXSaVd1uVlVmalMDQBMqcFmZHcWxc+c/nKKZGduYBPwwZMzjY8vVvaLfbPSjcnS/9o3B/r/drP1n7ZwBMT+pCe70jHt6SeyL7WqNOkScfE3zAMwwzA0zABTgKXklQq47IuKQgUZE7mmWdeCsy5Gc2dmfvClVcvFHKjuYBP1wY8u2t/1mq5n/QPJ/zrvV+v/WSjHmrMoNefrrZ8Sxo0qPmaNKjRpK1t7U4Qf2v5MwzDMAOwjwWYbAKGjYFJT0AqyLucy7lZChRkXuaYk3mZ1RmZkeyby29cunpmeILAbhvwrHoDjiv7S/9gq7+/X/2X9Q8aojqM+3vSoUNTG9qQmtZo0NSGtLSr3bjvQxN/wzAMMwBPwwSMTgcEuFTapV3G5YK8zMgsBZlj3hWYY5ZZN6O5U3NvXrh1bnlh/OCfyTbgRX0oJo8q7pR+9FHjw+ovqs1oUO/v06OnHd+SJk2tS903pEGDlra1o10f+TCM8JPF3+TfMAzDDMDjmwBJTECQdqkgE+QkK7NuhqQvoMAcBTers5KX7OnC5y5cP7O/DXjxjMBeOwrGpR+Ulcad6s836xFeIyIfJtJPh5Y2tCkNrdOgSYuWtrWrPR/GURShJv6GYRhmAJ6+CRjpCcAFKZcK0i4jeZeXvMxSkFnmpCBzMquzkicn2dOzb164efbc3LgB2DsfcFIfGt318e7jfIaaXWrerf5ssxriNSai7/uE2qHj29KmoQ2St5a2aNPRng9938cD8d8+EwgTf8MwDDMAT2YCRkN4N24DXOBSLhVkXdblSEoCs25OC1Kg4GZ0VnLkJH127nPnb549XYDJ+YCTmxHYPTuwd8wPq6271Z9WN3oD6Q99nz497fq2dGhqU+o0tEmTlrbp0PNdH/oojrwfrPixJT+GYRhmAJ5BLmD89IDRgkAqSLmMS0ve5ci7WWakQIFZmaUgeWaGNuDVM9dOn1/IBHvlAya3CB6/B0snfLxb+Le1uh8XGx/VP6htRf3hIOXfo0NL27S0SVOb0qBNSzt0tev7PvJhFFvF3zAMwwzAp2ECJhUExAXqtnIBGZeVmUE2YEYKzMiszsoMecmRlQzpN85cO3V1aWlmPLmw17CgHJMHTid+Np4B2Jnsh/X2w/pHjQ8aAvFA+iN69LWb7PaTpm/SGry1tUMnqff7KIp10oy/ib9hGIYZgGdsAtjKBGznAiRIBSmXdlnJupzkJMcMM5LYgILOyIzkGNiA07O3T984tTzIB4weBLzXnIAcsYdR97xkd6vfzr/7cbHxYfXDRjXEJ9KvkYb06elgra+0tKWtpM2PNl062teuDxPxH9T7dUdCwcTfMAzDDMAzMwG7CwJj+wLEuUASG5BxOclKVvLkmU36A2RGZyRPTnKadRnSpF4/dXnx/PzZQia12wDsNzIon/rDqgdcNqnDf6fw96JKq9h62PpNQzRJ92ukEX36mqz26dCRlra1JU1t0aKjXTr0tKd9H23V+/eI+038DcMwzAA8r1zAdknASSpIBRmXkeyWDZiRPAXJD3MBkiOrGZchpamr89cXLs6fmytkJ00KHNwbIE/4wE+nnHqg/O8+NUCBem+19aj5cXOlSyL8MZHGGg6Ev6ddurSlo21tSXvQ39+hS5e+7/nYh1GsHh0c5osl/Q3DMMwAPF8TsLsvYKsk4Jy6ICAIUkHGpSUrWcmRkzw58pLkBHKaT8YFNUPapUlrcDp/Y+Hy/Lm5M4XRm9h98M/0FuDwD7YeUv7HDwgakX9daxebn7Q/blZDfCL8SdRPKFtrfehI17elTdu3pUObrnbp0tO+9n0YR3Gkfmy+f9xjmPgbhmGYAXjOuQAOsAFpl5GsZCRLTrIDIzBDXvOSl7xmXYaspsm4FClN4V5aOF84M7s0s5TPpfc7VWC60cHpHnKd6mu6pwFQoBNWO+vd1W6p/XEbxROrV09EpCGxJMN9fe3SlS5t7Whb2tqhQ4eu9ujR03AP6cfifsMwDDMAR8kE7C4J7OgNcE4lSIkLUi4tacm4DJkkI0AuyQNInrxmXVZzpF1W02RIuRQpDXCnshcLy7OnZ07NLuWTMwcnG4CDTxo4fAlg0tG/u7f4xVrrrrXXOqudR516hMejGqsnJtaISCLfJ+nv79GVpNrfpa1dOrTp09Fe0gmgfR/vkn6s3m8YhmEG4GjnAibbgIERcIGKcy7lnEu7tKQG+YAMOZclR1ZzkpOc5iQnGXKakTQZUmQIXIpAA5wEV2YXs0v5pVwuvZSfyWRTk3MAh8sFHBz375b/TtQJNzudaLO30alHj7qDnnzvY4ayH0uyxDeiT09DutKlq13tSG9Q30+q/8lX+z7ysUaDWv8k6be43zAMwwzAEc8F7GUDhk2CTl0QuMAFknIZlyblsmTJkJUMGXJkB0YgqxmX1Qxp0pImIE1KAkmpI8CJQ3C3CvOZuezpmWxqMQdDS/B0HuRtne2EnQjd7Pbi9W691wjvdVA84FG893g8MX5L9iNCQkLt06cvvaSXnx6dJMlPj5Ce9gm170ON4kh9HO9K95v0G4ZhmAE4YTZAEhvgnBusE5aUJEYgTZoMGcklloCsy2pGMpohI2kykiKjgaRIiSMgwBHgcIgEkGQabs7i8sHprMp8NjcwBKfzMvKop4L5LEC9G/ntS71udBOp7USNPqx1+z7y9ztbnX0DyfceJRF9rzGxxHgiHxMRSkTfh/Ql6e/va0+SGL9Ln0Ganz6xhtr3scY+juMJlX7dnXww8TcMwzADcBxtwNAKuJ12YFAYGGQEJOVSpCVNWjKSIU2GNFlJa1oyZMlKmoymJUOKFClJkVJHIG5gCNzgbZhtQBw7Vw7urhlMHuFXFPxIpI/i1eMlTtb3aEycRPzEPiQklFD70vM96ZO0+oWJ6A9yAZGGRBpOFP7ddX6TfsMwDDMAJ8oGbBsAxjMCiDiXEuecS0nKBaQlRZqUZCSlKdKSGcq/ZiRNIBmSy1OkNCWBBElOQB0BghOHk4ERIDECTtmRmxgK/4jwigfdEn714jVp6/PEeImJ1BNqJDERoYZE0vdD+U/EPhy+aTR4H/nIxxqr3xJ+9uzuN+k3DMMwA3DC8wETrIBziEoQiEsFOElJ4AJSpGTbEKRJaUqS+D/5PCCdZAQ0GMkFBBok+wmH17plBNi63RH5Vx3K/yDeV41Rkng/ifsj9UQSD4WdkJiIMJntJ7ks0pCIaLjnT2P1PlYfxaJjwm8xv2EYhhmAF9IG7DYCO/5OcgIizkngRAYxvqQkICBFICkCAgk0jSOdfE0HxQANxJEaZAOcCAGiMsgIDK5fkr9VFR3K/zDVj0pS4/dExOI1Hki/JyZKcgBERMQaiSfSaHB5TKRe46Hse+9VkkQ/+9T4TfoNwzDMALywRmBc/nfkCJwg4gInw7dAktp/MHifEiHF8DJJSgGSvB+cWqgOcALIVuZBt9f1Dz/yqKqoxqLEqHqJB5mACIiJ8UTEiTVIvqIRqrHGqj6COPYevN8h95OifRN+wzAMMwAvpA3YywiMnxM89rlzCCIizok4nOACRAIJcIIEKpIk/kXcUP5VJGk+dNu3owIgklgA8VtiPGzLS3oAPDGKVyWReh3kBWL1eK949eq9qvceROPxqv5e9f0RuTfpNwzDMANgRmCyFZhsCwZ/nCCQ2IEksnfgRETUichwGyEiMhB9kPHzhgbyrH74maoMCgOD5j9FvYdE8iFRfED9pDa+vdv6LOI3DMMwA2BMbQUmm4FJn229H9iCpHQwlH03kP5tE7CFqgwk2Q/7ARBNPvbDgcDdx/ztL/gT9gib8BuGYZgBMA5nBSYK/Z6X7nycD38a0Lh873yve3zNZN8wDMMMgPHUrMB+C/9ln0v3frRll+BPsgG6jxmYJPVj12eybxiGYQbAeJpmYK/Yfi/RP8zjrQdmBPa61ETfMAzjyPP/AF7F87ducPGJAAAAAElFTkSuQmCC;clipPath=inset(0% 46.33% 2.67% 0.67% round 50%);" vertex="1" parent="1">
                    <mxGeometry x="710" y="411.17" width="77.68" height="71.33" as="geometry"/>
                </mxCell>
            </root>
        </mxGraphModel>
    </diagram>
</mxfile>
